<?xml version="1.0" standalone="no"?>
<!DOCTYPE svg PUBLIC "-//W3C//DTD SVG 20010904//EN"
 "http://www.w3.org/TR/2001/REC-SVG-20010904/DTD/svg10.dtd">
<svg version="1.0" xmlns="http://www.w3.org/2000/svg"
 width="177.000000pt" height="265.000000pt" viewBox="0 0 177.000000 265.000000"
 preserveAspectRatio="xMidYMid meet">

<g transform="translate(0.000000,265.000000) scale(0.100000,-0.100000)"
fill="#000000" stroke="none">
<path d="M1216 2628 c-15 -77 -50 -218 -62 -246 -12 -30 -12 -33 2 -30 9 2 25
25 35 53 22 57 59 201 59 227 0 26 -29 22 -34 -4z"/>
<path d="M1304 2603 c-3 -21 -12 -63 -20 -93 -13 -52 -13 -83 0 -42 4 11 32
36 62 57 l56 36 -7 -33 c-4 -18 -20 -64 -36 -103 -33 -80 -34 -85 -14 -85 8 0
15 2 15 5 0 3 11 42 24 87 13 46 26 111 29 146 l7 62 -55 0 -54 0 -7 -37z"/>
<path d="M123 2557 c14 -4 40 -4 59 1 29 8 27 9 -25 8 -45 0 -53 -2 -34 -9z"/>
<path d="M305 2526 c16 -27 16 -30 -5 -60 l-21 -31 25 27 25 28 21 -28 21 -27
-17 32 c-16 30 -16 33 0 60 l17 28 -21 -25 -22 -24 -20 24 -20 25 17 -29z"/>
<path d="M390 2543 c0 -5 15 -8 34 -8 19 0 32 3 29 8 -2 4 -17 7 -34 7 -16 0
-29 -3 -29 -7z"/>
<path d="M492 2538 c-7 -7 -12 -26 -12 -43 0 -37 15 -55 46 -55 47 0 72 61 38
94 -18 19 -55 21 -72 4z m66 -10 c7 -7 12 -22 12 -34 0 -51 -72 -61 -78 -11
-2 16 -1 35 2 43 7 17 48 18 64 2z"/>
<path d="M597 2523 c17 -30 17 -32 0 -51 -9 -10 -17 -22 -17 -26 0 -5 9 2 20
15 l20 24 20 -24 c11 -13 20 -20 20 -15 0 4 -8 16 -17 26 -16 18 -16 21 1 51
l18 32 -20 -25 -20 -24 -21 24 -21 25 17 -32z"/>
<path d="M800 2535 c-7 -9 -11 -17 -9 -20 3 -2 10 5 17 15 14 24 10 26 -8 5z"/>
<path d="M932 2536 c7 -8 15 -12 17 -11 5 6 -10 25 -20 25 -5 0 -4 -6 3 -14z"/>
<path d="M101 2491 c-29 -56 -26 -65 5 -13 14 24 24 46 21 49 -3 3 -15 -13
-26 -36z"/>
<path d="M191 2492 c13 -22 25 -39 27 -37 5 5 -27 63 -39 71 -6 3 0 -12 12
-34z"/>
<path d="M451 2512 c-1 -8 -13 -12 -36 -10 -19 1 -37 -1 -41 -5 -4 -4 -2 -7 4
-7 7 0 12 -11 12 -25 0 -21 5 -25 29 -25 39 0 53 19 42 56 -5 16 -10 23 -10
16z m4 -42 c0 -9 -11 -16 -27 -18 -23 -3 -28 1 -28 18 0 17 5 21 28 18 16 -2
27 -9 27 -18z"/>
<path d="M754 2509 c-3 -6 -2 -15 3 -20 5 -5 9 -1 9 11 0 23 -2 24 -12 9z"/>
<path d="M792 2480 c0 -14 2 -19 5 -12 2 6 2 18 0 25 -3 6 -5 1 -5 -13z"/>
<path d="M700 2461 c0 -10 19 -25 25 -20 1 2 -3 10 -11 17 -8 7 -14 8 -14 3z"/>
<path d="M936 2453 c-6 -14 -5 -15 5 -6 7 7 10 15 7 18 -3 3 -9 -2 -12 -12z"/>
<path d="M190 2326 c-6 -8 -18 -12 -26 -9 -10 4 -12 0 -8 -11 5 -12 2 -15 -12
-9 -13 5 -16 3 -11 -10 4 -11 1 -17 -8 -17 -8 0 -15 -6 -15 -14 0 -8 -4 -17
-9 -20 -5 -4 -7 3 -4 15 6 20 4 20 -18 8 -13 -7 -31 -12 -38 -10 -12 2 -12 0
-4 -11 8 -9 9 -19 3 -28 -14 -22 -12 -40 5 -40 8 0 15 -4 15 -8 0 -4 -9 -8
-20 -8 -13 0 -20 7 -20 18 0 10 -4 18 -10 18 -7 0 -10 -337 -10 -990 l0 -990
573 2 c314 2 578 7 586 12 11 7 11 10 0 17 -11 7 -10 9 4 9 9 0 17 -7 17 -16
0 -8 5 -12 10 -9 6 4 8 11 5 16 -4 5 21 9 59 9 37 0 66 -4 66 -10 0 -5 7 -10
15 -10 8 0 15 5 15 10 0 6 39 10 98 10 120 0 162 11 212 56 40 36 45 46 54 97
3 16 10 35 16 43 10 11 10 45 1 102 -1 2 -7 0 -13 -3 -7 -4 -4 1 6 9 14 11 16
16 6 16 -8 0 -32 19 -52 41 -25 27 -38 36 -38 25 0 -9 -5 -16 -11 -16 -5 0 -8
-3 -6 -8 3 -4 -17 -20 -44 -37 -49 -29 -57 -46 -50 -102 2 -16 -6 -17 -290
-15 l-187 2 5 48 c6 54 9 58 44 67 20 5 27 2 31 -12 6 -24 101 -55 131 -44 23
9 66 51 52 51 -4 0 0 12 10 26 9 14 14 35 11 46 -4 19 25 57 45 58 4 0 10 -38
14 -85 l7 -85 36 0 c57 0 60 5 48 97 -5 46 -7 86 -3 90 4 3 22 6 40 5 20 -1
43 7 61 21 24 20 29 31 33 89 5 54 9 67 24 71 12 3 19 14 19 30 0 20 5 24 28
23 15 -1 33 3 40 8 14 10 16 42 3 50 -4 3 -6 -6 -3 -20 4 -21 1 -25 -14 -22
-14 2 -18 11 -17 31 2 21 -2 27 -18 27 -12 0 -23 10 -30 27 -6 15 -16 31 -22
36 -9 7 -9 10 0 13 18 8 4 34 -18 34 -12 0 -23 -10 -29 -25 -10 -27 -17 -28
-98 -19 -29 4 -52 12 -51 18 5 43 -2 56 -28 56 -22 0 -25 2 -13 10 12 8 11 10
-7 10 -17 0 -22 7 -25 33 -3 32 -3 32 -57 32 -53 0 -55 -1 -63 -33 -5 -18 -17
-36 -26 -39 -9 -4 -37 -23 -62 -44 -41 -34 -49 -37 -91 -32 -38 4 -46 9 -42
22 3 12 -7 22 -36 35 -22 10 -51 31 -66 45 l-25 28 30 -5 c16 -2 27 -8 24 -13
-3 -5 2 -9 10 -9 18 0 41 39 29 50 -4 4 -30 5 -56 1 -50 -8 -61 -3 -51 23 9
23 71 21 117 -4 70 -37 101 -17 95 62 -2 33 1 43 17 49 11 4 16 8 10 8 -5 1 1
8 13 17 13 9 29 13 37 10 8 -3 15 -1 15 3 0 15 -23 19 -44 9 -13 -7 -22 -6
-30 3 -6 8 -7 11 -2 7 5 -4 17 -3 27 2 10 6 29 11 43 12 32 3 32 5 4 29 -20
16 -20 18 -5 19 9 0 17 4 17 10 0 5 -7 7 -15 4 -8 -4 -15 -1 -15 5 0 15 -103
2 -113 -15 -4 -8 -13 -14 -19 -14 -7 0 -6 5 2 15 11 13 8 15 -14 15 -15 0 -29
7 -33 16 -3 8 -15 14 -27 13 -11 0 -36 -1 -53 0 -30 1 -33 4 -33 30 0 17 -4
33 -10 36 -6 4 -6 13 0 25 23 45 28 58 45 113 10 31 23 57 30 57 8 0 16 18 20
40 6 38 9 40 42 40 45 0 40 24 -6 28 l-32 3 3 62 c3 55 1 62 -17 65 -11 2 -28
11 -37 19 -12 11 -30 14 -60 10 -63 -7 -120 -24 -128 -37 -5 -7 -16 -9 -29 -5
-12 3 -21 3 -20 -2 7 -41 1 -44 -78 -42 -43 1 -85 4 -94 6 -9 3 -23 28 -33 60
-18 56 -15 88 4 39 13 -34 34 -42 64 -23 37 25 39 53 4 93 -16 18 -35 34 -41
34 -6 0 0 -12 14 -27 24 -26 10 -23 -23 5 -14 11 -15 18 -7 29 9 10 7 13 -7
14 -18 0 -18 1 0 8 18 7 18 8 3 14 -9 3 -17 11 -17 17 0 16 22 12 36 -7 7 -10
14 -13 14 -7 0 6 -7 17 -16 25 -12 10 -20 10 -35 1 -16 -10 -19 -9 -19 3 0 8
6 15 14 15 8 0 16 6 19 14 8 19 -34 26 -163 26 -81 0 -110 -3 -120 -14z m217
-60 c-3 -7 -1 -18 5 -24 6 -6 -6 -3 -27 6 l-37 17 28 6 c16 4 31 7 33 8 2 0 1
-5 -2 -13z m-343 -77 c-3 -5 -10 -7 -15 -3 -5 3 -7 10 -3 15 3 5 10 7 15 3 5
-3 7 -10 3 -15z m346 -70 c0 -11 -4 -17 -10 -14 -5 3 -10 13 -10 21 0 8 5 14
10 14 6 0 10 -9 10 -21z m-183 -96 c3 -7 -3 -9 -17 -6 -29 8 -37 25 -9 21 12
-1 24 -8 26 -15z m546 10 c-7 -2 -19 -2 -25 0 -7 3 -2 5 12 5 14 0 19 -2 13
-5z m-492 -47 c-26 -25 -35 -17 -20 18 10 21 15 24 26 14 12 -10 11 -15 -6
-32z m577 14 c17 0 32 -3 32 -7 0 -5 -25 -6 -55 -5 -30 2 -55 8 -55 14 0 6 10
8 23 4 12 -3 37 -6 55 -6z m-618 -50 c0 -5 -4 -10 -10 -10 -5 0 -10 5 -10 10
0 6 5 10 10 10 6 0 10 -4 10 -10z m45 -20 c3 -5 -1 -10 -9 -10 -9 0 -16 5 -16
10 0 6 4 10 9 10 6 0 13 -4 16 -10z m115 -42 c0 -6 -6 -5 -15 2 -8 7 -15 14
-15 16 0 2 7 1 15 -2 8 -4 15 -11 15 -16z m216 7 c-22 -17 -36 -19 -36 -7 0
14 12 22 34 22 21 -1 21 -1 2 -15z m-196 -25 c-8 -5 -19 -10 -25 -10 -5 0 -3
5 5 10 8 5 20 10 25 10 6 0 3 -5 -5 -10z m88 -48 c6 -15 13 -36 17 -47 6 -19
6 -19 -5 -1 -10 15 -14 16 -21 5 -6 -10 -9 -4 -9 18 0 17 -4 35 -10 38 -15 10
-12 25 4 19 8 -3 19 -18 24 -32z m57 28 c3 -5 1 -10 -4 -10 -6 0 -11 5 -11 10
0 6 2 10 4 10 3 0 8 -4 11 -10z m-95 -31 c0 -6 -4 -7 -10 -4 -5 3 -10 11 -10
16 0 6 5 7 10 4 6 -3 10 -11 10 -16z m-210 -4 c-7 -8 -17 -15 -22 -15 -11 0
14 29 26 30 5 0 3 -7 -4 -15z m281 -99 c-5 -11 -18 -26 -30 -34 -19 -13 -21
-13 -15 2 3 9 1 16 -5 16 -8 0 -8 5 0 18 6 10 22 18 34 18 19 0 22 -4 16 -20z
m129 -16 c0 -19 -10 -40 -30 -60 -16 -17 -30 -36 -30 -43 0 -6 -7 -1 -16 12
-15 21 -18 21 -26 7 -5 -9 -13 -16 -18 -16 -17 0 -11 39 7 49 10 5 14 13 10
17 -5 5 -12 2 -16 -5 -7 -10 -10 -10 -16 -1 -9 14 12 30 40 30 11 0 26 9 33
20 7 11 23 20 37 20 21 0 25 -5 25 -30z m-40 -155 c0 -5 -5 -3 -10 5 -5 8 -10
20 -10 25 0 6 5 3 10 -5 5 -8 10 -19 10 -25z m-10 -45 c0 -5 -5 -10 -11 -10
-5 0 -7 5 -4 10 3 6 8 10 11 10 2 0 4 -4 4 -10z m480 -11 c0 -5 -3 -8 -7 -8
-20 3 -26 -2 -13 -11 12 -8 11 -10 -7 -10 -13 0 -23 5 -23 11 0 6 -7 8 -16 5
-8 -3 -12 -2 -9 4 3 6 17 10 31 10 14 0 22 4 19 10 -3 6 1 7 9 4 9 -3 16 -10
16 -15z m-453 -80 c5 -42 5 -43 -11 -24 l-16 20 7 -20 c3 -11 2 -17 -2 -12 -5
4 -9 30 -9 57 -1 41 1 47 12 36 8 -7 16 -33 19 -57z m433 27 c0 -3 -4 -8 -10
-11 -5 -3 -10 -1 -10 4 0 6 5 11 10 11 6 0 10 -2 10 -4z m-390 -135 c-7 -28
-16 -41 -28 -41 -10 0 -22 -4 -27 -9 -6 -5 -20 -12 -32 -16 -20 -5 -23 -3 -23
19 0 21 5 26 25 26 15 0 28 7 32 17 9 22 57 64 61 53 2 -5 -2 -27 -8 -49z
m640 -80 c0 -11 -4 -22 -9 -25 -5 -4 -7 4 -4 16 5 23 5 23 -10 3 -16 -20 -16
-20 -10 3 7 27 33 29 33 3z m-830 -20 c0 -5 -7 -12 -16 -15 -14 -5 -15 -4 -4
9 14 17 20 19 20 6z m-260 -87 c0 -13 -4 -24 -10 -24 -5 0 -10 14 -10 31 0 17
4 28 10 24 6 -3 10 -17 10 -31z m785 -44 c3 -5 2 -10 -4 -10 -5 0 -13 5 -16
10 -3 6 -2 10 4 10 5 0 13 -4 16 -10z m55 -6 c0 -15 -22 -44 -31 -39 -18 12
-10 45 11 45 11 0 20 -3 20 -6z m100 -75 c0 -4 -7 -9 -15 -13 -8 -3 -15 -12
-15 -21 0 -8 -3 -15 -7 -15 -10 0 -57 50 -52 54 22 18 45 23 66 13 13 -5 23
-14 23 -18z m-380 -79 c0 -5 15 -10 33 -11 17 0 26 -3 18 -6 -23 -9 -52 -43
-52 -61 0 -9 4 -36 9 -59 7 -33 6 -43 -4 -43 -7 0 -14 14 -16 32 -4 44 -24 46
-39 4 -16 -45 -31 -47 -18 -4 5 18 9 48 9 66 0 38 28 92 47 92 7 0 13 -4 13
-10z m-645 -80 c4 -6 -5 -10 -19 -10 -19 0 -26 -5 -26 -20 0 -15 7 -20 27 -20
19 0 24 -3 16 -11 -6 -6 -21 -9 -34 -7 -24 3 -36 34 -25 64 6 16 52 19 61 4z
m90 -30 c0 -29 -4 -36 -23 -38 -43 -6 -69 37 -40 66 7 7 24 12 38 10 21 -3 25
-8 25 -38z m105 5 c0 -29 -4 -36 -25 -41 -38 -9 -55 2 -55 36 0 18 4 29 10 25
6 -3 10 -15 10 -26 0 -12 7 -19 20 -19 16 0 20 7 20 30 0 17 5 30 10 30 6 0
10 -16 10 -35z m80 3 c0 12 5 22 10 22 11 0 14 -53 3 -63 -4 -4 -19 5 -35 20
l-28 27 0 -28 c0 -15 -4 -25 -10 -21 -11 7 -14 58 -3 68 4 4 19 -5 35 -20 27
-26 28 -26 28 -5z m100 22 c0 -5 -7 -10 -15 -10 -10 0 -15 -10 -15 -31 0 -16
-4 -28 -9 -25 -4 3 -6 17 -3 31 3 18 0 25 -12 25 -9 0 -16 5 -16 10 0 6 16 10
35 10 19 0 35 -4 35 -10z m80 0 c0 -5 -12 -11 -27 -11 -24 -2 -25 -2 -5 -6 12
-2 22 -9 22 -14 0 -5 -10 -10 -22 -10 -18 -1 -17 -3 7 -9 24 -5 27 -8 13 -14
-40 -18 -71 16 -54 60 6 16 66 20 66 4z m76 2 c12 -7 14 -72 3 -72 -3 0 -14 9
-24 20 -16 18 -16 20 -2 20 10 0 17 5 17 10 0 6 -9 10 -20 10 -16 0 -20 -7
-20 -31 0 -17 -4 -28 -10 -24 -11 7 -14 58 -3 68 9 9 45 9 59 -1z m239 -2 c4
-6 -8 -11 -27 -12 l-33 -1 33 -4 c24 -3 32 -9 32 -24 0 -25 -22 -33 -58 -23
l-27 8 35 6 c30 6 31 8 8 9 -30 1 -43 15 -34 36 6 17 61 20 71 5z m85 0 c0 -5
-7 -10 -15 -10 -10 0 -16 -11 -17 -32 l-1 -33 -4 33 c-3 20 -10 32 -19 32 -8
0 -12 5 -9 10 3 6 19 10 36 10 16 0 29 -4 29 -10z m78 -3 c7 -8 7 -18 2 -27
-5 -9 -5 -19 2 -27 15 -19 -2 -16 -24 3 -17 16 -17 18 0 30 16 12 15 13 -5 14
-18 0 -23 -6 -23 -24 0 -14 -4 -28 -10 -31 -6 -4 -10 10 -10 34 0 38 2 41 29
41 16 0 33 -6 39 -13z m42 -28 c0 -24 -4 -38 -10 -34 -17 10 -11 75 7 75 2 0
3 -18 3 -41z m40 26 c0 -14 3 -13 25 1 26 17 34 7 13 -15 -11 -10 -9 -15 6
-27 29 -20 12 -29 -18 -9 -24 16 -26 16 -26 1 0 -10 -4 -14 -10 -11 -5 3 -10
22 -10 41 0 19 5 34 10 34 6 0 10 -7 10 -15z m135 5 c-3 -5 -16 -10 -28 -11
-20 -1 -20 -2 3 -9 l25 -7 -25 -11 -25 -11 30 0 c21 -1 26 -4 18 -12 -6 -6
-21 -9 -34 -7 -20 2 -25 10 -27 41 -3 36 -3 37 33 37 22 0 34 -4 30 -10z
m-110 -100 c3 -5 1 -10 -4 -10 -6 0 -11 5 -11 10 0 6 2 10 4 10 3 0 8 -4 11
-10z m490 -159 c6 0 12 -10 13 -22 4 -23 -15 -42 -35 -34 -7 2 -15 0 -18 -5
-8 -13 -45 -13 -45 1 0 5 5 7 12 3 7 -5 8 -3 4 5 -5 7 -14 10 -22 7 -22 -8
-17 1 17 34 23 21 36 27 48 21 9 -5 21 -9 26 -10z m-85 -11 c0 -5 -4 -10 -10
-10 -5 0 -10 5 -10 10 0 6 5 10 10 10 6 0 10 -4 10 -10z"/>
<path d="M190 800 c0 -15 7 -20 25 -20 18 0 25 5 25 20 0 15 -7 20 -25 20 -18
0 -25 -5 -25 -20z"/>
<path d="M1654 562 c4 -7 1 -12 -9 -12 -9 0 -13 -4 -10 -10 3 -5 13 -10 21
-10 17 0 19 26 2 36 -7 4 -8 3 -4 -4z"/>
<path d="M1491 2295 c11 -6 16 -14 13 -18 -4 -4 -2 -7 4 -7 7 0 12 5 12 10 0
6 7 10 15 10 8 0 15 -6 15 -12 0 -9 3 -9 8 -3 4 6 17 12 30 12 16 1 22 -4 22
-18 0 -14 7 -19 25 -19 32 0 32 15 1 35 -15 10 -50 17 -95 18 -55 2 -66 0 -50
-8z"/>
<path d="M19 2273 c-13 -16 -12 -17 4 -4 9 7 17 15 17 17 0 8 -8 3 -21 -13z"/>
<path d="M1675 2211 c-16 -4 -65 -5 -107 -3 -43 3 -78 2 -78 -1 0 -13 42 -28
53 -20 19 15 67 15 64 0 -1 -6 6 -11 16 -9 10 2 17 -3 17 -12 0 -12 -16 -16
-67 -19 -61 -3 -58 -3 27 -6 52 -1 107 -4 123 -6 15 -2 27 -2 27 0 0 13 -33
85 -39 84 -3 -1 -19 -5 -36 -8z"/>
<path d="M804 2165 c-2 -30 3 -31 28 -8 15 14 21 15 27 4 6 -9 11 -10 15 -2
12 18 -3 31 -37 31 -27 0 -32 -4 -33 -25z"/>
<path d="M683 2096 c8 -16 14 -20 19 -13 4 6 2 17 -4 24 -18 22 -27 15 -15
-11z"/>
<path d="M1690 1811 c8 -6 19 -7 25 -4 5 4 7 3 3 -2 -4 -4 -3 -17 3 -27 8 -14
8 -23 0 -31 -8 -8 -11 -4 -11 15 0 24 -2 25 -25 15 -31 -15 -31 -24 0 -39 l25
-11 -27 -28 c-16 -16 -33 -29 -39 -29 -12 0 -29 -28 -26 -43 1 -4 -9 -5 -23
-1 -24 6 -25 4 -21 -20 6 -32 -1 -34 -14 -3 -8 20 -9 19 -9 -10 -1 -17 -7 -34
-13 -36 -7 -3 2 -6 20 -6 23 -1 31 3 26 11 -5 7 -3 8 6 3 7 -4 41 -9 74 -10
35 -1 61 -6 61 -13 0 -6 3 -14 8 -18 4 -4 7 13 8 37 0 24 1 92 3 152 l2 107
-36 0 c-25 0 -31 -3 -20 -9z m-13 -157 c-3 -3 -12 -4 -19 -1 -8 3 -5 6 6 6 11
1 17 -2 13 -5z m-37 -64 c0 -5 -7 -10 -15 -10 -8 0 -15 5 -15 10 0 6 7 10 15
10 8 0 15 -4 15 -10z"/>
<path d="M1580 1716 c0 -2 7 -7 16 -10 8 -3 12 -2 9 4 -6 10 -25 14 -25 6z"/>
<path d="M1233 1553 c9 -2 23 -2 30 0 6 3 -1 5 -18 5 -16 0 -22 -2 -12 -5z"/>
<path d="M1629 1496 c26 -28 31 -31 31 -17 0 5 -12 17 -27 26 l-28 18 24 -27z"/>
<path d="M1670 1450 c0 -5 5 -10 11 -10 5 0 7 5 4 10 -3 6 -8 10 -11 10 -2 0
-4 -4 -4 -10z"/>
<path d="M1033 1233 c-7 -3 -13 -9 -13 -14 0 -6 5 -7 10 -4 14 8 13 -8 -1 -22
-6 -6 -10 -16 -8 -22 2 -6 11 2 20 18 17 30 13 51 -8 44z"/>
<path d="M1667 915 c-4 -8 -3 -16 1 -19 4 -3 9 4 9 15 2 23 -3 25 -10 4z"/>
<path d="M1708 923 c7 -3 16 -2 19 1 4 3 -2 6 -13 5 -11 0 -14 -3 -6 -6z"/>
<path d="M1708 903 c-10 -2 -18 -12 -17 -21 0 -11 2 -12 6 -4 2 6 11 12 19 12
8 0 14 5 14 10 0 6 -1 9 -2 9 -2 -1 -11 -3 -20 -6z"/>
<path d="M1656 665 c4 -8 10 -15 15 -15 5 0 9 -6 9 -13 0 -19 47 -61 54 -49 3
6 2 21 -3 35 -5 14 -7 28 -3 32 4 5 -3 5 -16 2 -13 -3 -28 1 -36 9 -19 18 -27
18 -20 -1z"/>
<path d="M1530 649 c0 -5 5 -7 10 -4 6 3 10 8 10 11 0 2 -4 4 -10 4 -5 0 -10
-5 -10 -11z"/>
<path d="M1684 245 c-25 -19 -14 -19 22 0 16 8 22 15 13 15 -8 0 -24 -7 -35
-15z"/>
<path d="M1408 223 c6 -2 18 -2 25 0 6 3 1 5 -13 5 -14 0 -19 -2 -12 -5z"/>
</g>
</svg>
