<?xml version="1.0" standalone="no"?>
<!DOCTYPE svg PUBLIC "-//W3C//DTD SVG 20010904//EN"
 "http://www.w3.org/TR/2001/REC-SVG-20010904/DTD/svg10.dtd">
<svg version="1.0" xmlns="http://www.w3.org/2000/svg"
 width="942.000000pt" height="1300.000000pt" viewBox="0 0 942.000000 1300.000000"
 preserveAspectRatio="xMidYMid meet">

<g transform="translate(0.000000,1300.000000) scale(0.100000,-0.100000)"
fill="#000000" stroke="none">
<path d="M598 12563 c111 -2 293 -2 405 0 111 1 20 2 -203 2 -223 0 -314 -1
-202 -2z"/>
<path d="M3538 12563 c12 -2 32 -2 45 0 12 2 2 4 -23 4 -25 0 -35 -2 -22 -4z"/>
<path d="M3778 12563 c12 -2 32 -2 45 0 12 2 2 4 -23 4 -25 0 -35 -2 -22 -4z"/>
<path d="M4278 12563 c23 -2 61 -2 85 0 23 2 4 4 -43 4 -47 0 -66 -2 -42 -4z"/>
<path d="M4723 12563 c136 -2 358 -2 495 0 136 1 24 2 -248 2 -272 0 -384 -1
-247 -2z"/>
<path d="M6923 12563 c9 -2 25 -2 35 0 9 3 1 5 -18 5 -19 0 -27 -2 -17 -5z"/>
<path d="M7043 12563 c9 -2 23 -2 30 0 6 3 -1 5 -18 5 -16 0 -22 -2 -12 -5z"/>
<path d="M7218 12563 c56 -2 148 -2 205 0 56 1 10 3 -103 3 -113 0 -159 -2
-102 -3z"/>
<path d="M7698 12563 c12 -2 30 -2 40 0 9 3 -1 5 -23 4 -22 0 -30 -2 -17 -4z"/>
<path d="M8048 12563 c6 -2 18 -2 25 0 6 3 1 5 -13 5 -14 0 -19 -2 -12 -5z"/>
<path d="M8173 12563 c43 -2 110 -2 150 0 40 1 5 3 -78 3 -82 0 -115 -2 -72
-3z"/>
<path d="M8498 12563 c56 -2 148 -2 205 0 56 1 10 3 -103 3 -113 0 -159 -2
-102 -3z"/>
<path d="M6190 12550 l-64 -5 -18 -120 c-61 -405 -196 -923 -332 -1267 l-34
-88 88 0 87 0 46 123 c105 278 198 597 262 892 29 135 75 404 75 438 0 30 -17
34 -110 27z"/>
<path d="M5667 12403 c-32 -269 -90 -577 -148 -789 -12 -43 -24 -88 -26 -99
-16 -59 -56 -195 -92 -306 -23 -70 -41 -130 -41 -133 0 -4 17 -6 38 -5 l37 3
3 50 c2 28 9 57 16 66 15 16 39 117 31 129 -2 4 0 21 5 37 l9 29 -1 -30 c-2
-69 5 -75 13 -10 5 43 14 74 23 81 8 6 18 28 21 50 13 84 23 128 24 106 1 -14
5 -21 12 -16 7 4 9 21 5 43 -4 26 0 47 13 72 18 34 29 72 36 128 2 17 9 41 16
53 7 13 14 48 17 78 2 30 10 62 17 70 9 10 11 21 5 30 -5 8 -4 22 2 34 6 12
13 30 14 41 19 128 26 160 34 163 6 2 10 13 10 23 0 11 -3 18 -7 16 -15 -9 10
178 25 193 10 10 11 15 3 18 -6 2 -9 8 -5 13 3 5 -17 9 -43 9 l-49 0 -17 -147z
m-200 -1155 c-3 -8 -6 -5 -6 6 -1 11 2 17 5 13 3 -3 4 -12 1 -19z m-50 -140
c-3 -8 -6 -5 -6 6 -1 11 2 17 5 13 3 -3 4 -12 1 -19z"/>
<path d="M7037 12533 c75 -4 82 -6 86 -26 4 -18 5 -17 6 6 l1 27 -87 -2 -88
-2 82 -3z"/>
<path d="M7848 12533 c7 -3 16 -2 19 1 4 3 -2 6 -13 5 -11 0 -14 -3 -6 -6z"/>
<path d="M8012 12430 c0 -14 2 -19 5 -12 2 6 2 18 0 25 -3 6 -5 1 -5 -13z"/>
<path d="M7996 12364 c-4 -14 -5 -28 -3 -31 3 -2 8 8 11 23 4 14 5 28 3 31 -3
2 -8 -8 -11 -23z"/>
<path d="M7961 12244 c0 -11 3 -14 6 -6 3 7 2 16 -1 19 -3 4 -6 -2 -5 -13z"/>
<path d="M590 12151 c-8 -5 -12 -12 -10 -13 15 -12 60 -38 65 -38 3 0 5 7 5
15 0 17 16 20 25 5 3 -5 12 -7 19 -4 8 3 40 -7 73 -21 l58 -27 55 18 c30 10
60 21 66 26 6 4 13 5 16 2 3 -3 22 2 42 10 20 8 34 11 31 6 -9 -15 12 -21 40
-10 23 9 25 12 11 25 -29 30 -123 11 -209 -43 l-39 -23 -73 36 c-76 38 -149
53 -175 36z m50 -31 c0 -5 -2 -10 -4 -10 -3 0 -8 5 -11 10 -3 6 -1 10 4 10 6
0 11 -4 11 -10z"/>
<path d="M7942 12130 c0 -14 2 -19 5 -12 2 6 2 18 0 25 -3 6 -5 1 -5 -13z"/>
<path d="M7031 11968 c-75 -232 -213 -574 -318 -790 l-52 -108 72 0 73 0 62
193 c82 256 210 767 200 798 -2 5 -18 -36 -37 -93z"/>
<path d="M7916 12025 c-3 -9 -6 -22 -5 -28 0 -7 5 -1 10 12 5 13 8 26 5 28 -2
2 -6 -3 -10 -12z"/>
<path d="M727 11976 c-4 -10 -1 -13 8 -9 8 3 12 9 9 14 -7 12 -11 11 -17 -5z"/>
<path d="M930 11978 c1 -7 24 -33 53 -58 l52 -45 -50 58 c-52 61 -55 64 -55
45z"/>
<path d="M7890 11971 c0 -6 4 -13 10 -16 6 -3 7 1 4 9 -7 18 -14 21 -14 7z"/>
<path d="M633 11857 c-62 -82 -129 -213 -133 -258 -4 -43 0 -69 9 -69 10 0 30
59 51 150 16 70 30 101 43 93 5 -3 6 3 3 15 -4 13 -2 24 7 29 8 4 22 22 32 38
10 17 28 40 39 52 10 13 18 25 15 27 -2 2 -32 -32 -66 -77z"/>
<path d="M7851 11884 c0 -11 3 -14 6 -6 3 7 2 16 -1 19 -3 4 -6 -2 -5 -13z"/>
<path d="M7867 11853 c-4 -3 -7 -11 -7 -17 0 -6 5 -5 12 2 6 6 9 14 7 17 -3 3
-9 2 -12 -2z"/>
<path d="M1055 11823 c8 -18 18 -33 20 -33 10 0 4 16 -16 40 l-20 25 16 -32z"/>
<path d="M1093 11765 c10 -44 12 -50 20 -56 4 -3 9 -26 11 -50 4 -49 43 -147
46 -114 3 33 -1 68 -11 102 -12 39 -73 147 -66 118z"/>
<path d="M421 11704 c0 -11 3 -14 6 -6 3 7 2 16 -1 19 -3 4 -6 -2 -5 -13z"/>
<path d="M7741 11454 c0 -11 3 -14 6 -6 3 7 2 16 -1 19 -3 4 -6 -2 -5 -13z"/>
<path d="M7695 11399 c-4 -6 -5 -12 -2 -15 2 -3 7 2 10 11 7 17 1 20 -8 4z"/>
<path d="M7707 11373 c-4 -3 -7 -11 -7 -17 0 -6 5 -5 12 2 6 6 9 14 7 17 -3 3
-9 2 -12 -2z"/>
<path d="M7645 11210 c3 -5 8 -10 11 -10 2 0 4 5 4 10 0 6 -5 10 -11 10 -5 0
-7 -4 -4 -10z"/>
<path d="M7632 11170 c0 -14 2 -19 5 -12 2 6 2 18 0 25 -3 6 -5 1 -5 -13z"/>
<path d="M7613 11125 c-3 -9 -3 -18 -1 -21 3 -3 8 4 11 16 6 23 -1 27 -10 5z"/>
<path d="M7505 11080 l-100 -6 97 -2 c56 -1 99 2 103 8 3 6 5 9 3 8 -2 -1 -48
-5 -103 -8z"/>
<path d="M7368 11073 c7 -3 16 -2 19 1 4 3 -2 6 -13 5 -11 0 -14 -3 -6 -6z"/>
<path d="M7979 10899 c-1 -10 -1 -26 -1 -34 0 -8 0 -39 1 -69 l1 -55 248 0
c136 -1 253 3 260 7 9 6 12 31 10 88 l-3 79 -257 2 c-248 1 -258 1 -259 -18z
m501 -69 l0 -70 -242 2 -243 3 -3 54 c-2 29 -1 60 2 67 4 11 52 14 246 14
l240 0 0 -70z"/>
<path d="M8049 10868 c-12 -39 -5 -93 11 -83 6 3 10 16 10 28 1 21 2 21 21 -6
11 -15 25 -25 30 -21 12 7 12 84 -1 84 -5 0 -10 -12 -10 -27 l-1 -28 -22 28
c-20 23 -35 33 -38 25z"/>
<path d="M8160 10860 c0 -5 7 -10 15 -10 11 0 15 -11 15 -36 0 -21 4 -33 10
-29 6 3 10 19 10 36 0 16 5 29 10 29 6 0 10 5 10 10 0 6 -16 10 -35 10 -19 0
-35 -4 -35 -10z"/>
<path d="M8267 10863 c-13 -13 -7 -32 13 -38 11 -3 20 -11 20 -16 0 -6 -9 -7
-20 -4 -21 7 -28 -10 -7 -18 16 -6 57 10 57 23 0 6 -11 15 -25 22 -25 11 -25
31 0 21 8 -3 15 0 15 6 0 12 -42 15 -53 4z"/>
<path d="M8373 10863 c-19 -7 -16 -60 3 -71 19 -10 54 -4 54 9 0 5 -10 8 -22
6 -17 -1 -24 4 -26 21 -3 18 1 22 22 22 14 0 26 5 26 10 0 10 -35 12 -57 3z"/>
<path d="M1544 10535 c-2 -5 -12 -44 -22 -85 l-18 -75 -54 -5 c-50 -5 -54 -7
-64 -38 l-11 -32 -85 119 -85 120 -197 1 -196 0 -11 -32 c-5 -18 -49 -154 -96
-303 -48 -148 -107 -333 -132 -410 -24 -77 -54 -168 -65 -203 l-20 -62 24 -20
c26 -22 31 -20 -61 -23 -40 -2 -48 -6 -73 -42 -58 -82 -64 -103 -62 -200 2
-49 7 -209 11 -355 l8 -265 26 40 c47 72 179 297 179 305 0 5 4 10 8 12 4 2
24 29 44 61 l35 57 6 -112 5 -113 -59 -93 c-33 -51 -59 -95 -59 -97 0 -3 -21
-37 -47 -77 -47 -73 -51 -93 -37 -160 3 -16 9 -28 12 -28 4 0 27 32 52 70 25
38 48 70 51 70 4 0 12 14 19 30 7 17 15 30 19 30 3 0 12 -23 18 -50 12 -48 11
-52 -20 -103 -18 -28 -34 -54 -37 -57 -3 -3 -36 -51 -73 -107 -66 -99 -68
-104 -58 -139 6 -21 8 -42 5 -48 -3 -6 4 0 16 14 21 25 115 178 262 430 l79
135 -10 79 c-14 101 -14 106 3 106 15 0 24 -30 28 -92 1 -21 6 -38 10 -38 10
0 33 42 30 54 -2 5 1 12 6 15 5 3 1 67 -10 146 -10 77 -15 152 -12 168 3 15 2
27 -3 27 -4 0 -8 12 -9 28 l-1 27 202 -3 203 -3 6 28 c4 15 16 65 28 111 19
76 22 81 38 67 10 -9 36 -15 66 -15 l49 -1 80 -94 80 -95 198 0 c181 0 197 1
197 18 1 16 1 16 14 0 12 -16 34 -18 201 -18 145 0 186 -3 182 -12 -2 -7 -13
-55 -23 -106 -17 -86 -17 -96 -3 -120 9 -15 42 -72 73 -127 32 -55 72 -121 88
-148 l30 -47 1980 2 1980 3 99 165 c56 93 99 176 99 190 0 22 -6 52 -35 178
-5 20 -2 22 30 22 23 0 38 6 42 16 5 13 7 13 14 2 6 -10 54 -14 202 -16 l194
-4 117 166 c96 137 115 170 110 191 -6 25 -5 25 57 25 l64 1 85 119 c81 113
85 117 93 92 4 -15 38 -153 76 -307 l68 -280 205 0 c154 0 204 -3 201 -12 -3
-7 20 -23 54 -38 32 -15 60 -30 63 -34 3 -4 12 -10 20 -14 8 -4 43 -25 77 -46
73 -46 76 -44 87 51 7 55 6 57 -21 74 -92 57 -183 117 -183 123 0 3 43 48 95
99 l94 94 33 -23 c18 -13 35 -27 36 -31 2 -5 8 -6 13 -2 5 3 9 0 9 -5 0 -6 7
-11 15 -11 8 0 15 -4 15 -10 0 -5 5 -10 10 -10 6 0 37 -17 68 -38 31 -21 63
-41 70 -45 9 -7 12 28 12 160 l0 168 -85 57 c-78 53 -92 58 -170 69 l-85 12
-24 81 c-14 45 -34 114 -46 154 l-22 73 23 29 c13 16 50 60 81 97 l56 68 -36
123 -37 122 -412 0 c-382 0 -413 -1 -422 -17 -9 -17 -10 -17 -16 0 -7 16 -36
17 -416 17 -378 0 -409 -1 -418 -17 -9 -17 -10 -17 -16 0 -7 16 -36 17 -421
17 -285 0 -414 -3 -414 -11 0 -6 -5 -7 -12 -2 -7 4 -580 6 -1273 5 -972 -2
-1261 -6 -1267 -15 -6 -9 -8 -9 -8 1 0 9 -48 12 -208 12 l-208 0 -13 -106 -13
-106 -18 29 c-9 16 -30 64 -46 106 l-29 77 -202 0 c-187 0 -203 -1 -203 -17
-1 -17 -1 -17 -14 0 -12 15 -34 17 -209 17 -147 0 -197 -3 -200 -12 -4 -10 -8
-10 -14 -1 -11 15 -404 23 -409 8z m4270 -54 c5 -7 36 -287 36 -317 0 -9 -17
-14 -52 -16 l-53 -3 3 -32 4 -33 -57 0 c-35 0 -54 -4 -50 -10 3 -5 28 -10 56
-10 27 0 49 -4 49 -10 0 -5 25 -10 55 -10 49 0 55 -3 60 -22 10 -47 45 -451
39 -457 -3 -3 -43 -6 -89 -6 -72 0 -86 3 -99 20 -13 17 -15 18 -16 3 0 -31
-117 -36 -117 -5 0 7 -3 56 -7 111 l-7 99 26 -7 c33 -8 165 3 165 14 0 4 -40
7 -89 6 -49 0 -93 3 -97 7 -5 4 -10 39 -12 78 l-4 69 -64 0 -64 0 0 -45 0 -45
-103 0 c-67 0 -107 -4 -115 -12 -8 -8 -12 -45 -12 -102 0 -74 -4 -100 -22
-138 -47 -97 -54 -66 -63 262 -3 118 -8 237 -11 264 -6 58 2 66 63 66 31 0 48
-6 63 -22 15 -16 36 -24 80 -28 33 -3 60 -2 60 2 0 10 -7 12 -67 28 -50 13
-48 8 -66 177 -11 109 -11 123 3 126 28 7 570 5 574 -2z m856 -14 c14 -34 123
-688 116 -695 -4 -3 -66 0 -139 7 -73 7 -142 13 -154 14 -18 1 -24 9 -29 34
l-6 33 -64 0 c-35 0 -64 -1 -64 -3 0 -1 9 -65 20 -142 11 -77 20 -143 20 -146
0 -12 -69 -20 -105 -13 -20 3 -35 12 -35 20 0 8 -4 14 -10 14 -5 0 -10 -6 -10
-14 0 -18 -73 -31 -127 -21 l-39 6 -48 437 c-26 240 -49 449 -52 464 l-5 27
361 0 361 1 9 -23z m512 -15 c7 -26 18 -37 54 -52 42 -18 69 -53 56 -74 -2 -4
-40 -6 -83 -4 -44 3 -79 4 -79 2 0 -14 34 -162 40 -173 5 -10 35 -14 116 -15
l109 -1 11 -50 c29 -121 17 -135 -107 -135 -49 0 -89 -3 -89 -7 0 -5 18 -91
39 -193 22 -102 37 -187 34 -190 -2 -3 -74 -5 -158 -5 -84 0 -155 2 -158 5 -7
7 -167 880 -167 908 l0 22 187 -2 187 -3 8 -33z m360 -42 c9 -41 15 -77 12
-80 -8 -7 -180 -13 -207 -6 -15 3 -27 18 -36 41 -10 28 -23 41 -55 55 -39 16
-56 35 -56 61 0 6 65 8 162 7 l163 -3 17 -75z m679 0 c9 -44 12 -80 7 -80 -16
0 -7 -38 57 -260 36 -123 65 -226 65 -230 0 -10 -151 -9 -237 2 l-82 10 -15
51 c-8 29 -35 129 -61 222 -25 94 -51 184 -57 200 -14 38 -33 59 -25 28 3 -14
-1 -24 -10 -27 -21 -9 -156 -7 -169 2 -10 6 -44 125 -44 152 0 7 91 10 278 10
l277 0 16 -80z m180 0 c22 -66 24 -80 12 -85 -22 -8 -116 -6 -131 4 -7 4 -24
42 -37 84 l-23 77 76 0 77 0 26 -80z m-7251 61 c0 -5 -9 -38 -20 -74 l-20 -66
-141 4 c-77 1 -143 5 -145 8 -5 4 23 112 33 130 6 10 293 9 293 -2z m746 1
c-3 -4 -17 -60 -31 -123 -14 -62 -30 -131 -36 -151 l-10 -38 -59 0 c-36 0 -62
5 -67 13 -4 6 -8 43 -8 82 l0 70 -59 7 c-32 4 -60 9 -62 10 -1 2 5 33 14 71
l16 67 154 0 c84 0 151 -4 148 -8z m408 -64 c-8 -40 -14 -79 -14 -85 0 -9 -20
-13 -64 -13 -36 0 -67 -4 -70 -9 -6 -10 41 -21 90 -21 32 0 33 -1 27 -32 -4
-18 -36 -181 -72 -363 l-66 -330 -50 -3 c-27 -2 -65 0 -84 3 l-34 6 6 65 c8
80 -8 76 -25 -6 -9 -45 -16 -60 -32 -64 -26 -7 -91 -8 -98 -1 -4 4 181 855
198 907 5 16 20 18 154 18 l148 0 -14 -72z m431 30 c-15 -105 -10 -98 -78 -98
-40 0 -58 -3 -51 -10 9 -9 72 -16 173 -19 43 -1 43 -1 38 -33 -3 -18 -9 -59
-13 -90 l-6 -58 60 0 61 0 7 48 c3 26 9 65 13 87 l7 40 59 -1 c33 0 102 -4
153 -8 l92 -9 -5 -31 c-3 -17 -12 -92 -20 -166 -65 -577 -57 -526 -85 -535
-32 -10 -80 4 -79 23 0 9 8 67 18 129 21 140 13 171 -40 143 -13 -8 -57 -7
-144 2 -117 11 -124 13 -120 32 2 12 7 44 10 71 4 28 9 60 12 73 5 21 2 22
-60 22 l-64 0 -18 -108 -17 -109 -37 7 c-20 3 -39 7 -43 8 -5 1 -52 2 -105 2
-54 0 -104 4 -112 9 -12 8 -6 54 38 288 28 153 54 290 57 306 l6 27 150 0 150
0 -7 -42z m531 -10 c-17 -137 -13 -128 -61 -128 -24 0 -55 4 -70 10 -23 9
-143 32 -173 33 -13 0 -12 24 4 110 l6 27 150 0 150 0 -6 -52z m850 -20 c-4
-40 -12 -76 -19 -80 -6 -5 -102 -8 -212 -7 l-200 1 -7 -53 c-3 -30 -6 -73 -7
-96 l-1 -43 105 0 105 0 0 -72 c0 -85 13 -82 20 5 l5 62 98 3 98 3 -3 -88 -3
-88 -221 -3 -221 -2 -7 -68 c-3 -37 -6 -82 -6 -99 l0 -33 174 0 c96 0 177 -4
181 -9 11 -20 -27 -41 -73 -41 -66 0 -75 -9 -80 -79 -4 -59 -5 -61 -36 -67
-18 -3 -99 -4 -180 -2 -117 2 -149 6 -156 18 -6 8 -10 50 -9 93 1 43 -2 82 -7
87 -5 5 -36 10 -69 12 l-60 3 2 50 c1 28 9 125 19 218 l18 167 52 0 c28 0 66
3 83 6 57 12 32 24 -49 24 -93 0 -85 -15 -68 143 l11 107 365 0 365 0 -7 -72z
m854 -8 l0 -79 -207 0 -208 1 -5 -75 c-3 -42 -8 -79 -12 -83 -4 -4 -57 1 -118
11 -128 21 -158 14 -43 -9 43 -9 96 -22 118 -29 l40 -12 3 -186 2 -186 77 -7
c42 -3 143 -6 224 -6 l148 0 3 -90 3 -89 -37 -6 c-21 -4 -51 -4 -67 0 -24 5
-31 13 -40 50 -6 24 -11 56 -11 70 0 16 -4 24 -11 20 -6 -4 -9 -32 -7 -65 1
-32 -1 -62 -6 -67 -4 -4 -70 -8 -147 -8 -132 0 -139 1 -154 23 -22 31 -115 32
-146 1 -24 -24 -74 -34 -123 -25 l-36 7 6 192 c7 239 6 237 44 237 17 0 30 5
30 10 0 6 -13 10 -30 10 l-30 0 0 93 c0 50 3 156 7 235 l6 142 364 0 363 0 0
-80z m231 68 c0 -7 6 -64 13 -126 7 -66 9 -115 3 -119 -4 -3 -33 -2 -63 2
l-54 6 0 57 c0 31 -3 87 -7 125 l-6 67 57 0 c38 0 56 -4 57 -12z m-3995 -161
c2 -2 -7 -41 -21 -87 -14 -46 -25 -87 -25 -91 0 -4 53 -5 118 -2 179 8 519 9
528 1 5 -6 -100 -487 -121 -555 -2 -7 -19 -15 -38 -18 -41 -8 -273 -3 -282 6
-3 4 15 88 40 187 25 100 45 186 45 192 0 6 -25 10 -60 10 l-59 0 -11 -42 c-6
-24 -18 -67 -26 -95 l-15 -53 -104 0 -104 0 25 88 c13 48 24 91 24 95 0 4 -27
7 -61 5 l-61 -3 -24 -76 c-27 -87 -30 -89 -131 -89 -67 0 -76 7 -60 53 14 42
3 57 -42 57 -74 0 -74 -8 -4 208 35 108 65 202 68 209 3 9 52 11 201 8 108 -2
198 -6 200 -8z m451 -9 c10 -8 12 -24 7 -57 -12 -82 -10 -81 -139 -81 -85 0
-115 3 -115 13 0 17 26 113 34 126 9 14 196 13 213 -1z m5953 -180 c20 -48 41
-151 32 -160 -5 -5 -51 -7 -102 -6 -91 3 -93 4 -96 28 -1 14 -7 52 -12 85 -6
33 -8 63 -5 68 2 4 42 7 89 7 78 0 85 -2 94 -22z m-2600 -243 l0 -65 -200 0
-200 0 0 65 0 65 200 0 200 0 0 -65z m-4259 -12 c8 -8 4 -32 -16 -92 -14 -44
-25 -91 -23 -103 3 -22 8 -23 97 -26 l93 -3 -6 -32 c-4 -17 -11 -36 -17 -42
-13 -13 -279 -19 -299 -6 -12 8 -7 33 35 165 l50 155 37 -3 c21 -1 43 -7 49
-13z m1872 -52 c6 -6 3 -54 -9 -129 -18 -120 -18 -120 -47 -126 -38 -8 -96 -7
-124 0 -20 6 -22 11 -17 45 8 50 -2 50 -22 0 -12 -32 -22 -40 -49 -45 -52 -10
-88 2 -82 28 3 11 15 73 27 136 l21 115 146 -7 c81 -4 151 -12 156 -17z m2820
-109 c5 -74 6 -137 2 -140 -19 -19 -265 -12 -265 7 0 5 12 25 26 47 25 36 26
43 19 119 -6 78 -6 82 17 93 13 6 60 10 108 9 l85 -2 8 -133z m-2377 115 c2
-7 0 -44 -6 -82 -6 -39 -13 -93 -17 -122 -5 -47 -8 -51 -36 -57 -42 -9 -140
-7 -155 2 -9 7 -9 33 4 131 20 142 17 139 132 140 50 1 74 -3 78 -12z m5337
-139 l35 -117 -44 -7 c-52 -8 -270 -2 -279 8 -6 6 -74 236 -71 239 0 1 71 4
156 8 99 4 157 2 161 -4 4 -5 23 -63 42 -127z m-1798 82 c50 -6 110 -13 135
-15 24 -3 48 -9 52 -13 10 -10 39 -164 32 -171 -9 -9 -229 -14 -278 -7 l-43 7
-13 92 c-6 51 -14 98 -16 105 -4 15 13 15 131 2z m-5689 -9 c21 -1 21 -3 9
-43 l-12 -43 -64 -3 c-35 -2 -74 0 -86 3 -31 7 -30 48 1 73 24 18 49 20 152
13z m2516 -25 c4 -6 8 -45 8 -87 0 -61 -3 -78 -16 -83 -20 -8 -72 -7 -102 1
-23 6 -23 7 -17 92 4 47 9 89 11 92 6 10 108 -3 116 -15z m649 -71 c-1 -49 -4
-92 -7 -94 -7 -8 -143 -13 -176 -7 -33 6 -33 7 -29 53 4 64 14 73 78 73 52 0
55 1 68 34 11 27 19 33 42 32 l27 -1 -3 -90z m-1473 -311 c6 -7 12 -17 12 -23
0 -16 20 -13 26 4 4 8 12 15 20 15 8 0 14 5 14 10 0 6 21 10 46 10 38 0 45 -3
40 -16 -3 -9 -6 -20 -6 -25 0 -5 -7 -9 -15 -9 -8 0 -15 -4 -15 -10 0 -5 -6
-10 -14 -10 -7 0 -16 -10 -20 -22 -4 -17 2 -29 19 -44 14 -12 25 -31 25 -43 0
-18 -6 -21 -46 -21 -27 0 -43 4 -39 10 3 6 -1 10 -9 10 -9 0 -16 7 -16 15 0 8
-7 15 -15 15 -8 0 -15 -7 -15 -15 0 -8 -7 -15 -15 -15 -8 0 -15 -4 -15 -10 0
-5 -20 -10 -45 -10 -41 0 -45 2 -45 25 0 18 5 25 20 25 11 0 20 5 20 10 0 6 7
10 15 10 22 0 30 46 12 65 -9 8 -20 15 -26 15 -6 0 -11 9 -11 20 0 36 66 45
98 14z m412 4 c0 -10 5 -18 10 -18 6 0 10 -9 10 -20 0 -11 -6 -20 -14 -20 -7
0 -16 -10 -20 -22 -9 -34 -8 -38 9 -38 8 0 15 -4 15 -9 0 -21 -13 -41 -26 -41
-8 0 -14 -4 -14 -10 0 -6 -43 -10 -109 -10 l-109 0 -3 44 c-3 26 1 48 9 55 6
7 12 31 12 55 0 23 2 45 4 47 2 2 54 4 115 4 99 0 111 -2 111 -17z m436 -13
l21 -22 21 22 c23 23 54 33 85 27 22 -4 24 -52 2 -52 -8 0 -15 -4 -15 -10 0
-5 -7 -10 -15 -10 -10 0 -15 -10 -15 -30 0 -16 5 -30 11 -30 17 0 39 -27 39
-49 0 -18 -6 -21 -46 -21 -27 0 -43 4 -39 10 3 6 -1 10 -9 10 -9 0 -16 7 -16
15 0 8 -7 15 -15 15 -8 0 -15 -7 -15 -15 0 -8 -7 -15 -15 -15 -8 0 -15 -4 -15
-10 0 -5 -20 -10 -45 -10 -36 0 -45 3 -45 18 0 21 39 58 58 54 17 -4 16 46 -2
64 -8 8 -19 14 -25 14 -6 0 -11 11 -11 24 0 41 67 41 106 1z m2400 26 c26 -1
33 -6 36 -26 4 -19 1 -25 -12 -25 -15 0 -15 -6 -6 -50 6 -29 15 -50 23 -50 7
0 13 -11 13 -25 0 -24 -2 -25 -70 -25 -68 0 -70 1 -70 25 0 14 5 25 10 25 11
0 14 59 4 84 -3 9 -12 16 -20 16 -17 0 -19 47 -3 52 6 2 23 3 37 2 15 -1 41
-3 58 -3z m284 -12 c0 -5 6 -9 14 -9 9 0 16 -17 20 -47 4 -27 10 -63 13 -80 4
-26 2 -33 -11 -33 -10 0 -14 -4 -11 -10 4 -6 -30 -10 -94 -10 -61 0 -101 4
-101 10 0 6 -6 10 -14 10 -14 0 -18 16 -32 113 -4 31 -3 47 4 45 5 -2 10 1 10
7 0 5 7 12 16 15 24 8 186 -1 186 -11z m-2840 1 c0 -5 7 -10 16 -10 13 0 15
-6 10 -27 -4 -16 -9 -48 -12 -73 -9 -67 -30 -80 -137 -80 -73 0 -91 3 -108 19
-19 18 -20 24 -10 70 6 28 10 55 10 59 -3 20 3 32 16 32 8 0 15 5 15 10 0 6
40 10 100 10 60 0 100 -4 100 -10z m690 0 c0 -5 7 -10 15 -10 9 0 15 -9 15
-25 0 -16 -6 -25 -15 -25 -10 0 -15 -10 -15 -30 0 -21 5 -30 16 -30 11 0 14
-5 10 -16 -3 -9 -6 -20 -6 -25 0 -5 -7 -9 -15 -9 -8 0 -15 -4 -15 -10 0 -6
-45 -10 -115 -10 -63 0 -115 4 -115 9 0 36 12 41 96 41 49 0 84 4 84 10 0 6
-30 10 -70 10 -68 0 -70 1 -70 25 0 23 3 24 72 27 46 2 73 7 76 16 3 9 -19 12
-87 12 -96 0 -96 0 -82 48 3 8 221 0 221 -8z m310 -15 c0 -25 -1 -25 -85 -25
-69 0 -85 -3 -85 -15 0 -12 14 -15 70 -15 40 0 70 -4 70 -10 0 -5 7 -10 15
-10 23 0 19 -62 -5 -83 -16 -13 -40 -17 -115 -17 -57 0 -95 4 -95 10 0 6 -7
10 -15 10 -12 0 -15 15 -15 72 0 102 6 107 148 107 l112 1 0 -25z m250 15 c0
-5 7 -10 15 -10 14 0 17 -17 17 -115 0 -41 -1 -45 -17 -45 -8 0 -15 -4 -15
-10 0 -6 -38 -10 -95 -10 -121 0 -133 9 -136 98 -3 91 9 101 134 101 58 1 97
-3 97 -9z m450 -15 c0 -25 -1 -25 -85 -25 -69 0 -85 -3 -85 -15 0 -12 15 -15
78 -15 47 0 83 5 90 12 9 9 11 4 9 -22 l-2 -35 -88 -3 c-115 -4 -113 -22 3
-22 89 0 90 0 90 -25 l0 -25 -129 0 -130 0 -3 96 c-2 53 -1 98 1 100 2 2 60 4
128 4 l123 0 0 -25z m250 15 c0 -5 6 -10 14 -10 9 0 15 -18 20 -52 10 -84 8
-108 -9 -108 -8 0 -15 -5 -15 -10 0 -7 -40 -10 -112 -8 l-113 3 -5 98 -5 97
113 0 c68 0 112 -4 112 -10z m200 -15 c0 -16 -6 -25 -15 -25 -17 0 -18 -8 -9
-62 4 -23 12 -38 20 -38 8 0 14 -11 14 -25 0 -24 -2 -25 -69 -25 -65 0 -69 1
-73 25 -4 17 -1 25 8 25 10 0 14 14 14 50 0 38 -4 50 -15 50 -8 0 -15 4 -15 9
0 5 -3 16 -6 25 -5 14 5 16 70 16 74 0 76 -1 76 -25z m278 -28 c3 -48 3 -48
-25 -45 -20 2 -29 9 -31 26 -2 12 -10 22 -19 22 -12 0 -14 -7 -9 -31 3 -17 6
-39 6 -49 0 -10 9 -20 20 -23 12 -3 20 -14 20 -26 0 -19 -6 -21 -75 -21 -73 0
-75 1 -75 25 0 16 6 25 16 25 13 0 15 7 10 31 -3 17 -6 40 -6 50 0 11 -7 19
-15 19 -9 0 -15 -9 -15 -25 0 -20 -5 -25 -24 -25 -19 0 -24 6 -30 38 -11 66
-18 63 122 60 l127 -3 3 -48z m552 43 c0 -5 6 -10 13 -10 7 0 23 -13 37 -30
34 -41 44 -38 36 10 l-6 40 45 0 c33 0 45 -4 45 -15 0 -8 8 -15 17 -15 16 0
16 -1 0 -13 -14 -10 -16 -18 -8 -42 5 -17 12 -49 15 -72 l6 -43 -41 0 c-32 0
-47 6 -65 25 -13 14 -28 25 -34 25 -5 0 -10 5 -10 10 0 6 -7 10 -16 10 -13 0
-15 -7 -11 -36 l6 -35 -42 3 -42 3 -11 65 c-7 36 -12 80 -13 98 -1 31 0 32 39
32 22 0 40 -4 40 -10z m315 -340 c-23 -10 -838 -13 -872 -4 -13 4 -23 9 -23
13 0 3 206 5 457 3 264 -2 449 -7 438 -12z m-4090 0 c-3 -5 -31 -10 -61 -10
-30 0 -54 5 -54 10 0 6 27 10 61 10 37 0 58 -4 54 -10z m200 0 c-3 -5 -35 -10
-71 -10 -36 0 -64 4 -64 10 0 6 30 10 71 10 44 0 68 -4 64 -10z m1175 0 c-34
-11 -1040 -11 -1065 0 -11 5 217 8 535 8 305 0 544 -4 530 -8z m610 0 c-20
-13 -447 -13 -455 0 -4 7 76 10 232 10 157 0 233 -4 223 -10z m480 0 c-8 -5
-89 -10 -180 -10 -91 0 -172 5 -180 10 -10 6 50 10 180 10 130 0 190 -4 180
-10z m610 0 c-20 -13 -507 -13 -515 0 -4 7 86 10 262 10 177 0 263 -4 253 -10z"/>
<path d="M5409 10323 c-3 -21 3 -160 7 -175 4 -15 17 -18 66 -18 l61 0 -8 92
c-4 51 -9 96 -12 100 -6 10 -113 10 -114 1z"/>
<path d="M6133 10280 l10 -60 63 0 c57 0 64 -2 64 -20 0 -16 -7 -20 -31 -20
-27 0 -30 -3 -26 -22 3 -13 9 -53 12 -90 4 -38 11 -68 16 -69 5 0 24 -1 42 -1
30 -1 32 1 29 30 l-2 32 54 0 c52 0 55 -1 61 -29 5 -25 11 -30 46 -33 46 -4
46 -1 28 113 l-12 69 -33 0 c-27 0 -34 4 -34 20 0 18 7 20 66 20 l66 0 -7 43
c-12 80 -9 77 -90 77 l-74 0 6 -49 c5 -47 4 -50 -19 -56 -14 -4 -39 -5 -54 -3
-24 2 -29 8 -32 33 -7 76 -5 75 -85 75 l-74 0 10 -60z"/>
<path d="M2870 9294 c0 -12 9 -14 42 -12 59 4 63 28 4 28 -35 0 -46 -4 -46
-16z"/>
<path d="M2860 9220 c0 -5 18 -10 39 -10 22 0 43 5 46 10 4 6 -12 10 -39 10
-25 0 -46 -4 -46 -10z"/>
<path d="M6000 9308 c0 -2 6 -23 14 -48 12 -42 16 -45 50 -48 34 -3 36 -1 36
25 0 62 -9 73 -56 73 -24 0 -44 -1 -44 -2z"/>
<path d="M3150 9298 c0 -7 -3 -30 -6 -50 l-6 -37 40 1 c35 0 41 4 46 27 3 14
8 36 12 49 6 21 3 22 -40 22 -30 0 -46 -4 -46 -12z"/>
<path d="M4130 9220 c0 -5 18 -10 40 -10 22 0 40 5 40 10 0 6 -18 10 -40 10
-22 0 -40 -4 -40 -10z"/>
<path d="M4410 9260 l0 -50 39 0 c37 0 39 2 45 38 10 61 9 62 -39 62 l-45 0 0
-50z"/>
<path d="M5110 9298 c0 -7 3 -30 6 -50 6 -36 8 -38 45 -38 l39 0 0 50 0 50
-45 0 c-29 0 -45 -4 -45 -12z"/>
<path d="M238 9231 c-39 -45 -46 -97 -18 -125 17 -17 28 10 29 71 0 29 3 58 6
63 10 17 0 11 -17 -9z"/>
<path d="M845 9180 c3 -5 8 -10 11 -10 2 0 4 5 4 10 0 6 -5 10 -11 10 -5 0 -7
-4 -4 -10z"/>
<path d="M8308 8887 c-10 -23 -18 -47 -18 -53 0 -6 -9 -33 -19 -60 -11 -27
-38 -110 -61 -184 -24 -74 -45 -142 -48 -150 -3 -8 -4 -18 -4 -22 1 -5 -6 -8
-15 -9 -11 0 -13 -3 -5 -6 6 -2 12 -9 12 -14 0 -6 -4 -7 -10 -4 -5 3 -10 2
-10 -3 0 -6 33 -39 73 -73 68 -60 97 -87 207 -188 24 -22 51 -41 59 -41 31 0
-10 -25 -67 -41 -52 -14 -55 -17 -35 -27 11 -6 87 -77 168 -157 81 -80 148
-145 150 -145 2 0 13 53 25 118 12 64 24 121 27 125 3 4 11 3 19 -4 12 -10 14
4 14 95 0 58 -1 106 -2 106 -2 0 -39 -11 -82 -25 -44 -14 -81 -23 -83 -22 -1
2 10 38 25 80 l27 77 -30 26 c-16 14 -41 34 -53 45 -29 25 -32 22 -53 -44 -9
-28 -20 -52 -25 -54 -5 -1 -28 14 -51 35 l-43 37 15 40 c19 55 19 60 -12 76
-37 20 -86 67 -79 77 3 5 12 44 21 88 8 43 20 90 26 103 9 22 11 23 27 7 40
-40 285 -216 293 -210 5 3 9 12 9 20 0 9 10 50 22 91 22 75 22 76 2 90 -35 25
-256 163 -261 163 -2 0 -30 18 -60 40 -31 22 -61 40 -67 40 -6 0 -19 -19 -28
-43z m439 -804 c-3 -10 -5 -2 -5 17 0 19 2 27 5 18 2 -10 2 -26 0 -35z"/>
<path d="M217 8494 c-4 -4 -7 -14 -7 -23 0 -11 3 -12 11 -4 6 6 10 16 7 23 -2
6 -7 8 -11 4z"/>
<path d="M2733 7921 c-60 -29 -64 -33 -103 -110 -22 -44 -40 -86 -39 -93 0 -7
15 -25 34 -41 l33 -28 22 43 c11 24 29 53 38 66 l18 23 -1 -28 c0 -17 5 -27
13 -25 6 1 12 -2 12 -7 0 -4 40 -50 88 -100 l88 -93 47 96 c26 53 48 100 49
105 4 14 -202 221 -220 221 -10 0 -45 -13 -79 -29z m71 -27 c3 -8 2 -12 -4 -9
-6 3 -10 10 -10 16 0 14 7 11 14 -7z"/>
<path d="M406 7911 c-69 -5 -80 -9 -82 -26 -7 -37 -6 -266 0 -272 3 -4 6 -33
6 -65 0 -52 20 -128 34 -128 3 0 26 38 53 85 26 47 52 84 57 82 10 -3 25 -47
48 -146 9 -37 7 -49 -8 -75 -10 -17 -28 -51 -39 -75 l-22 -44 45 -86 c25 -47
46 -88 48 -90 2 -2 8 7 13 20 5 13 43 101 84 195 l76 171 -20 78 c-10 42 -19
93 -19 111 0 19 -4 34 -10 34 -5 0 -9 8 -8 18 4 33 -13 102 -24 95 -7 -4 -8
-1 -2 8 5 8 9 38 10 67 l0 52 -80 -2 c-45 -1 -117 -4 -160 -7z"/>
<path d="M226 7735 c-18 -28 -27 -96 -16 -116 5 -6 15 -9 23 -6 10 4 15 25 16
76 1 39 0 71 -2 71 -3 0 -12 -11 -21 -25z"/>
<path d="M3160 7703 c-19 -8 -37 -17 -39 -19 -5 -5 29 -44 39 -44 7 0 43 71
38 75 -2 1 -19 -4 -38 -12z"/>
<path d="M7917 7639 c7 -7 15 -10 18 -7 3 3 -2 9 -12 12 -14 6 -15 5 -6 -5z"/>
<path d="M7955 7630 c3 -5 10 -10 16 -10 5 0 9 5 9 10 0 6 -7 10 -16 10 -8 0
-12 -4 -9 -10z"/>
<path d="M2425 7576 c-6 -6 -16 -27 -23 -46 l-11 -35 5 35 5 35 -20 -30 -20
-29 -9 24 -9 25 -22 -35 c-12 -19 -64 -120 -117 -223 l-96 -188 51 -54 c28
-30 51 -62 51 -72 -1 -10 -12 -38 -25 -63 l-24 -45 51 -52 51 -51 59 25 59 26
28 -27 29 -27 75 38 75 38 -48 53 c-27 30 -53 51 -58 48 -5 -3 -17 -26 -27
-51 -11 -25 -22 -44 -26 -43 -15 6 -109 99 -109 109 0 5 12 33 26 61 l26 52
-57 54 -57 55 83 171 c45 94 82 179 81 189 0 9 3 15 8 12 12 -7 20 8 12 22 -5
8 -10 8 -17 -1z"/>
<path d="M8011 7567 c-13 -21 -12 -21 5 -5 10 10 16 20 13 22 -3 3 -11 -5 -18
-17z"/>
<path d="M223 7520 c0 -25 2 -35 4 -22 2 12 2 32 0 45 -2 12 -4 2 -4 -23z"/>
<path d="M8015 7540 c-17 -7 -17 -9 -2 -9 9 -1 20 -1 24 -2 4 0 9 4 11 10 4
13 -5 13 -33 1z"/>
<path d="M7810 7515 c0 -8 4 -15 8 -15 5 0 9 7 9 15 0 8 -4 15 -9 15 -4 0 -8
-7 -8 -15z"/>
<path d="M8046 7504 c-5 -20 -2 -32 16 -51 20 -22 21 -26 9 -56 -7 -18 -15
-42 -18 -54 -3 -13 -9 -23 -14 -23 -5 0 -9 -6 -9 -14 0 -7 -7 -27 -15 -42 -8
-16 -15 -36 -15 -45 0 -9 -6 -22 -14 -28 -8 -7 -22 -34 -32 -62 -10 -27 -22
-49 -26 -49 -4 0 -8 -9 -8 -20 0 -11 -4 -28 -9 -38 -9 -18 -33 -71 -74 -162
-14 -30 -37 -88 -52 -127 -24 -63 -30 -71 -44 -60 -12 9 -11 4 4 -18 10 -16
24 -36 32 -43 7 -7 19 -22 27 -34 8 -11 18 -18 23 -15 5 3 26 40 47 82 35 71
58 96 73 82 7 -8 -34 -111 -64 -159 -28 -46 -29 -60 -2 -84 11 -10 37 -41 57
-68 57 -77 102 -124 102 -105 0 9 7 22 14 29 8 6 24 27 35 46 l20 33 -35 53
c-60 89 -61 76 12 198 l65 111 65 -66 c61 -63 64 -65 81 -47 10 10 27 35 37
55 11 20 23 37 28 37 5 0 21 -14 35 -31 29 -34 38 -30 52 26 5 22 15 60 21 84
13 52 8 69 -28 107 -15 16 -40 45 -57 65 -16 20 -57 66 -89 103 -32 37 -56 69
-53 73 10 9 73 -25 90 -49 9 -13 27 -36 42 -53 15 -16 47 -54 72 -83 47 -54
58 -56 66 -12 3 14 14 54 26 90 11 36 29 98 40 138 l20 73 -54 25 c-30 13 -80
35 -110 48 -30 14 -55 30 -55 36 0 6 -6 10 -12 9 -31 -4 -49 2 -42 13 4 7 3 8
-4 4 -6 -4 -19 -2 -29 4 -10 5 -63 28 -118 50 -55 23 -105 43 -111 46 -6 3
-15 -7 -18 -22z"/>
<path d="M8021 7494 c0 -11 3 -14 6 -6 3 7 2 16 -1 19 -3 4 -6 -2 -5 -13z"/>
<path d="M8325 7450 c3 -5 8 -10 11 -10 2 0 4 5 4 10 0 6 -5 10 -11 10 -5 0
-7 -4 -4 -10z"/>
<path d="M8345 7430 c-3 -5 -1 -10 4 -10 6 0 11 5 11 10 0 6 -2 10 -4 10 -3 0
-8 -4 -11 -10z"/>
<path d="M4835 7220 l-620 -208 -6 -114 c-3 -62 -6 -250 -7 -418 -1 -168 -5
-381 -8 -475 l-6 -170 101 -75 c84 -62 102 -80 107 -107 4 -20 2 -39 -5 -47
-9 -11 -10 -86 -5 -293 4 -153 8 -594 8 -980 l1 -702 -177 -70 c-97 -39 -181
-71 -187 -71 -5 0 -13 9 -16 20 -8 27 -23 25 -29 -2 -3 -13 -9 -167 -13 -343
l-8 -319 -165 -28 c-91 -15 -168 -27 -172 -28 -5 0 -8 11 -8 25 0 14 -4 25 -9
25 -4 0 -6 -12 -3 -26 3 -18 1 -25 -6 -20 -6 3 -11 14 -11 24 0 9 -4 189 -7
400 l-7 382 -33 0 -34 0 0 90 c0 58 -4 90 -11 90 -7 0 -10 -153 -8 -522 l3
-523 -60 -8 c-32 -4 -99 -15 -149 -24 -131 -22 -257 -42 -279 -42 -18 -1 -19
14 -12 585 l8 587 -69 -7 c-37 -4 -78 -9 -89 -12 -21 -5 -22 -1 -28 88 -4 51
-9 114 -12 141 l-6 47 -46 0 c-26 0 -81 5 -122 10 -74 10 -185 -3 -175 -20 3
-4 57 -11 120 -15 l115 -7 0 -80 c0 -50 -4 -77 -10 -73 -5 3 -10 -2 -11 -12 0
-15 -2 -15 -7 -3 -4 9 -23 16 -47 18 -22 1 -58 6 -80 9 -61 11 -99 9 -112 -4
-18 -16 -18 -162 -1 -167 7 -2 74 -15 148 -29 121 -23 141 -24 195 -13 50 10
61 16 63 34 4 25 19 27 75 11 36 -10 37 -11 37 -57 0 -26 5 -247 11 -491 10
-376 10 -444 -2 -452 -8 -5 -57 -22 -109 -39 -52 -17 -152 -49 -222 -72 -70
-23 -129 -40 -131 -38 -3 3 -8 108 -12 235 -4 126 -11 233 -16 236 -5 3 -38
11 -74 18 l-64 13 -3 101 -3 101 -260 53 c-143 29 -270 53 -282 53 -22 0 -23
-3 -23 -86 l0 -86 -26 6 c-15 4 -39 10 -55 13 -29 5 -29 6 -29 84 0 60 -4 81
-17 95 -13 13 -18 39 -21 113 -2 53 -9 102 -15 109 -6 8 -40 34 -75 59 -38 28
-59 49 -52 53 6 4 10 11 9 16 -2 5 1 29 6 54 5 25 8 51 6 58 -1 9 34 12 150
12 l151 0 -6 -26 c-6 -23 -5 -25 16 -19 28 9 24 4 31 43 5 26 3 32 -11 33 -10
0 -12 3 -4 6 8 3 12 37 12 120 0 105 2 115 19 120 12 3 23 17 27 36 6 31 5 32
-43 64 -18 12 -170 121 -207 148 -19 14 -19 37 0 170 5 37 2 42 -31 68 -20 16
-39 26 -42 23 -3 -3 -10 -29 -14 -57 -5 -28 -10 -54 -13 -56 -5 -6 -69 37 -74
49 -2 4 -10 8 -18 8 -21 0 -17 27 5 33 15 3 21 17 26 53 4 27 13 71 21 97 7
26 11 54 7 62 -10 28 16 15 43 -20 32 -43 44 -44 44 -6 0 16 3 37 6 45 6 15 7
15 19 0 20 -28 31 -9 50 86 11 49 21 90 24 90 3 0 15 -14 26 -30 11 -16 23
-30 26 -30 3 0 18 55 33 123 15 67 33 135 38 150 10 24 7 32 -17 57 l-29 30
-11 -33 c-6 -17 -17 -58 -24 -89 -8 -32 -16 -58 -19 -58 -13 0 -42 46 -42 66
0 13 11 74 25 136 14 62 30 138 37 168 6 30 17 80 24 111 8 31 14 70 14 86 0
16 3 33 7 37 8 8 10 14 23 90 6 33 13 63 17 69 9 16 53 -134 44 -152 -5 -9
-11 -39 -14 -68 -5 -43 -2 -60 19 -100 25 -51 30 -82 15 -111 -5 -9 -14 -43
-20 -75 -8 -45 -8 -64 2 -83 11 -22 16 -8 42 138 34 188 35 231 12 312 -10 32
-15 66 -12 75 3 9 -4 43 -16 75 -11 32 -18 61 -14 64 3 3 5 -1 5 -8 0 -7 2
-11 5 -8 3 2 -2 19 -11 37 -11 21 -15 51 -12 89 l3 57 -191 3 -191 2 -21 -72
c-22 -76 -91 -336 -100 -376 -5 -23 -6 -23 -43 14 -28 27 -42 35 -50 27 -8 -8
1 -22 29 -51 22 -22 37 -44 33 -48 -3 -4 2 -4 12 -1 10 4 16 3 12 -2 -3 -5 4
-16 15 -24 11 -7 17 -17 12 -22 -4 -5 -2 -5 4 -2 6 4 23 -8 38 -25 29 -35 29
-49 0 -136 -8 -23 -14 -49 -14 -57 0 -25 -24 -17 -59 19 -33 34 -35 47 -15 99
3 9 -7 27 -23 43 -33 32 -330 302 -409 371 -51 44 -170 151 -206 186 -22 20
-43 37 -47 38 -3 1 -37 2 -75 3 l-68 1 67 -63 c38 -35 74 -61 81 -58 7 3 11 0
9 -7 -1 -7 25 -37 59 -67 112 -100 229 -205 240 -215 6 -6 54 -50 107 -98 l97
-86 -23 -86 -23 -85 65 -46 c47 -34 62 -51 58 -63 -4 -9 -22 -77 -41 -151 -20
-74 -44 -164 -54 -200 -19 -65 -92 -356 -105 -417 -8 -38 5 -42 52 -18 15 8
49 23 74 34 40 16 47 24 55 57 4 22 8 45 9 53 0 15 48 40 78 41 17 0 18 -6 12
-50 l-7 -50 32 11 c17 6 33 9 36 7 2 -3 -1 -29 -7 -59 -6 -30 -15 -74 -20 -99
-8 -36 -6 -47 6 -56 17 -13 21 -29 4 -18 -7 4 -10 -2 -8 -17 2 -21 -5 -67 -27
-167 -3 -17 -1 -22 8 -17 7 4 5 0 -5 -8 -10 -8 -48 -18 -84 -22 -71 -7 -211
-42 -307 -75 -33 -11 -60 -20 -62 -20 -1 0 2 16 6 34 4 19 6 37 4 39 -2 2 -28
0 -59 -3 -30 -3 -55 -4 -55 0 0 7 50 231 57 254 3 12 1 16 -6 12 -6 -4 -15 3
-21 16 -5 13 -14 30 -20 38 -5 8 -18 33 -28 55 -11 22 -56 112 -100 200 -76
149 -96 205 -72 205 5 0 13 -7 18 -16 8 -14 12 -8 24 27 l14 43 75 12 c41 6
100 14 131 18 32 4 58 12 58 17 0 5 -6 9 -14 9 -8 0 -72 16 -142 36 -71 20
-133 36 -139 37 -25 1 -277 -85 -269 -93 5 -4 44 -13 87 -18 43 -6 81 -12 83
-15 14 -14 -12 -37 -42 -38 -19 -1 -38 -3 -44 -4 -5 -1 -27 -3 -49 -4 l-39 -1
-1 -91 c-1 -51 -3 -95 -6 -99 -5 -8 92 -137 162 -215 l51 -58 12 43 12 44 18
-24 c11 -14 38 -59 61 -100 24 -41 47 -78 52 -81 10 -7 7 -31 -14 -110 l-12
-46 41 -41 c34 -34 41 -47 36 -69 -3 -16 -6 -35 -8 -43 -1 -8 -19 -86 -40
-172 l-39 -157 -33 37 c-18 20 -34 35 -37 32 -2 -3 -21 -70 -41 -150 -20 -80
-39 -151 -42 -159 -3 -11 -14 -5 -39 19 -40 38 -34 46 -70 -99 -15 -58 -30
-112 -34 -120 -5 -9 -11 -37 -14 -64 -3 -26 -9 -52 -13 -59 -4 -6 -3 -8 3 -5
16 10 291 47 346 47 l48 0 -3 -127 c-2 -71 -6 -130 -9 -133 -3 -3 -11 -56 -17
-119 -6 -63 -13 -116 -16 -118 -2 -2 -73 3 -157 12 -182 18 -202 18 -194 5 3
-6 -1 -10 -9 -10 -14 0 -16 -21 -16 -151 l0 -150 36 -15 c35 -15 35 -15 28
-62 -3 -26 -7 -51 -8 -57 -3 -22 122 -37 319 -38 199 -2 200 -2 280 28 77 29
78 30 42 33 -21 2 -35 7 -32 13 3 5 -1 6 -10 3 -14 -6 -14 -8 2 -19 15 -11 12
-12 -18 -2 -31 9 -34 13 -23 25 10 10 32 12 82 8 37 -3 171 -13 297 -21 127
-8 248 -18 270 -21 22 -3 112 -7 201 -8 88 -2 165 -5 170 -9 5 -3 102 -11 214
-17 113 -7 206 -13 207 -14 1 -1 -20 -66 -47 -146 -27 -79 -47 -146 -45 -148
2 -3 9 6 14 19 4 13 41 110 81 214 39 105 76 202 82 216 8 22 34 38 151 89
153 67 178 77 162 63 -5 -4 -12 -19 -13 -33 -2 -14 -15 -58 -29 -98 l-25 -74
67 -62 68 -62 -42 -134 c-24 -74 -60 -189 -82 -255 -22 -68 -35 -123 -30 -128
5 -5 3 -28 -6 -54 -18 -52 -14 -60 18 -35 13 10 49 32 79 49 30 16 91 51 136
76 93 54 328 168 527 256 76 33 148 68 160 76 22 16 22 16 -5 9 -19 -4 -28 -2
-28 6 0 6 -4 9 -9 6 -5 -3 -22 -2 -37 3 -16 5 -55 15 -86 21 -33 8 -55 17 -51
23 3 6 1 7 -6 3 -6 -4 -27 -9 -46 -11 -40 -3 -43 6 -21 60 l15 35 199 0 198 0
17 -38 c9 -21 17 -44 17 -50 0 -7 5 -12 11 -12 5 0 7 -4 4 -10 -3 -5 -1 -18 5
-27 9 -16 10 -15 7 7 -1 14 -5 30 -8 35 -4 9 -5 27 0 38 0 2 40 -2 89 -9 48
-6 88 -11 90 -9 1 1 -11 45 -27 96 -62 195 -131 432 -131 449 0 15 14 21 71
30 39 7 71 10 73 9 1 -2 9 -29 18 -59 9 -30 42 -142 74 -247 l57 -193 79 0 79
0 18 -42 c10 -24 65 -156 122 -295 l104 -251 65 -6 c36 -3 241 -8 456 -12
l391 -6 7 28 c21 84 193 314 362 486 l106 107 -37 -4 c-27 -2 -35 0 -31 10 3
9 0 12 -10 8 -7 -3 -14 -10 -14 -17 0 -7 -3 -7 -8 2 -5 7 -27 13 -50 15 -23 1
-42 5 -42 9 0 4 -18 1 -41 -7 -35 -13 -40 -13 -36 -1 3 8 11 33 18 56 7 23 18
43 23 45 6 2 92 16 191 31 170 27 182 30 207 58 25 27 29 28 58 16 27 -11 33
-10 53 6 12 11 25 22 28 27 3 4 15 -2 27 -13 20 -19 24 -19 95 -6 41 8 84 12
95 9 11 -3 33 2 49 11 15 8 91 29 168 46 77 17 165 37 196 44 l56 13 41 -69
c47 -77 48 -84 27 -135 -14 -33 -14 -38 4 -67 l20 -31 20 45 c17 37 20 40 16
15 -3 -16 -2 -24 1 -17 9 19 20 14 32 -14 7 -15 8 -23 2 -19 -6 3 -13 -1 -16
-9 -3 -9 -11 -16 -17 -16 -7 0 -7 4 1 12 15 15 16 28 2 28 -6 0 -15 -11 -20
-25 -5 -14 -15 -25 -22 -25 -7 -1 12 -12 43 -25 l57 -24 91 42 c50 23 91 45
91 49 0 3 -21 14 -47 24 -27 10 -54 24 -61 31 -8 7 -18 10 -24 7 -7 -5 -5 -11
6 -19 15 -12 15 -13 0 -19 -9 -4 -18 -5 -19 -4 -10 11 -89 146 -109 187 -18
35 -22 52 -14 57 6 4 8 3 5 -2 -3 -6 -2 -16 4 -24 7 -12 9 -12 9 -1 0 8 8 3
20 -12 12 -15 17 -32 13 -43 -4 -11 -3 -15 5 -10 6 3 14 1 18 -5 4 -8 3 -9 -4
-5 -16 10 -15 0 4 -29 9 -14 20 -22 25 -19 5 3 6 -2 3 -11 -4 -10 -2 -15 7
-13 8 2 13 -3 12 -9 -2 -7 2 -13 7 -13 6 0 10 6 10 13 0 8 4 7 11 -3 9 -13 10
-13 6 0 -2 8 -10 14 -16 13 -10 -3 -15 10 -12 30 0 4 -4 7 -10 7 -7 0 -10 15
-7 39 2 22 1 38 -3 36 -3 -2 -6 2 -6 9 0 8 6 12 14 9 7 -3 13 -1 13 5 0 6 3
17 6 26 9 22 -25 21 -43 -1 -13 -17 -14 -16 -8 5 5 19 2 22 -19 22 -14 0 -26
-4 -26 -10 0 -5 -5 -10 -11 -10 -5 0 -7 5 -3 11 4 7 -3 10 -17 8 -13 -1 -31 1
-39 4 -8 4 -64 11 -124 17 -61 5 -113 13 -116 17 -4 5 -12 27 -19 51 -6 23
-16 40 -20 38 -21 -13 -41 27 -61 124 -12 58 -24 113 -26 123 -7 24 17 22 71
-9 51 -28 57 -27 193 13 55 16 62 21 48 32 -8 7 -21 9 -28 5 -7 -4 -10 -3 -5
1 4 5 -17 25 -45 46 -55 40 -75 48 -62 27 5 -9 2 -9 -9 1 -18 15 -23 26 -7 16
6 -3 10 -3 10 2 -1 15 -99 75 -111 67 -8 -4 -9 -3 -5 4 10 16 -6 15 -24 0 -12
-11 -12 -10 -1 5 21 27 10 28 -57 3 -34 -12 -60 -25 -56 -28 3 -4 -2 -4 -13
-2 -10 3 -32 -2 -48 -10 -17 -9 -36 -16 -43 -16 -7 0 -11 -4 -8 -9 4 -5 -3 -7
-15 -4 -16 5 -19 11 -14 32 4 14 7 27 8 28 13 11 251 93 262 89 8 -2 70 -43
138 -90 121 -84 125 -85 158 -74 19 6 35 12 37 13 1 1 -5 22 -14 46 -8 24 -28
87 -44 139 -16 52 -31 102 -35 111 -4 11 14 31 67 71 67 51 86 59 233 102 148
43 161 45 173 29 6 -9 12 -25 12 -35 0 -11 7 -18 20 -18 21 0 24 -8 14 -34 -6
-15 -7 -15 -18 0 -12 15 -15 15 -44 0 -22 -11 -30 -21 -26 -34 3 -9 8 -22 9
-29 5 -15 95 13 95 29 0 5 5 6 10 3 20 -13 70 6 70 25 0 11 9 24 20 30 11 6
20 18 20 28 0 13 2 14 9 4 6 -11 9 -9 13 6 4 16 2 19 -10 15 -11 -5 -14 -2 -9
10 3 9 3 16 -1 15 -19 -4 -42 17 -42 39 0 13 -4 21 -10 18 -6 -4 -10 7 -10 27
0 27 5 36 28 45 18 9 27 21 28 38 1 14 -2 23 -6 20 -4 -3 -2 16 6 41 21 71 46
94 59 54 3 -11 13 -20 21 -20 8 0 14 -5 14 -10 0 -6 15 -25 34 -43 43 -42 54
-74 31 -91 -22 -16 -16 -52 8 -48 10 2 22 -7 29 -23 15 -34 31 -32 23 4 -5 24
-2 29 17 34 12 4 24 5 25 3 6 -6 123 -347 123 -358 0 -7 -5 -6 -15 2 -8 6 -19
9 -25 5 -5 -3 -10 -1 -10 6 0 7 -2 10 -5 7 -7 -7 45 -183 56 -186 6 -2 5 -10
-2 -19 -11 -13 -7 -14 27 -8 35 5 37 5 18 -7 -55 -34 -73 -55 -68 -79 l5 -24
-13 23 c-8 17 -17 22 -32 18 -12 -3 -31 -6 -44 -6 -19 0 -22 -4 -17 -21 5 -14
2 -25 -6 -30 -22 -14 -66 -10 -72 5 -4 9 -14 12 -25 9 -14 -3 -21 2 -25 17 -3
12 0 23 6 25 66 22 133 36 152 31 14 -4 27 0 35 9 7 8 19 15 26 15 15 0 19 16
6 24 -8 5 -133 -25 -263 -63 l-67 -19 -29 81 -30 82 61 32 c34 18 57 32 53 33
-5 0 -88 -22 -186 -50 -98 -27 -182 -50 -188 -50 -6 0 -14 21 -18 48 -4 26
-11 68 -17 94 -9 45 -11 47 -31 36 -14 -7 -17 -13 -9 -16 6 -2 9 -8 6 -14 -4
-6 -10 -5 -15 3 -7 11 -9 10 -9 -3 0 -9 -4 -20 -10 -23 -7 -4 -6 3 0 20 7 19
7 39 -1 66 -14 44 -13 43 -58 28 -31 -11 -32 -14 -26 -48 4 -20 13 -46 21 -58
8 -13 12 -23 10 -23 -2 0 6 -35 20 -77 13 -43 24 -81 24 -85 0 -3 -14 -11 -32
-17 -50 -18 -28 -21 35 -4 32 8 64 12 71 10 6 -3 23 -39 36 -81 14 -44 29 -76
37 -76 7 0 13 5 13 11 0 5 4 8 8 5 5 -3 33 1 63 9 30 8 55 15 57 15 1 0 2 -8
2 -17 0 -10 15 -70 33 -134 l32 -116 63 18 c46 13 76 30 113 63 28 25 55 46
61 46 5 0 33 -25 62 -55 29 -30 57 -55 62 -55 17 1 114 67 107 74 -3 3 -20 6
-37 6 -54 0 -61 15 -17 34 38 18 39 19 29 48 -11 30 -11 30 -23 8 -12 -22 -12
-22 -24 8 -10 24 -17 28 -39 24 -15 -3 -25 -2 -22 1 3 3 23 8 45 11 21 4 42
11 46 17 14 24 45 -1 55 -44 8 -39 11 -42 39 -39 17 2 44 10 60 17 17 7 82 32
145 54 207 72 237 86 280 124 23 21 40 40 38 41 -1 2 -31 13 -65 25 l-62 23
32 32 c34 34 59 37 167 22 45 -7 45 -6 78 39 33 46 35 47 84 43 l50 -3 1 968
c1 532 -1 967 -5 967 -5 0 -8 -4 -8 -10 0 -5 -9 -19 -21 -31 l-21 -21 -54 59
c-29 32 -54 61 -54 66 0 4 -7 7 -15 7 -8 0 -15 4 -15 8 0 4 -17 27 -39 49 -36
40 -42 42 -107 47 -38 3 -108 5 -156 5 -74 1 -87 4 -92 19 -3 10 -22 42 -41
72 -19 30 -34 58 -33 62 3 8 75 92 125 148 18 19 33 40 33 45 0 6 -18 30 -40
55 -22 25 -40 48 -40 52 0 4 18 21 39 39 l39 31 -17 29 c-10 16 -32 45 -50 64
-27 30 -35 34 -51 25 -11 -6 -20 -17 -20 -25 0 -8 -3 -15 -7 -15 -5 0 -19 -16
-31 -35 -13 -19 -36 -47 -52 -63 l-27 -29 -16 27 c-9 15 -13 31 -9 35 4 5 2 5
-4 2 -6 -3 -18 7 -28 24 -11 19 -25 29 -42 29 -27 0 -28 -3 -14 -31 9 -16 7
-19 -13 -19 -27 0 -41 13 -51 48 -6 19 -4 22 21 22 47 0 58 13 38 44 -18 27
-55 33 -124 20 l-31 -7 39 -73 40 -74 -25 0 c-13 0 -27 6 -30 14 -4 11 -12 13
-30 6 -19 -8 -26 -6 -31 6 -4 12 -14 14 -35 10 -21 -4 -30 -1 -35 10 -4 12
-14 14 -36 10 -21 -4 -33 -1 -41 10 -7 9 -18 12 -29 8 -22 -8 -21 -15 4 -58
l20 -34 45 20 c25 11 47 18 48 16 21 -27 36 -55 36 -64 0 -20 -32 -25 -51 -8
-14 12 -22 13 -38 4 -26 -13 -26 -11 -1 -63 21 -42 21 -42 1 -19 -11 13 -25
21 -30 18 -5 -4 -11 0 -14 6 -6 19 -29 -3 -66 -61 l-31 -48 27 -49 c25 -43 32
-49 56 -46 25 3 28 1 22 -17 -4 -15 -2 -21 8 -21 8 0 18 -11 21 -25 4 -15 11
-22 20 -19 8 3 17 1 20 -5 4 -6 13 -8 21 -4 28 10 15 -16 -16 -34 -23 -14 -29
-23 -26 -42 l5 -23 -26 25 c-23 23 -24 29 -13 53 14 31 2 45 -31 36 -16 -4
-19 -11 -14 -33 3 -18 1 -29 -5 -29 -8 0 -8 -4 0 -13 9 -11 5 -14 -18 -15 -34
-1 -47 21 -25 39 14 11 13 14 -5 21 -13 4 -19 13 -15 23 4 10 0 15 -15 15 -12
0 -21 5 -21 10 0 6 5 10 10 10 13 0 13 37 1 45 -5 3 -13 0 -16 -6 -4 -5 -12
-8 -19 -6 -7 3 -23 -15 -36 -39 -19 -37 -21 -48 -12 -70 7 -14 12 -27 12 -29
0 -3 -29 -5 -65 -5 -36 0 -65 -2 -65 -5 0 -13 38 -64 43 -58 4 3 7 0 7 -7 0
-7 8 -22 18 -33 9 -11 12 -17 5 -14 -17 10 -75 -77 -62 -90 16 -16 -19 -67
-36 -53 -11 9 -29 -13 -84 -94 l-70 -105 93 -163 94 -163 7 -231 7 -231 -73
-17 c-41 -9 -85 -19 -99 -22 -24 -5 -24 -5 -5 10 18 16 18 16 -15 10 -19 -4
-123 -29 -230 -55 -149 -36 -198 -45 -206 -36 -6 7 -41 64 -79 127 -37 63 -82
138 -99 165 -37 61 -48 78 -79 130 -13 22 -87 145 -165 273 -78 127 -138 232
-135 232 4 0 -1 6 -10 13 -24 18 -40 67 -24 72 115 40 312 111 347 125 25 9
82 30 128 45 45 14 82 32 82 38 0 7 -32 66 -72 132 -39 66 -105 176 -146 245
-41 69 -76 126 -77 128 -2 2 -70 -22 -152 -54 -81 -31 -175 -67 -208 -79 -33
-12 -88 -34 -122 -48 -83 -34 -124 -43 -118 -25 39 111 83 284 75 293 -8 9 -4
11 15 7 17 -3 27 1 31 12 3 9 11 13 16 10 17 -11 128 48 128 67 0 29 -18 32
-60 11 -22 -11 -40 -16 -40 -11 0 4 16 13 35 20 29 11 32 15 22 28 -10 12 -9
13 11 2 25 -13 26 -11 16 51 -4 21 -9 36 -13 34 -3 -2 -7 10 -8 27 -1 26 0 28
7 12 12 -29 12 16 -1 225 -9 157 -13 180 -37 228 -26 52 -42 66 -42 36 0 -9 5
-12 12 -8 7 5 9 0 6 -14 -4 -12 -1 -20 4 -19 6 1 13 -5 15 -13 4 -13 3 -13 -6
0 -8 11 -11 11 -11 2 0 -10 -3 -10 -14 0 -7 7 -11 19 -9 26 4 8 -1 10 -13 6
-12 -3 -15 -3 -8 3 16 11 27 51 18 64 -4 8 -9 7 -16 -2 -6 -10 -7 -7 -3 9 4
15 1 30 -8 40 -8 9 -22 32 -31 50 -9 18 -21 30 -26 27 -5 -3 -8 3 -8 12 1 10
-10 36 -24 58 -14 22 -44 74 -68 115 -59 101 -61 104 -72 88 -6 -8 -7 -5 -3
11 4 13 3 26 -2 30 -6 3 -18 20 -27 36 -10 17 -15 23 -13 14 3 -9 -1 -16 -8
-16 -9 0 -11 7 -6 21 5 13 1 31 -12 53 -19 33 -34 45 -24 20 3 -8 1 -20 -4
-28 -6 -9 -7 -1 -4 23 2 21 0 40 -5 43 -6 4 -10 15 -10 25 0 10 -3 21 -7 23
-5 3 -287 -89 -628 -203z m672 3 c-3 -10 -5 -2 -5 17 0 19 2 27 5 18 2 -10 2
-26 0 -35z m-20 -15 c-3 -7 -5 -2 -5 12 0 14 2 19 5 13 2 -7 2 -19 0 -25z m20
-70 c-3 -8 -6 -5 -6 6 -1 11 2 17 5 13 3 -3 4 -12 1 -19z m119 -53 c-1 -37
-12 -47 -18 -17 -3 13 10 52 18 52 0 0 0 -16 0 -35z m-129 3 c-3 -8 -6 -5 -6
6 -1 11 2 17 5 13 3 -3 4 -12 1 -19z m-167 -63 c0 -57 3 -75 14 -75 12 0 109
29 146 44 12 5 15 -4 14 -51 -1 -32 2 -112 7 -178 5 -66 9 -128 10 -137 0 -10
4 -18 10 -18 5 0 9 -6 9 -14 0 -8 4 -17 9 -21 6 -3 9 20 8 57 0 47 2 62 12 60
9 -2 11 3 7 13 -3 9 -2 13 4 10 6 -3 10 1 10 10 0 9 -4 13 -10 10 -15 -9 -12
11 4 24 11 9 13 4 11 -26 -2 -21 -4 -42 -5 -48 -5 -20 0 -27 13 -17 10 8 13 5
12 -15 0 -32 21 -42 30 -13 6 20 25 19 25 -1 0 -6 -4 -7 -10 -4 -5 3 -10 1
-10 -5 0 -6 7 -13 15 -16 8 -4 12 -11 8 -17 -4 -7 0 -8 12 -3 15 6 16 4 5 -9
-12 -15 -15 -14 -26 7 -7 13 -15 22 -18 21 -10 -5 -5 -17 20 -47 20 -23 27
-26 39 -16 9 7 18 11 20 8 3 -3 0 -10 -7 -16 -10 -8 -12 -45 -8 -156 5 -138 6
-146 30 -168 13 -13 28 -22 32 -21 4 2 5 -3 2 -11 -3 -8 3 -16 15 -19 27 -7
34 3 13 19 -15 12 -15 13 8 10 14 -3 27 -5 29 -5 2 -1 -2 -8 -9 -16 -6 -8 -8
-20 -4 -26 4 -7 3 -9 -3 -6 -17 10 -2 -47 16 -61 14 -11 14 -11 -1 -6 -10 3
-18 3 -18 -1 0 -4 8 -14 18 -21 16 -13 16 -14 -3 -7 -11 3 -17 3 -13 -2 12
-13 -10 -42 -38 -49 -34 -9 -56 6 -164 110 l-86 83 -80 -20 c-192 -50 -228
-58 -235 -54 -4 3 -11 62 -15 132 -4 71 -9 131 -10 136 -1 4 -2 11 -3 15 0 5
-39 -1 -85 -13 -46 -13 -88 -20 -95 -16 -6 4 -12 37 -13 74 -1 37 -5 67 -9 67
-5 0 -193 -59 -283 -90 -16 -5 -31 -8 -32 -7 -6 6 -6 135 0 145 12 20 -26 21
-102 1 l-77 -21 3 -89 c4 -101 0 -98 91 -70 33 10 63 16 66 13 3 -3 5 -34 5
-68 l0 -63 -52 -15 c-29 -8 -65 -18 -80 -22 l-27 -6 -3 -151 -3 -151 -119 -32
c-66 -18 -126 -30 -133 -27 -10 4 -13 78 -13 379 l0 373 48 14 47 14 3 82 c2
44 5 81 7 81 3 0 123 36 268 80 239 74 321 99 607 189 52 16 101 30 108 30 8
1 12 -20 12 -74z m317 43 c-3 -8 -6 -5 -6 6 -1 11 2 17 5 13 3 -3 4 -12 1 -19z
m63 -103 c9 -28 9 -29 -5 -11 -8 11 -15 26 -15 33 0 7 -4 13 -9 13 -5 0 -11
10 -14 23 -6 21 -6 21 13 -3 11 -14 24 -38 30 -55z m-10 -45 c0 -5 -5 -10 -11
-10 -5 0 -7 5 -4 10 3 6 8 10 11 10 2 0 4 -4 4 -10z m-130 -90 c0 -5 -4 -10
-10 -10 -5 0 -10 5 -10 10 0 6 5 10 10 10 6 0 10 -4 10 -10z m226 -21 c19 -21
19 -21 -9 -8 -15 7 -27 16 -27 21 0 14 16 9 36 -13z m-23 -29 c3 -11 1 -18 -4
-14 -5 3 -9 12 -9 20 0 20 7 17 13 -6z m-224 -66 l-11 -29 -9 24 c-5 13 -7 26
-4 29 3 3 5 -1 6 -9 0 -8 5 -3 11 11 14 34 21 10 7 -26z m1 -56 c0 -6 -6 -5
-15 2 -8 7 -15 14 -15 16 0 2 7 1 15 -2 8 -4 15 -11 15 -16z m90 -7 c0 -6 -4
-13 -10 -16 -5 -3 -10 1 -10 9 0 9 5 16 10 16 6 0 10 -4 10 -9z m268 -32 c3
-12 2 -12 -6 0 -8 11 -12 10 -21 -5 -12 -21 -14 -15 -5 11 7 18 26 15 32 -6z
m-178 -40 c0 -6 -4 -7 -10 -4 -5 3 -10 11 -10 16 0 6 5 7 10 4 6 -3 10 -11 10
-16z m140 -39 c0 -11 -4 -20 -9 -20 -5 0 -7 9 -4 20 3 11 7 20 9 20 2 0 4 -9
4 -20z m-122 -7 c-9 -10 -18 -27 -20 -38 -3 -17 -5 -15 -10 7 -3 15 -2 25 2
23 4 -3 13 2 20 10 7 8 15 15 18 15 3 0 -2 -8 -10 -17z m12 -57 c0 -3 -4 -8
-10 -11 -5 -3 -10 -1 -10 4 0 6 5 11 10 11 6 0 10 -2 10 -4z m-33 -183 c-2
-16 -4 -5 -4 22 0 28 2 40 4 28 2 -13 2 -35 0 -50z m-717 -29 c0 -65 -2 -75
-16 -70 -8 3 -13 2 -10 -3 8 -12 -89 -35 -105 -25 -7 4 -9 3 -6 -3 6 -9 -167
-63 -202 -63 -8 0 -11 22 -10 73 l2 74 151 45 c208 63 196 65 196 -28z m740
-25 c0 -14 -17 -10 -23 5 -4 10 -1 13 9 9 7 -3 14 -9 14 -14z m187 -111 c-3
-8 -6 -5 -6 6 -1 11 2 17 5 13 3 -3 4 -12 1 -19z m1967 -183 c6 -16 5 -17
-114 -60 -61 -23 -79 -21 -80 7 0 6 156 67 176 67 7 1 15 -6 18 -14z m82 -40
c9 -13 13 -29 9 -35 -12 -19 -42 -10 -56 18 -7 15 -15 29 -16 32 -2 3 8 7 22
8 17 1 30 -6 41 -23z m-238 -87 c16 -24 18 -35 9 -40 -22 -14 -36 -8 -52 22
-29 55 10 71 43 18z m300 25 c-10 -2 -18 -9 -18 -15 0 -6 -3 -9 -6 -5 -10 10
6 27 24 26 15 -1 15 -2 0 -6z m-25 -48 c-3 -9 -8 -14 -10 -11 -3 3 -2 9 2 15
9 16 15 13 8 -4z m-364 -47 c22 -37 22 -38 2 -38 -25 0 -32 11 -36 56 -3 39 1
37 34 -18z m-2007 -30 c-8 -8 -9 -4 -5 13 4 13 8 18 11 10 2 -7 -1 -18 -6 -23z
m-30 15 c-6 -2 -9 -10 -6 -15 4 -7 2 -8 -4 -4 -18 11 -14 26 6 25 10 0 12 -3
4 -6z m-4261 -20 c13 -16 12 -17 -3 -4 -10 7 -18 15 -18 17 0 8 8 3 21 -13z
m4248 -9 c36 -8 41 -29 9 -38 -22 -7 -22 -7 -3 -16 17 -7 17 -9 3 -9 -22 -1
-21 0 -4 -41 7 -18 16 -28 20 -22 3 6 2 13 -4 17 -5 3 -10 13 -10 22 0 11 6 8
20 -10 11 -14 20 -29 19 -34 -4 -16 13 -43 23 -37 6 4 8 -2 3 -15 -4 -15 -3
-20 7 -16 8 2 35 -30 69 -83 31 -48 86 -132 122 -187 l65 -101 16 -189 c15
-179 25 -308 61 -810 8 -115 18 -245 21 -287 7 -88 3 -101 -29 -88 -172 70
-224 86 -262 79 -22 -4 -61 -10 -87 -13 l-48 -7 0 99 c0 54 -2 101 -5 103 -2
3 -42 -1 -87 -7 -139 -21 -128 -28 -128 76 0 50 -2 90 -4 90 -2 0 -168 -23
-368 -50 -434 -60 -591 -81 -594 -77 -4 3 -8 855 -6 1153 l2 261 143 33 c223
51 279 62 285 56 3 -3 -4 -6 -16 -6 -18 0 -22 -6 -21 -27 1 -18 3 -22 6 -10 6
21 38 19 38 -3 0 -20 38 -24 78 -10 18 7 57 16 87 20 101 16 170 32 166 38 -8
16 13 47 35 52 15 4 25 14 27 28 2 12 8 20 13 17 5 -4 9 -2 9 3 0 4 30 14 68
21 37 7 76 14 87 16 11 2 27 0 35 -5 12 -8 10 -11 -10 -17 -22 -7 -19 -9 20
-13 35 -4 44 -9 42 -22 -2 -15 0 -16 28 -1 41 20 33 37 -21 43 l-44 6 35 11
c44 14 50 14 89 7z m-4214 -24 c3 -6 -1 -7 -9 -4 -18 7 -21 14 -7 14 6 0 13
-4 16 -10z m6630 -112 c31 -54 34 -76 8 -60 -18 12 -84 138 -76 146 9 9 21 -7
68 -86z m-2798 76 c-3 -3 -12 -4 -19 -1 -8 3 -5 6 6 6 11 1 17 -2 13 -5z
m2337 -152 c3 -5 -1 -9 -9 -9 -8 0 -12 4 -9 9 3 4 7 8 9 8 2 0 6 -4 9 -8z
m-1449 -568 c66 -107 150 -244 187 -304 36 -60 64 -111 60 -114 -3 -3 0 -6 6
-6 7 0 12 -4 12 -9 0 -5 15 -35 33 -68 42 -74 52 -91 68 -128 8 -16 16 -32 19
-35 21 -20 38 -60 29 -66 -6 -4 -15 -1 -19 5 -4 7 -13 11 -20 9 -7 -2 -15 3
-18 11 -3 8 0 11 7 7 7 -5 8 -1 4 10 -4 11 -8 13 -11 6 -2 -7 -8 -12 -14 -12
-6 0 -8 7 -5 14 4 10 1 13 -9 9 -7 -3 -14 0 -14 6 0 6 4 11 8 11 4 0 8 10 9
23 0 12 -1 16 -4 10 -3 -7 -9 -13 -14 -13 -6 0 -7 5 -4 10 3 6 -5 10 -18 10
-18 0 -27 7 -31 26 -7 28 -36 64 -36 44 0 -6 5 -20 10 -31 7 -13 7 -19 0 -19
-5 0 -10 6 -10 14 0 8 -4 17 -8 20 -4 2 -8 -11 -8 -29 0 -19 3 -30 7 -24 5 8
9 8 14 -1 6 -9 10 -9 16 1 6 10 9 7 10 -11 0 -14 3 -19 6 -12 6 16 28 15 43
-3 15 -18 0 -20 -20 -2 -12 10 -12 9 0 -6 12 -16 12 -20 -1 -28 -10 -8 -8 -9
9 -4 22 6 32 -10 11 -17 -7 -2 -5 -9 5 -17 14 -12 16 -12 10 3 -9 22 5 20 27
-5 10 -11 22 -19 26 -16 4 3 14 -2 22 -10 11 -12 11 -14 0 -12 -20 3 -49 -11
-49 -24 0 -7 4 -7 12 1 17 17 28 15 29 -5 0 -15 2 -15 8 2 7 17 9 15 13 -13 4
-25 0 -36 -15 -47 -12 -9 -17 -20 -13 -30 8 -22 29 -6 51 38 16 31 11 53 -5
27 -7 -11 -10 -3 -10 28 0 23 3 42 8 42 4 0 21 -21 37 -45 26 -40 33 -45 58
-39 15 3 27 3 27 0 0 -3 -23 -28 -51 -55 -36 -35 -49 -56 -45 -67 9 -22 -22
-56 -45 -49 -12 4 -31 -8 -60 -39 l-43 -44 -16 21 c-9 12 -20 29 -23 37 -4 10
-6 8 -6 -7 -1 -13 4 -23 11 -23 7 0 8 -3 2 -9 -13 -12 -94 -21 -94 -10 0 5 14
9 30 9 22 0 30 5 30 17 0 13 -3 14 -12 5 -18 -18 -28 -14 -28 12 0 13 -3 32
-6 41 -5 13 -8 14 -15 3 -5 -7 -8 -20 -8 -28 0 -10 3 -9 10 5 7 15 8 12 4 -15
-3 -19 -10 -36 -15 -38 -5 -2 -7 -9 -4 -15 4 -11 -214 -227 -237 -235 -12 -5
-12 -2 7 49 19 55 19 48 0 329 -20 289 -66 1054 -66 1092 0 15 3 28 8 28 4 0
61 -88 127 -196z m-4558 -266 c-3 -8 -6 -5 -6 6 -1 11 2 17 5 13 3 -3 4 -12 1
-19z m-150 -80 c-3 -8 -6 -5 -6 6 -1 11 2 17 5 13 3 -3 4 -12 1 -19z m6657
-305 c29 -59 66 -136 81 -170 16 -36 32 -60 38 -56 5 3 7 1 4 -5 -4 -5 6 -39
22 -75 l29 -65 -81 -41 c-45 -22 -115 -58 -154 -80 -40 -22 -73 -37 -73 -33 0
4 -4 3 -8 -3 -12 -16 -52 -36 -61 -30 -9 5 -70 106 -83 136 -10 24 -98 161
-114 177 -8 7 -14 19 -14 27 0 7 -3 15 -7 17 -9 4 -56 89 -51 92 13 10 134
102 138 106 3 3 12 10 21 15 9 6 41 26 70 46 30 20 77 50 104 66 l50 31 18
-23 c9 -13 41 -72 71 -132z m-6359 27 c3 -5 2 -10 -4 -10 -5 0 -13 5 -16 10
-3 6 -2 10 4 10 5 0 13 -4 16 -10z m5845 -140 c0 -23 -5 -30 -19 -30 -11 0
-23 5 -26 10 -11 18 6 50 26 50 14 0 19 -7 19 -30z m-6145 -10 c3 -5 2 -10 -4
-10 -5 0 -13 5 -16 10 -3 6 -2 10 4 10 5 0 13 -4 16 -10z m6239 -132 c10 -50
-32 -68 -52 -23 -18 38 -15 53 11 57 30 5 34 3 41 -34z m-6660 -93 c78 -8 87
-17 80 -78 -6 -49 -6 -51 12 -37 27 21 34 33 27 44 -4 5 -1 6 7 1 7 -4 15 -3
19 3 8 13 91 -5 91 -19 0 -13 -18 -20 -25 -9 -13 21 -52 9 -84 -25 l-31 -35
24 0 c31 0 56 10 56 21 0 6 -8 5 -19 -1 -27 -14 -34 -13 -19 4 15 16 40 14 46
-4 3 -7 -1 -37 -7 -66 -10 -42 -17 -54 -32 -55 -10 -1 -22 -3 -26 -4 -5 -2
-18 -6 -30 -10 -13 -4 -23 -12 -23 -17 0 -5 5 -6 11 -2 8 4 9 0 4 -15 -6 -21
-5 -21 82 -16 92 6 241 22 281 31 21 4 23 2 20 -33 -3 -35 -6 -38 -38 -43 -27
-4 -36 -10 -38 -27 -2 -14 -11 -24 -23 -24 -10 -1 -25 -2 -31 -3 -7 -1 -13 8
-13 19 0 18 -6 20 -65 17 -93 -3 -314 -23 -322 -29 -5 -2 -8 -21 -8 -43 0 -39
-11 -50 -51 -50 -15 0 -19 7 -19 31 0 30 -1 31 -34 26 -27 -4 -35 -2 -39 12
-4 15 -13 17 -51 14 -48 -5 -52 -1 -40 43 5 19 17 22 132 33 152 14 229 25
238 34 15 15 -21 39 -52 35 -18 -2 -31 -1 -28 3 2 4 -5 9 -17 12 -17 5 -20 12
-17 54 3 43 5 48 26 45 16 -2 22 2 22 17 0 10 5 21 11 23 6 2 12 16 12 31 0
15 3 30 8 33 14 8 11 24 -5 24 -16 0 -30 -45 -20 -62 5 -8 -11 -9 -57 -4 -35
4 -66 9 -68 11 -9 10 11 56 23 52 7 -3 18 4 25 15 11 17 10 22 -1 30 -9 7 -7
8 8 4 11 -4 42 -8 68 -11z m5766 2 c0 -16 -146 -607 -152 -612 -6 -6 -412 -24
-417 -19 -3 3 9 47 26 99 23 70 28 96 19 106 -8 9 -8 10 2 5 6 -4 12 -3 12 1
0 18 -26 42 -50 45 -20 3 -14 8 31 21 l55 17 34 104 33 105 61 23 c116 44 321
116 334 117 6 1 12 -5 12 -12z m1462 -104 c10 -9 18 -21 18 -27 0 -6 15 -47
34 -91 55 -127 106 -262 106 -276 0 -8 -19 31 -41 86 -22 55 -45 104 -50 110
-5 5 -9 17 -9 26 0 23 -37 104 -54 118 -9 8 -16 8 -20 2 -4 -5 -2 -13 4 -16 6
-4 10 -29 9 -57 -2 -43 -6 -51 -28 -60 -14 -5 -43 -7 -63 -4 -36 6 -53 -6 -25
-17 9 -4 9 -6 -1 -6 -7 -1 -21 12 -30 29 -18 32 -31 37 -50 18 -9 -9 -12 -8
-12 5 0 13 -6 16 -22 12 -17 -4 -27 0 -37 16 -12 20 -11 24 5 36 10 7 24 11
32 8 7 -2 11 -1 8 3 -2 4 10 14 27 21 18 8 63 29 101 47 39 19 72 34 75 34 2
0 13 -7 23 -17z m-7029 0 c3 -5 -6 -8 -19 -8 -13 0 -24 3 -24 8 0 4 9 7 19 7
11 0 22 -3 24 -7z m-253 -38 c0 -8 -4 -15 -10 -15 -5 0 -7 7 -4 15 4 8 8 15
10 15 2 0 4 -7 4 -15z m423 -30 c5 -12 11 -12 39 -1 29 12 36 12 53 0 19 -14
19 -16 2 -28 -9 -8 -15 -20 -12 -28 4 -9 -4 -19 -21 -27 -22 -10 -30 -9 -44 4
-9 8 -30 15 -47 15 -35 0 -51 24 -26 38 11 6 12 11 4 16 -20 13 -11 26 18 26
16 0 31 -6 34 -15z m-586 -21 c-3 -3 -12 -4 -19 -1 -8 3 -5 6 6 6 11 1 17 -2
13 -5z m3692 -128 c9 -11 9 -15 -1 -19 -9 -4 -7 -6 4 -6 9 -1 39 -25 66 -53
76 -82 192 -216 192 -223 0 -3 -19 -36 -41 -73 -23 -37 -69 -112 -102 -167
-33 -55 -61 -101 -62 -103 -1 -1 -28 6 -61 17 -44 14 -60 23 -62 39 -4 24 19
32 61 21 30 -8 30 -8 31 56 1 39 2 40 33 37 30 -3 32 -1 31 28 -1 32 -24 53
-56 49 -9 -1 -19 -1 -22 0 -3 1 -47 4 -99 6 -52 3 -97 7 -100 10 -3 3 -5 70
-6 149 0 80 -3 147 -6 150 -3 3 -65 -18 -137 -48 -73 -30 -129 -50 -126 -45 5
9 58 34 189 89 82 34 160 68 205 88 35 15 56 14 69 -2z m1588 -65 c1 -1 -5
-17 -13 -36 -8 -20 -12 -40 -9 -44 7 -13 -27 -23 -38 -12 -6 6 -6 20 1 38 5
15 13 36 15 45 5 13 23 17 44 9z m110 3 c-3 -3 -12 -4 -19 -1 -8 3 -5 6 6 6
11 1 17 -2 13 -5z m53 -8 c0 -2 -7 -7 -16 -10 -8 -3 -12 -2 -9 4 6 10 25 14
25 6z m1171 -29 c-10 -9 -11 -8 -5 6 3 10 9 15 12 12 3 -3 0 -11 -7 -18z
m-1228 6 c-7 -2 -19 -2 -25 0 -7 3 -2 5 12 5 14 0 19 -2 13 -5z m52 -13 c-3
-5 -10 -10 -16 -10 -5 0 -9 5 -9 10 0 6 7 10 16 10 8 0 12 -4 9 -10z m-594
-67 c-16 -32 -108 -224 -205 -428 -98 -203 -205 -427 -238 -497 l-62 -128
-463 0 c-312 0 -462 3 -458 10 4 6 10 8 15 5 5 -3 8 3 8 12 -2 26 41 93 59 93
8 0 11 -5 8 -10 -4 -6 -10 -8 -15 -5 -4 3 -10 -1 -13 -8 -3 -8 1 -14 10 -14
16 0 59 74 54 96 -1 8 2 10 10 5 9 -5 10 -2 6 10 -4 9 -3 15 2 11 12 -7 63 84
54 98 -3 5 -2 7 3 4 5 -3 19 9 30 26 33 51 297 494 323 544 22 39 26 43 37 29
10 -14 12 -13 12 9 0 15 -5 22 -12 18 -6 -3 -8 -2 -3 2 4 5 18 10 30 11 12 2
16 0 10 -2 -45 -19 19 -24 312 -24 210 0 325 -4 325 -10 0 -5 5 -10 10 -10 15
0 12 16 -6 34 -14 15 -12 16 25 16 22 0 43 -5 47 -12 4 -7 3 -8 -4 -4 -13 8
-17 -6 -5 -18 4 -3 14 8 23 26 62 123 74 144 83 156 20 26 16 10 -12 -45z
m-5134 5 c-3 -8 -6 -5 -6 6 -1 11 2 17 5 13 3 -3 4 -12 1 -19z m7923 -83 c0
-5 -5 -3 -10 5 -5 8 -10 20 -10 25 0 6 5 3 10 -5 5 -8 10 -19 10 -25z m-3534
-3 c-1 -19 -7 -29 -18 -29 -15 -2 -15 0 0 28 10 16 17 29 18 29 1 0 1 -13 0
-28z m-38 -7 c-3 -3 -9 2 -12 12 -6 14 -5 15 5 6 7 -7 10 -15 7 -18z m2257 5
c-3 -5 -12 -10 -18 -10 -7 0 -6 4 3 10 19 12 23 12 15 0z m-1015 -169 l80
-160 -34 -188 c-19 -103 -37 -209 -41 -236 -4 -26 -11 -49 -15 -52 -4 -2 -25
28 -47 68 -22 40 -68 121 -102 182 l-62 109 66 202 c36 111 65 209 65 218 0 9
2 16 5 16 3 0 41 -72 85 -159z m997 117 c-3 -8 -6 -5 -6 6 -1 11 2 17 5 13 3
-3 4 -12 1 -19z m30 -30 c-3 -8 -6 -5 -6 6 -1 11 2 17 5 13 3 -3 4 -12 1 -19z
m60 -10 c-3 -8 -6 -5 -6 6 -1 11 2 17 5 13 3 -3 4 -12 1 -19z m-6752 -38 c3
-6 -1 -7 -9 -4 -18 7 -21 14 -7 14 6 0 13 -4 16 -10z m1597 -41 c101 -22 190
-43 198 -45 14 -5 -43 -27 -143 -55 l-38 -10 23 -20 23 -20 -25 6 c-19 5 -22
4 -10 -4 13 -9 12 -11 -4 -11 -11 0 -17 -3 -13 -6 3 -4 20 -2 36 4 19 7 31 7
31 1 0 -5 -4 -9 -10 -9 -9 0 8 -49 21 -60 3 -3 14 -32 24 -64 11 -33 27 -68
37 -78 10 -10 18 -26 19 -35 1 -12 4 -10 9 7 l8 25 1 -25 c1 -25 -6 -28 -156
-72 l-158 -47 -120 33 c-66 18 -155 41 -197 51 l-78 19 0 46 c0 26 -3 107 -6
181 l-7 134 114 33 c63 19 132 40 154 47 58 20 66 19 267 -26z m5158 31 c18
-12 2 -12 -25 0 -13 6 -15 9 -5 9 8 0 22 -4 30 -9z m210 0 c0 -5 -7 -10 -16
-10 -8 0 -12 5 -9 10 3 6 10 10 16 10 5 0 9 -4 9 -10z m-115 -30 c13 -6 15 -9
5 -9 -13 -1 -13 -2 0 -11 8 -5 11 -10 5 -10 -13 0 -43 20 -30 20 6 0 3 5 -5
10 -18 12 -2 12 25 0z m-6488 -52 c-3 -7 -5 -2 -5 12 0 14 2 19 5 13 2 -7 2
-19 0 -25z m3650 -2 c-3 -8 -1 -17 6 -19 21 -7 -14 -39 -36 -33 -11 3 -26 -1
-33 -9 -17 -17 -18 -25 -1 -21 6 1 9 1 5 -1 -5 -3 -8 -12 -8 -20 0 -10 -6 -13
-17 -8 -10 3 -30 9 -45 12 -26 5 -28 9 -28 54 l0 48 50 -3 c28 -1 53 1 56 6 3
4 17 8 31 8 18 0 24 -4 20 -14z m2248 4 c3 -5 2 -10 -4 -10 -5 0 -13 5 -16 10
-3 6 -2 10 4 10 5 0 13 -4 16 -10z m552 -12 c-3 -8 -6 -5 -6 6 -1 11 2 17 5
13 3 -3 4 -12 1 -19z m806 -29 c12 -46 -34 -28 -48 19 -6 21 -5 21 18 11 14
-6 28 -20 30 -30z m-1325 6 c-3 -3 -9 2 -12 12 -6 14 -5 15 5 6 7 -7 10 -15 7
-18z m732 21 c0 -3 -4 -8 -10 -11 -5 -3 -10 -1 -10 4 0 6 5 11 10 11 6 0 10
-2 10 -4z m-193 -53 c-3 -10 -5 -2 -5 17 0 19 2 27 5 18 2 -10 2 -26 0 -35z
m-762 8 c8 -14 -10 -22 -30 -15 -13 5 -14 8 -3 15 17 11 26 11 33 0z m978 -8
c-3 -7 -9 -13 -13 -13 -4 0 -10 6 -13 13 -3 7 3 13 13 13 10 0 16 -6 13 -13z
m-6533 -3 c0 -5 -5 -10 -11 -10 -5 0 -7 5 -4 10 3 6 8 10 11 10 2 0 4 -4 4
-10z m3200 -13 c0 -19 -9 -25 -58 -40 -73 -22 -72 -22 -72 7 0 21 8 27 48 39
69 22 82 21 82 -6z m3215 13 c-3 -5 -14 -10 -23 -9 -14 0 -13 2 3 9 27 11 27
11 20 0z m82 -10 c3 -10 2 -11 -4 -4 -4 6 -15 14 -23 17 -11 5 -9 6 4 4 11 -1
21 -9 23 -17z m-897 6 c0 -2 -9 -6 -20 -9 -11 -3 -18 -1 -14 4 5 9 34 13 34 5z
m1001 -32 c-25 -22 -53 -37 -78 -40 l-38 -6 60 41 c76 52 111 56 56 5z m-6616
13 c16 -12 17 -24 12 -98 -4 -46 -7 -99 -7 -116 0 -31 -2 -33 -36 -33 l-36 0
6 88 c13 179 17 190 61 159z m3320 -5 c-3 -3 -11 0 -18 7 -9 10 -8 11 6 5 10
-3 15 -9 12 -12z m2599 -24 c-3 -5 -12 -2 -20 6 -20 21 -17 28 5 14 11 -7 17
-16 15 -20z m-82 0 c-7 -7 -12 -8 -12 -2 0 14 12 26 19 19 2 -3 -1 -11 -7 -17z
m894 -3 c6 -24 24 -35 24 -15 0 6 8 10 17 10 9 0 13 -3 10 -6 -3 -4 -2 -15 4
-25 6 -13 6 -19 -1 -19 -5 0 -10 7 -10 15 0 11 -6 13 -22 7 -40 -13 -62 -8
-75 18 -11 21 -10 26 5 32 31 12 42 8 48 -17z m-6869 -7 c-3 -8 -6 -5 -6 6 -1
11 2 17 5 13 3 -3 4 -12 1 -19z m5893 -13 c0 -1 -12 -2 -26 -2 -17 0 -22 2
-13 7 10 7 39 3 39 -5z m-5903 -27 c-3 -8 -6 -5 -6 6 -1 11 2 17 5 13 3 -3 4
-12 1 -19z m180 -30 c-3 -8 -6 -5 -6 6 -1 11 2 17 5 13 3 -3 4 -12 1 -19z
m6940 0 c-3 -8 -6 -5 -6 6 -1 11 2 17 5 13 3 -3 4 -12 1 -19z m-6827 -28 c0
-3 -8 -6 -18 -6 -10 0 -18 8 -18 17 0 13 4 14 18 5 10 -6 18 -13 18 -16z m107
4 c-3 -3 -12 -4 -19 -1 -8 3 -5 6 6 6 11 1 17 -2 13 -5z m18 -14 c-3 -5 -12
-10 -18 -10 -7 0 -6 4 3 10 19 12 23 12 15 0z m-420 -50 c-9 -41 -17 -33 -9 9
4 17 9 30 11 27 3 -2 2 -19 -2 -36z m251 14 c1 -9 0 -13 -4 -10 -3 4 -7 14 -8
22 -1 9 0 13 4 10 3 -4 7 -14 8 -22z m-29 -26 c-3 -7 -5 -2 -5 12 0 14 2 19 5
13 2 -7 2 -19 0 -25z m333 -19 c0 -4 -7 -6 -15 -3 -8 4 -15 10 -15 15 0 4 7 6
15 3 8 -4 15 -10 15 -15z m-185 -10 c15 -14 -7 -10 -35 7 l-25 15 25 -7 c14
-3 29 -10 35 -15z m156 -6 c13 -17 13 -17 -6 -3 -11 8 -22 16 -24 17 -2 2 0 3
6 3 6 0 17 -8 24 -17z m-458 -8 c-1 -5 -10 -11 -20 -13 -15 -3 -16 -1 -3 7 12
9 10 11 -10 11 -15 0 -31 -5 -38 -12 -8 -8 -12 -9 -12 -1 0 6 6 14 13 17 20 8
72 2 70 -9z m273 0 c10 -8 14 -15 9 -15 -6 0 -15 4 -20 9 -6 5 -19 11 -30 14
-20 5 -19 5 1 6 11 0 29 -6 40 -14z m87 -2 c-7 -2 -19 -2 -25 0 -7 3 -2 5 12
5 14 0 19 -2 13 -5z m-268 -32 c-6 -5 -25 10 -25 20 0 5 6 4 14 -3 8 -7 12
-15 11 -17z m135 19 c0 -5 -4 -10 -10 -10 -5 0 -10 5 -10 10 0 6 5 10 10 10 6
0 10 -4 10 -10z m257 -22 c-3 -7 -5 -2 -5 12 0 14 2 19 5 13 2 -7 2 -19 0 -25z
m-317 16 c0 -8 -19 -13 -24 -6 -3 5 1 9 9 9 8 0 15 -2 15 -3z m177 0 c-3 -3
-12 -4 -19 -1 -8 3 -5 6 6 6 11 1 17 -2 13 -5z m-270 -46 c-3 -8 -6 -5 -6 6
-1 11 2 17 5 13 3 -3 4 -12 1 -19z m70 -10 c-3 -8 -6 -5 -6 6 -1 11 2 17 5 13
3 -3 4 -12 1 -19z m-124 5 c-23 -2 -64 -2 -90 0 -26 2 -7 3 42 3 50 0 71 -1
48 -3z m237 -3 c0 -5 -4 -10 -9 -10 -6 0 -13 5 -16 10 -3 6 1 10 9 10 9 0 16
-4 16 -10z m125 -32 c6 -4 0 -8 -12 -8 -16 0 -21 4 -16 15 3 9 8 12 12 8 3 -4
11 -11 16 -15z m72 -10 c-3 -7 -5 -2 -5 12 0 14 2 19 5 13 2 -7 2 -19 0 -25z
m5193 3 c0 -6 -4 -13 -10 -16 -17 -10 -11 -25 10 -25 23 0 25 -8 6 -32 -8 -11
-26 -18 -46 -18 -20 0 -39 -8 -50 -20 -15 -17 -21 -18 -53 -8 -34 11 -36 13
-21 29 14 16 13 18 -16 24 -31 7 -31 7 -13 27 14 16 25 19 57 14 32 -6 41 -3
53 14 15 21 83 30 83 11z m-5587 -18 c-7 -2 -19 -2 -25 0 -7 3 -2 5 12 5 14 0
19 -2 13 -5z m-106 -19 c-3 -3 -12 -4 -19 -1 -8 3 -5 6 6 6 11 1 17 -2 13 -5z
m3559 -12 c0 -10 -6 -19 -13 -19 -8 0 -9 6 -2 19 5 10 11 18 12 18 2 0 3 -8 3
-18z m-3604 1 c-6 -2 -9 -10 -6 -15 4 -7 2 -8 -5 -4 -13 9 -5 26 12 25 9 0 8
-2 -1 -6z m2611 -15 c70 -49 69 -34 17 -186 -26 -75 -66 -185 -90 -245 -23
-59 -40 -113 -37 -120 2 -6 -2 -18 -10 -25 -7 -7 -13 -19 -13 -25 0 -7 5 -6
11 3 9 12 10 12 5 -3 -3 -10 -6 -24 -6 -30 0 -7 -4 -6 -10 3 -8 13 -10 12 -11
-5 -1 -11 -1 -23 0 -27 2 -14 -35 6 -80 44 -26 21 -54 38 -63 38 -10 0 -25 21
-40 54 -44 100 -47 95 36 89 l73 -5 39 108 c88 249 129 354 137 354 6 0 24
-10 42 -22z m-2830 -9 c-8 -8 -13 -7 -18 2 -5 8 -4 10 3 5 7 -4 12 -2 12 5 0
7 3 9 7 6 4 -4 2 -12 -4 -18z m504 15 c-3 -3 -12 -4 -19 -1 -8 3 -5 6 6 6 11
1 17 -2 13 -5z m-380 -26 c-3 -8 -6 -5 -6 6 -1 11 2 17 5 13 3 -3 4 -12 1 -19z
m140 -10 c-3 -8 -6 -5 -6 6 -1 11 2 17 5 13 3 -3 4 -12 1 -19z m-237 2 c53 -1
55 -13 16 -85 -20 -37 -34 -71 -30 -76 3 -5 -10 -9 -29 -9 -22 0 -37 -6 -41
-15 -3 -8 -10 -15 -16 -15 -6 0 -8 5 -5 10 4 6 -4 19 -16 29 l-22 18 37 78
c33 68 40 76 59 71 12 -3 33 -6 47 -6z m440 -25 c0 -5 -5 -3 -10 5 -5 8 -10
20 -10 25 0 6 5 3 10 -5 5 -8 10 -19 10 -25z m3310 -23 c-6 -2 -8 -7 -6 -11 3
-4 -1 -8 -8 -8 -11 0 -12 5 -3 24 8 17 13 20 18 11 5 -7 4 -15 -1 -16z m-3667
-15 c-5 -8 -8 -7 -11 1 -3 10 -7 10 -18 1 -17 -14 -18 -3 -1 15 14 16 41 1 30
-17z m230 26 c-7 -2 -19 -2 -25 0 -7 3 -2 5 12 5 14 0 19 -2 13 -5z m148 -16
c-10 -9 -11 -8 -5 6 3 10 9 15 12 12 3 -3 0 -11 -7 -18z m-121 -3 c0 -5 -7
-19 -15 -30 -18 -24 -20 -48 -2 -38 8 5 8 2 -2 -9 -15 -18 -26 -23 -16 -7 3 6
4 10 1 10 -11 0 -45 -78 -38 -85 4 -5 2 -5 -4 -2 -18 11 -75 -4 -67 -17 3 -6
0 -6 -8 2 -7 6 -26 12 -41 12 -15 0 -28 5 -28 10 0 6 18 45 40 88 l40 77 70 0
c42 0 70 -4 70 -11z m325 -13 c-6 -5 -25 10 -25 20 0 5 6 4 14 -3 8 -7 12 -15
11 -17z m25 1 c0 -5 -7 -17 -15 -28 -14 -18 -14 -17 -4 9 12 27 19 34 19 19z
m37 -14 c-3 -8 -6 -5 -6 6 -1 11 2 17 5 13 3 -3 4 -12 1 -19z m33 2 c0 -5 -5
-10 -11 -10 -5 0 -7 5 -4 10 3 6 8 10 11 10 2 0 4 -4 4 -10z m-254 -27 c-10
-10 -19 5 -10 18 6 11 8 11 12 0 2 -7 1 -15 -2 -18z m6012 -4 c-3 -8 -7 -3
-11 10 -4 17 -3 21 5 13 5 -5 8 -16 6 -23z m-6472 -17 c-17 -16 -18 -16 -5 5
7 12 15 20 18 17 3 -2 -3 -12 -13 -22z m699 19 c3 -5 1 -12 -5 -16 -5 -3 -10
1 -10 9 0 18 6 21 15 7z m27 -23 c-7 -7 -12 -8 -12 -2 0 6 3 14 7 17 3 4 9 5
12 2 2 -3 -1 -11 -7 -17z m-392 -32 c0 -6 -7 -1 -15 10 -8 10 -15 23 -15 28 0
6 7 1 15 -10 8 -10 15 -23 15 -28z m647 13 c8 -8 20 -8 46 0 54 18 91 -5 46
-29 -19 -11 -19 -13 -4 -24 15 -11 14 -13 -9 -26 -20 -10 -32 -11 -50 -2 -16
7 -36 8 -54 2 -20 -5 -34 -4 -41 3 -16 16 -13 37 6 37 15 0 15 2 -1 19 -13 15
-14 20 -4 24 23 9 54 7 65 -4z m-679 -24 c-3 -3 -9 2 -12 12 -6 14 -5 15 5 6
7 -7 10 -15 7 -18z m172 21 c0 -3 -4 -8 -10 -11 -5 -3 -10 -1 -10 4 0 6 5 11
10 11 6 0 10 -2 10 -4z m239 1 c-2 -1 -13 -9 -24 -17 -19 -14 -19 -14 -6 3 7
9 18 17 24 17 6 0 8 -1 6 -3z m-54 -37 c3 -5 1 -10 -4 -10 -6 0 -11 5 -11 10
0 6 2 10 4 10 3 0 8 -4 11 -10z m-405 -4 c0 -3 -4 -8 -10 -11 -5 -3 -10 -1
-10 4 0 6 5 11 10 11 6 0 10 -2 10 -4z m7 -38 c-3 -8 -6 -5 -6 6 -1 11 2 17 5
13 3 -3 4 -12 1 -19z m-274 -5 c-7 -3 -13 -12 -14 -21 0 -11 -2 -13 -6 -4 -6
15 17 46 26 36 3 -4 0 -9 -6 -11z m-53 -28 c0 -5 -5 -3 -10 5 -5 8 -10 20 -10
25 0 6 5 3 10 -5 5 -8 10 -19 10 -25z m165 15 c3 -5 1 -10 -4 -10 -6 0 -11 5
-11 10 0 6 2 10 4 10 3 0 8 -4 11 -10z m162 -52 c-3 -8 -6 -5 -6 6 -1 11 2 17
5 13 3 -3 4 -12 1 -19z m-7 -29 c0 -6 -4 -7 -10 -4 -5 3 -10 11 -10 16 0 6 5
7 10 4 6 -3 10 -11 10 -16z m2142 -182 l16 -33 -66 -88 -65 -88 -14 27 c-8 14
-12 33 -9 41 10 26 108 174 115 174 4 0 14 -15 23 -33z"/>
<path d="M5090 6705 l-75 -22 -3 -92 c-3 -86 -2 -91 15 -83 10 5 51 17 91 27
l73 17 -7 82 c-3 44 -9 84 -13 87 -3 4 -40 -3 -81 -16z"/>
<path d="M5260 6556 c0 -2 7 -7 16 -10 8 -3 12 -2 9 4 -6 10 -25 14 -25 6z"/>
<path d="M5218 6533 c7 -3 16 -2 19 1 4 3 -2 6 -13 5 -11 0 -14 -3 -6 -6z"/>
<path d="M5608 5683 c7 -3 16 -2 19 1 4 3 -2 6 -13 5 -11 0 -14 -3 -6 -6z"/>
<path d="M5315 5660 l-30 -7 28 -7 c15 -5 42 -6 60 -3 17 2 40 0 50 -5 11 -5
17 -5 17 1 0 6 -17 15 -37 20 -42 12 -44 12 -88 1z m58 -7 c-7 -2 -19 -2 -25
0 -7 3 -2 5 12 5 14 0 19 -2 13 -5z"/>
<path d="M5456 5635 c4 -8 12 -15 19 -15 7 0 15 7 19 15 4 11 -1 15 -19 15
-18 0 -23 -4 -19 -15z"/>
<path d="M5280 5629 c0 -5 5 -7 10 -4 6 3 10 8 10 11 0 2 -4 4 -10 4 -5 0 -10
-5 -10 -11z"/>
<path d="M4738 5493 c7 -3 16 -2 19 1 4 3 -2 6 -13 5 -11 0 -14 -3 -6 -6z"/>
<path d="M6175 4524 c8 -16 15 -36 15 -44 0 -12 2 -12 9 -2 7 11 10 10 15 -3
10 -26 7 -42 -5 -25 -9 12 -10 12 -7 1 3 -8 10 -17 17 -19 9 -3 11 8 7 44 -3
27 -3 40 0 29 10 -35 21 -37 17 -3 l-3 33 11 -27 c6 -16 18 -28 26 -28 10 0
14 -6 10 -20 -3 -13 0 -20 9 -20 8 0 14 -10 14 -24 0 -29 15 -43 23 -22 7 19
-23 97 -34 90 -5 -3 -8 5 -6 17 1 12 -4 24 -11 26 -7 3 -10 -1 -6 -11 3 -9 1
-16 -5 -16 -6 0 -11 9 -11 20 0 13 -7 20 -19 20 -10 0 -33 3 -50 6 l-31 7 15
-29z m29 -9 c-4 -8 -8 -15 -10 -15 -2 0 -4 7 -4 15 0 8 4 15 10 15 5 0 7 -7 4
-15z"/>
<path d="M6233 4425 c-18 -19 -16 -22 9 -21 12 1 22 8 24 19 3 20 -16 22 -33
2z"/>
<path d="M6072 4338 c1 -41 2 -45 5 -18 3 19 11 39 19 43 8 4 14 13 14 20 0 7
-4 6 -10 -3 -6 -10 -10 -11 -10 -2 0 6 -4 12 -10 12 -6 0 -9 -23 -8 -52z"/>
<path d="M6117 4369 c-13 -47 -4 -134 13 -124 4 3 11 -10 15 -28 4 -17 9 -26
12 -19 3 7 0 27 -6 44 -6 17 -11 49 -12 72 0 23 -4 50 -8 60 -7 18 -8 18 -14
-5z m10 -76 c-2 -16 -4 -5 -4 22 0 28 2 40 4 28 2 -13 2 -35 0 -50z"/>
<path d="M6143 4377 c4 -13 46 -17 53 -5 3 4 2 8 -3 9 -4 0 -18 2 -31 3 -12 2
-21 -2 -19 -7z"/>
<path d="M6226 4375 c4 -8 8 -15 10 -15 2 0 4 7 4 15 0 8 -4 15 -10 15 -5 0
-7 -7 -4 -15z"/>
<path d="M6086 4290 c-4 -21 2 -46 19 -83 13 -28 24 -44 25 -34 0 9 -9 33 -19
53 -13 24 -18 47 -14 65 3 16 3 29 1 29 -3 0 -8 -14 -12 -30z"/>
<path d="M6275 4274 c-17 -13 -18 -16 -5 -24 21 -14 37 -12 43 4 9 24 -15 36
-38 20z"/>
<path d="M6320 4185 c0 -8 7 -15 15 -15 8 0 15 7 15 15 0 8 -7 15 -15 15 -8 0
-15 -7 -15 -15z"/>
<path d="M6403 4177 c5 -19 3 -26 -13 -30 -25 -6 -26 -26 -2 -29 9 0 -3 -4
-28 -8 l-45 -7 45 -3 45 -3 -45 -7 -45 -7 45 -3 45 -3 -45 -7 -45 -8 45 2 c25
0 44 5 42 11 -2 6 7 12 19 15 16 4 23 14 25 38 2 17 0 32 -6 32 -5 0 -6 -7 -3
-17 4 -11 3 -14 -6 -9 -6 4 -10 19 -9 33 2 15 -3 28 -11 31 -10 3 -12 -2 -8
-21z m25 -60 c2 -9 -2 -17 -9 -17 -7 0 -9 3 -6 7 4 3 1 13 -6 21 -10 13 -9 14
3 10 8 -2 16 -12 18 -21z"/>
<path d="M6440 4180 c0 -6 7 -10 15 -10 8 0 15 2 15 4 0 2 -7 6 -15 10 -8 3
-15 1 -15 -4z"/>
<path d="M6137 4148 c-3 -12 -2 -28 2 -36 5 -9 8 -1 9 22 2 41 -3 46 -11 14z"/>
<path d="M6161 4101 c-7 -12 -7 -22 -2 -26 5 -3 13 4 16 16 9 28 -1 36 -14 10z"/>
<path d="M6190 4101 c-7 -13 -7 -27 -2 -37 7 -13 10 -9 16 16 8 40 2 49 -14
21z"/>
<path d="M6216 4070 c4 -14 7 -42 8 -62 0 -22 3 -33 8 -25 11 17 10 99 -1 93
-5 -4 -12 0 -15 6 -4 7 -3 2 0 -12z"/>
<path d="M6338 4043 c-10 -2 -18 -11 -18 -19 0 -18 15 -18 34 1 17 17 43 20
48 5 2 -7 10 -6 21 2 16 12 13 14 -25 14 -24 1 -51 -1 -60 -3z"/>
<path d="M6200 4035 c0 -5 5 -17 10 -25 5 -8 10 -10 10 -5 0 6 -5 17 -10 25
-5 8 -10 11 -10 5z"/>
<path d="M6453 4028 c-23 -11 -29 -23 -15 -31 4 -2 18 6 32 19 26 25 20 30
-17 12z"/>
<path d="M6370 4000 c0 -6 4 -10 9 -10 5 0 16 -3 25 -6 10 -4 16 -1 16 8 0 7
-11 15 -25 16 -14 1 -25 -3 -25 -8z"/>
<path d="M6321 3978 c1 -7 5 -24 9 -38 8 -24 8 -24 9 -2 1 24 16 30 24 10 4
-9 6 -10 6 -1 1 13 -26 43 -40 43 -5 0 -9 -6 -8 -12z"/>
<path d="M6404 3962 c3 -5 0 -12 -6 -15 -7 -2 -10 -7 -7 -11 3 -4 12 0 18 8 9
11 9 16 0 22 -7 4 -9 3 -5 -4z"/>
<path d="M6240 3955 c0 -17 24 -75 31 -75 5 0 1 17 -8 38 -16 40 -23 50 -23
37z"/>
<path d="M7893 4273 l-42 -24 29 -55 c17 -30 30 -58 30 -63 0 -12 -50 -32 -62
-25 -7 5 -8 2 -3 -6 5 -8 3 -11 -6 -8 -8 2 -25 25 -39 51 -14 26 -29 47 -33
47 -5 0 -25 -12 -45 -27 -20 -15 -39 -29 -41 -30 -8 -5 53 -113 63 -113 5 0
24 10 44 22 l35 21 19 -23 c18 -22 18 -23 -2 -37 -20 -14 -20 -16 26 -103 45
-84 48 -88 71 -77 17 8 23 16 19 29 -3 10 -9 26 -12 36 -4 13 4 22 31 35 l35
17 19 -31 19 -30 25 23 26 23 -19 35 c-10 19 -30 59 -44 88 -27 57 -31 59 -62
37 -19 -13 -22 -12 -33 11 -6 14 -11 26 -11 27 0 1 20 13 45 27 25 14 45 29
45 34 0 18 -62 116 -73 115 -7 -1 -31 -12 -54 -26z"/>
<path d="M910 3890 c0 -5 7 -10 15 -10 8 0 15 5 15 10 0 6 -7 10 -15 10 -8 0
-15 -4 -15 -10z"/>
<path d="M8030 3750 c-8 -5 -10 -10 -5 -10 6 0 17 5 25 10 8 5 11 10 5 10 -5
0 -17 -5 -25 -10z"/>
<path d="M5480 3310 c0 -5 5 -10 10 -10 6 0 10 5 10 10 0 6 -4 10 -10 10 -5 0
-10 -4 -10 -10z"/>
<path d="M5500 3269 c0 -5 5 -7 10 -4 6 3 10 8 10 11 0 2 -4 4 -10 4 -5 0 -10
-5 -10 -11z"/>
<path d="M4240 2440 c-9 -6 -10 -10 -3 -10 6 0 15 5 18 10 8 12 4 12 -15 0z"/>
<path d="M1648 3118 l-58 -20 -1 -49 c-1 -27 -2 -61 -3 -76 -1 -26 4 -29 59
-45 99 -27 95 -29 95 60 l0 78 50 13 c28 7 50 17 50 21 0 7 -60 25 -115 35
-11 1 -46 -6 -77 -17z"/>
<path d="M216 7385 c-9 -26 -7 -32 5 -12 6 10 9 21 6 23 -2 3 -7 -2 -11 -11z"/>
<path d="M2864 7353 c-10 -21 -28 -51 -40 -68 -11 -16 -33 -56 -48 -88 -26
-52 -28 -60 -15 -83 12 -23 11 -31 -14 -77 l-27 -51 57 -58 57 -58 -27 -56
c-31 -63 -35 -50 41 -131 17 -19 32 -40 32 -47 0 -7 -11 -34 -24 -62 l-24 -49
22 -21 c11 -11 36 -37 55 -57 l34 -37 -27 -56 -28 -57 51 -51 c28 -28 51 -60
51 -71 0 -11 -11 -39 -24 -61 l-24 -42 39 -42 c22 -24 36 -47 32 -56 -6 -16
33 -3 169 57 36 16 71 29 76 29 6 0 12 5 14 12 3 9 18 6 54 -9 l49 -21 18 50
19 50 -51 52 c-28 28 -51 58 -51 66 1 8 11 35 24 60 l24 45 -49 56 c-54 63
-58 79 -29 127 11 18 20 38 20 44 0 7 -23 36 -52 65 l-51 52 27 60 26 59 -50
50 c-27 27 -50 57 -50 66 0 9 11 38 25 64 21 39 25 43 25 22 0 -18 32 -56 122
-147 l121 -121 55 24 55 24 29 -27 28 -27 76 37 c41 21 74 41 72 46 -7 19 -89
101 -96 97 -5 -3 -19 -28 -32 -56 l-24 -51 -82 86 c-160 169 -359 370 -366
370 -3 0 -25 21 -48 48 -23 26 -47 47 -54 47 -7 0 -19 -16 -26 -35 -21 -52
-38 -64 -59 -40 -10 11 -33 35 -52 53 l-36 33 -19 -38z m97 -487 c-14 -36 -22
-33 -9 5 6 16 12 28 14 26 3 -2 0 -16 -5 -31z"/>
<path d="M377 6646 c-7 -17 -12 -12 157 -171 65 -60 157 -148 206 -195 48 -47
111 -107 139 -133 28 -27 51 -53 51 -58 0 -5 7 -9 15 -9 8 0 15 -7 15 -17 0
-9 3 -14 6 -11 3 3 45 -35 95 -85 71 -72 92 -88 102 -78 9 9 3 20 -32 51 -25
22 -39 40 -33 40 27 0 7 28 -75 105 l-87 82 11 49 c6 27 15 57 18 67 5 13 3
16 -8 12 -8 -4 -21 -29 -28 -57 l-14 -51 -89 85 -90 84 17 59 c9 32 15 60 13
62 -2 2 -32 -8 -66 -22 -34 -14 -66 -25 -71 -23 -4 2 -50 44 -101 93 -139 135
-144 139 -151 121z m684 -643 c13 -16 12 -17 -3 -4 -17 13 -22 21 -14 21 2 0
10 -8 17 -17z"/>
<path d="M8571 6546 c35 -37 65 -62 67 -57 3 10 -99 112 -121 120 -6 2 18 -26
54 -63z"/>
<path d="M8347 6540 c-15 -16 -27 -32 -27 -36 0 -12 193 -195 203 -191 22 7
49 55 41 70 -18 30 -168 187 -179 187 -6 0 -24 -13 -38 -30z"/>
<path d="M340 6201 c0 -22 37 -76 64 -91 14 -7 27 -19 30 -27 4 -10 1 -11 -13
-4 -15 8 -17 6 -16 -12 1 -18 8 -22 38 -22 36 0 42 -7 38 -42 -3 -18 16 -16
23 2 5 15 -14 41 -79 109 -16 17 -42 47 -57 66 -15 19 -27 29 -28 21z"/>
<path d="M346 6122 c6 -4 15 -41 18 -81 4 -41 10 -79 12 -83 8 -12 -7 -98 -16
-98 -5 0 -11 8 -13 18 -4 16 -5 16 -6 -1 0 -10 4 -28 10 -39 9 -16 8 -23 -2
-29 -11 -7 -10 -9 4 -9 13 0 17 -9 17 -40 0 -22 5 -40 10 -40 7 0 10 64 8 196
-4 198 -7 214 -43 214 -6 0 -5 -4 1 -8z"/>
<path d="M342 6020 c0 -14 2 -19 5 -12 2 6 2 18 0 25 -3 6 -5 1 -5 -13z"/>
<path d="M507 5997 c-3 -7 -3 -26 -1 -43 3 -22 2 -24 -4 -10 -5 11 -11 15 -15
10 -3 -6 -2 -16 4 -24 11 -19 12 -33 0 -26 -11 7 -25 -23 -22 -49 1 -14 -1
-16 -7 -7 -6 9 -12 6 -22 -13 -7 -14 -11 -28 -7 -31 9 -9 -14 -65 -25 -58 -5
3 -9 0 -8 -7 1 -8 -1 -25 -6 -38 -7 -23 -8 -24 -15 -5 -6 12 -7 5 -4 -21 3
-22 2 -33 -2 -25 -3 8 -12 20 -18 27 -9 9 -12 5 -11 -17 1 -15 4 -26 9 -23 4
2 7 -1 7 -6 0 -20 19 -11 25 12 6 20 31 74 119 256 16 34 23 58 17 64 -5 5 -7
16 -3 25 5 13 7 12 14 -4 8 -19 8 -19 5 0 -3 23 -23 32 -30 13z"/>
<path d="M400 5949 c0 -5 5 -9 11 -9 5 0 8 -4 5 -8 -3 -5 1 -9 8 -9 20 0 15
25 -6 30 -10 3 -18 1 -18 -4z"/>
<path d="M1164 5879 c-3 -6 10 -27 30 -47 28 -26 40 -32 48 -24 9 9 4 20 -22
47 -38 37 -45 41 -56 24z"/>
<path d="M405 5829 c0 -26 3 -50 7 -54 4 -4 6 1 6 11 -1 11 2 35 5 55 5 26 4
36 -5 36 -9 0 -13 -16 -13 -48z"/>
<path d="M2726 5510 c-4 -190 -7 -356 -5 -369 4 -24 28 -31 742 -210 l737
-186 88 30 87 30 3 71 3 71 -103 38 c-57 20 -251 90 -433 155 -181 65 -379
136 -439 159 l-109 40 -171 -65 c-201 -77 -237 -91 -293 -115 -88 -39 -83 -57
-84 264 -2 443 -13 486 -23 87z"/>
<path d="M8656 5646 c-20 -41 -36 -79 -36 -85 0 -6 30 -48 66 -93 37 -46 69
-89 71 -95 15 -39 23 2 23 118 l0 132 -37 48 c-20 27 -40 49 -44 49 -4 0 -24
-33 -43 -74z"/>
<path d="M340 5600 c0 -12 7 -35 16 -51 8 -17 13 -33 10 -36 -3 -3 -10 6 -15
21 -14 36 -22 33 -11 -5 5 -18 7 -35 5 -40 -3 -4 1 -10 7 -12 8 -4 7 -6 -4 -6
-11 -1 -15 -7 -11 -22 5 -19 7 -20 15 -4 6 9 11 23 12 30 1 7 7 19 13 27 24
29 24 62 -2 91 -29 32 -35 34 -35 7z m44 -42 c-3 -5 -12 -2 -20 6 -20 21 -17
28 5 14 11 -7 17 -16 15 -20z"/>
<path d="M7105 5379 c-10 -15 3 -25 16 -12 7 7 7 13 1 17 -6 3 -14 1 -17 -5z"/>
<path d="M2540 5361 c0 -5 7 -12 16 -15 14 -5 15 -4 4 9 -14 17 -20 19 -20 6z"/>
<path d="M210 5230 c8 -5 22 -10 30 -10 13 0 13 1 0 10 -8 5 -22 10 -30 10
-13 0 -13 -1 0 -10z"/>
<path d="M6090 5069 c0 -5 5 -7 10 -4 6 3 10 8 10 11 0 2 -4 4 -10 4 -5 0 -10
-5 -10 -11z"/>
<path d="M6135 4999 c-4 -6 -5 -12 -2 -15 2 -3 7 2 10 11 7 17 1 20 -8 4z"/>
<path d="M209 4895 c-3 -62 -1 -126 6 -142 2 -7 12 -13 20 -13 23 0 19 125 -6
171 l-18 34 -2 -50z"/>
<path d="M1787 4863 c-11 -39 -29 -124 -51 -237 l-23 -118 52 -56 52 -56 19
92 c10 51 21 92 25 92 4 0 37 -43 74 -95 66 -94 66 -96 63 -155 -2 -33 -6 -60
-10 -60 -5 0 -8 -13 -8 -30 0 -27 3 -30 34 -30 19 0 41 -2 49 -5 11 -5 16 18
27 110 7 63 10 118 7 122 -4 3 -7 -6 -7 -20 0 -39 -11 -33 -50 28 -19 30 -43
65 -53 78 -11 12 -37 54 -60 92 -22 39 -46 76 -54 83 -7 7 -20 26 -30 42 -9
17 -21 30 -26 30 -5 0 -6 9 -2 20 5 15 3 18 -8 14 -11 -4 -14 4 -12 35 3 44
-1 52 -8 24z"/>
<path d="M1040 4856 c0 -2 8 -10 18 -17 15 -13 16 -12 3 4 -13 16 -21 21 -21
13z"/>
<path d="M3236 4843 c-13 -44 -139 -963 -133 -969 2 -2 39 -7 82 -11 l78 -6
-4 424 c-3 279 -1 424 6 423 6 -1 55 -5 109 -8 55 -4 103 -9 108 -12 4 -3 8
-46 8 -95 0 -101 1 -103 80 -104 l45 0 -3 58 -4 57 43 0 42 0 -7 61 c-3 34 -6
78 -6 99 0 34 -2 37 -32 37 -139 2 -368 18 -368 25 0 5 -4 6 -10 3 -5 -3 -10
3 -10 14 0 26 -17 28 -24 4z"/>
<path d="M4274 4605 c10 -8 24 -16 30 -18 6 -2 7 -8 3 -13 -4 -5 -12 -2 -17 6
-5 8 -12 11 -17 7 -4 -5 -1 -12 7 -17 8 -6 10 -10 5 -10 -16 0 -6 -132 11
-149 20 -21 30 -4 11 17 -20 22 -23 88 -4 95 9 4 8 8 -3 16 -8 5 -11 14 -6 18
5 4 11 3 13 -3 4 -13 43 -7 43 7 0 10 -71 59 -85 59 -5 0 -1 -7 9 -15z"/>
<path d="M3946 4554 c6 -3 9 -25 6 -59 -3 -39 -1 -55 8 -55 9 0 10 13 7 45 -3
24 -3 46 1 49 10 5 44 -8 43 -17 -3 -24 1 -28 20 -22 14 5 19 3 15 -3 -3 -6
-2 -14 4 -17 15 -9 80 -14 80 -5 0 8 -171 90 -185 89 -6 0 -5 -2 1 -5z m144
-74 c8 -5 11 -10 5 -10 -5 0 -17 5 -25 10 -8 5 -10 10 -5 10 6 0 17 -5 25 -10z"/>
<path d="M4317 4523 c-11 -10 -8 -83 3 -83 6 0 10 20 10 45 0 46 -2 50 -13 38z"/>
<path d="M4339 4478 c-1 -24 -1 -115 -1 -203 0 -109 -2 -149 -8 -125 l-9 35 5
-40 c15 -138 16 -185 5 -185 -6 0 -11 -7 -11 -16 0 -8 5 -12 10 -9 6 4 10 -7
10 -24 0 -17 -4 -31 -10 -31 -5 0 -7 -13 -4 -29 7 -32 -3 -38 -72 -45 -21 -2
-47 -7 -56 -11 -9 -4 -23 -3 -30 1 -14 9 -19 10 -55 12 -28 2 -31 22 -3 22 11
0 20 7 20 15 0 8 -4 15 -10 15 -5 0 -10 -4 -10 -10 0 -5 -7 -10 -15 -10 -8 0
-15 -6 -15 -14 0 -9 -47 -31 -127 -60 -71 -26 -174 -63 -230 -84 -57 -20 -103
-40 -103 -43 0 -11 249 -20 267 -11 10 6 90 38 177 71 185 72 186 72 160 82
-15 6 -13 7 11 8 17 0 49 3 73 7 l42 6 0 359 c0 197 -2 359 -5 359 -3 0 -5
-19 -6 -42z"/>
<path d="M3981 4474 c0 -12 5 -33 12 -47 11 -20 17 -23 25 -15 15 15 16 58 2
58 -5 0 -10 -7 -10 -15 0 -26 -19 -16 -23 13 -3 20 -4 21 -6 6z"/>
<path d="M4049 4448 c-3 -78 4 -244 11 -248 6 -3 11 -38 12 -78 1 -40 5 -69
10 -64 4 4 3 48 -2 97 -14 135 -17 225 -8 225 4 0 8 8 8 18 0 15 -2 15 -11 2
-8 -11 -9 -6 -5 23 2 20 1 37 -5 37 -5 0 -9 -6 -10 -12z"/>
<path d="M4150 4445 c7 -8 19 -14 28 -13 23 4 26 -19 3 -25 -11 -3 -22 0 -24
6 -2 6 -11 8 -23 3 -16 -7 -14 -9 16 -20 19 -7 34 -17 33 -24 -2 -7 3 -12 11
-12 9 0 12 8 8 26 -4 20 -1 25 9 22 8 -3 14 -9 14 -14 0 -15 16 -34 28 -34 7
0 6 4 -3 10 -27 17 0 24 29 7 37 -22 47 -22 25 0 -19 19 -139 83 -156 83 -6 0
-6 -6 2 -15z"/>
<path d="M4075 4439 c-4 -6 -5 -12 -2 -15 2 -3 7 2 10 11 7 17 1 20 -8 4z"/>
<path d="M3958 4405 c-6 -28 3 -32 21 -11 8 10 8 16 -3 25 -11 9 -15 6 -18
-14z"/>
<path d="M1945 4163 c-56 -8 -46 -20 22 -27 37 -4 96 -11 131 -17 l62 -11 0
-77 0 -76 -77 3 c-43 2 -85 6 -93 9 -33 13 -70 14 -70 2 0 -7 -6 -4 -14 7 -21
28 -30 11 -34 -65 l-4 -68 146 -22 c135 -22 204 -23 252 -4 15 6 17 82 6 233
l-7 85 -120 17 c-122 17 -147 18 -200 11z"/>
<path d="M4051 4144 c0 -11 3 -14 6 -6 3 7 2 16 -1 19 -3 4 -6 -2 -5 -13z"/>
<path d="M4098 4108 c15 -15 16 -48 2 -48 -5 0 -10 -4 -10 -10 0 -17 14 -11
28 10 10 16 10 24 0 40 -7 11 -17 20 -22 20 -6 0 -5 -5 2 -12z"/>
<path d="M4150 4077 c0 -9 -4 -17 -10 -17 -5 0 -10 -4 -10 -10 0 -5 4 -10 9
-10 12 0 25 39 17 47 -3 4 -6 -1 -6 -10z"/>
<path d="M202 3989 c3 -61 4 -64 28 -64 23 0 25 4 26 43 1 36 -3 46 -28 63
l-29 21 3 -63z"/>
<path d="M4322 4020 c0 -14 2 -19 5 -12 2 6 2 18 0 25 -3 6 -5 1 -5 -13z"/>
<path d="M304 3943 c3 -33 29 -48 101 -58 l50 -7 -67 46 c-37 25 -72 46 -77
46 -5 0 -8 -12 -7 -27z"/>
<path d="M4080 3945 c0 -8 7 -15 15 -15 8 0 15 7 15 15 0 8 -7 15 -15 15 -8 0
-15 -7 -15 -15z"/>
<path d="M4240 3905 c0 -41 4 -55 14 -55 19 0 22 11 18 65 -3 30 -9 45 -18 45
-10 0 -14 -15 -14 -55z"/>
<path d="M4130 3896 c0 -8 7 -16 15 -20 10 -4 15 1 15 14 0 11 -7 20 -15 20
-8 0 -15 -6 -15 -14z"/>
<path d="M4080 3865 c0 -8 2 -15 4 -15 2 0 6 7 10 15 3 8 1 15 -4 15 -6 0 -10
-7 -10 -15z"/>
<path d="M7713 3318 c-27 -9 -32 -15 -27 -33 4 -18 0 -24 -19 -29 -14 -3 -32
-8 -40 -12 -9 -3 -16 3 -20 16 -5 19 -10 21 -39 15 -52 -12 -67 -22 -61 -46 4
-15 11 -19 27 -14 59 17 86 18 86 2 0 -10 -15 -20 -40 -27 -29 -8 -40 -16 -40
-30 0 -10 4 -21 9 -25 11 -6 251 52 263 63 4 4 5 18 1 31 -6 24 -14 24 -79 5
-14 -4 -23 0 -27 10 -5 12 4 18 36 27 55 14 56 15 50 39 -6 22 -28 24 -80 8z"/>
<path d="M8756 3261 c-4 -7 -5 -15 -2 -18 9 -9 19 4 14 18 -4 11 -6 11 -12 0z"/>
<path d="M8637 3122 c-16 -17 -16 -21 2 -58 10 -21 22 -53 25 -71 l7 -32 -47
-3 -47 -3 55 -38 c54 -37 55 -37 91 -22 33 13 36 18 31 44 -4 16 -1 32 5 35 6
4 11 32 11 63 0 53 -1 55 -24 49 -19 -5 -26 -1 -36 24 -14 35 -48 40 -73 12z"/>
<path d="M650 2974 c0 -31 3 -35 23 -32 17 2 23 11 25 36 3 29 1 32 -22 32
-23 0 -26 -4 -26 -36z"/>
<path d="M330 2964 c0 -28 3 -35 18 -32 11 2 18 14 20 36 3 27 0 32 -17 32
-17 0 -21 -6 -21 -36z"/>
<path d="M428 2932 c-18 -4 -20 -14 -22 -110 -1 -49 -1 -49 107 -55 68 -4 69
-4 64 19 -2 13 0 24 5 24 5 0 8 29 7 65 l-2 66 -71 -2 c-39 -2 -79 -4 -88 -7z
m36 -107 c-4 -8 -8 -15 -10 -15 -2 0 -4 7 -4 15 0 8 4 15 10 15 5 0 7 -7 4
-15z m84 -36 c-3 -8 -7 -3 -11 10 -4 17 -3 21 5 13 5 -5 8 -16 6 -23z"/>
<path d="M245 2867 c-24 -83 -24 -82 10 -83 17 -1 40 -4 53 -8 21 -7 22 -5 22
63 0 58 -3 70 -17 73 -10 2 -24 -3 -31 -12 -12 -13 -13 -13 -8 2 3 10 1 20 -3
22 -4 3 -16 -23 -26 -57z"/>
<path d="M3636 2813 c-6 -14 -5 -15 5 -6 7 7 10 15 7 18 -3 3 -9 -2 -12 -12z"/>
<path d="M198 2575 c-3 -164 -3 -165 45 -165 22 0 22 2 19 152 -3 155 -6 168
-44 168 -15 0 -17 -17 -20 -155z"/>
<path d="M7953 2703 l-52 -15 32 -35 c18 -19 44 -44 60 -55 l27 -19 0 70 c0
39 -3 71 -7 70 -5 0 -31 -7 -60 -16z"/>
<path d="M7726 2541 l-48 -49 48 -10 c90 -19 124 -24 124 -19 0 6 -71 127 -74
127 -1 0 -23 -22 -50 -49z"/>
<path d="M6990 2515 c7 -9 15 -13 17 -11 7 7 -7 26 -19 26 -6 0 -6 -6 2 -15z"/>
<path d="M6020 2384 c0 -29 16 -28 36 2 12 18 11 20 -11 22 -21 1 -25 -3 -25
-24z"/>
<path d="M6116 2325 c-16 -24 -16 -25 6 -25 39 0 51 14 30 34 -18 16 -20 15
-36 -9z"/>
<path d="M1911 2141 c-6 -11 -11 -42 -11 -70 0 -44 2 -49 19 -46 21 4 71 34
71 42 0 3 -12 2 -26 -1 -26 -7 -26 -6 -19 26 4 18 8 40 8 48 3 22 -30 24 -42
1z"/>
<path d="M7812 1770 l-33 -39 30 -60 c33 -64 71 -189 71 -232 0 -29 13 -28
-135 -14 l-70 6 34 -31 c28 -26 40 -31 74 -28 32 2 42 -1 45 -13 2 -10 -5 -19
-18 -22 -11 -3 -20 -10 -20 -16 0 -20 19 -11 51 24 18 19 35 33 37 30 3 -3 14
3 24 12 18 16 18 16 12 -2 -5 -11 -4 -16 3 -12 5 4 19 0 29 -8 26 -19 39 -19
20 1 -9 8 -16 21 -16 27 0 8 3 7 9 -2 6 -10 10 -10 16 -1 5 8 11 6 20 -6 18
-25 44 -11 41 21 -2 14 2 29 8 33 6 4 17 18 25 32 26 44 81 135 91 150 42 60
69 105 66 107 -3 3 -180 -41 -207 -52 -13 -5 -21 7 -39 55 -25 67 -24 66 -90
74 -43 5 -47 3 -78 -34z m211 -377 c-3 -7 -8 -13 -12 -13 -4 0 -8 6 -8 13 0 8
6 14 13 14 7 0 10 -6 7 -14z m-137 -5 c4 -6 3 -8 -4 -4 -6 3 -13 2 -17 -4 -3
-5 -11 -10 -16 -10 -11 0 12 29 23 30 4 0 10 -5 14 -12z"/>
<path d="M2210 1713 c107 -83 142 -100 279 -127 74 -14 135 -25 137 -24 1 2
-35 28 -79 59 -78 53 -88 57 -202 78 -66 12 -129 25 -140 28 -17 5 -16 2 5
-14z"/>
<path d="M7890 1335 c0 -2 8 -9 18 -14 14 -7 19 -6 19 3 0 6 -9 13 -19 13 -10
1 -18 0 -18 -2z"/>
<path d="M7981 1324 c0 -11 3 -14 6 -6 3 7 2 16 -1 19 -3 4 -6 -2 -5 -13z"/>
<path d="M8025 1331 c-3 -5 -2 -12 3 -15 5 -3 9 1 9 9 0 17 -3 19 -12 6z"/>
<path d="M7867 1323 c-4 -3 -7 -11 -7 -17 0 -6 5 -5 12 2 6 6 9 14 7 17 -3 3
-9 2 -12 -2z"/>
<path d="M7860 1276 c0 -8 4 -17 9 -20 5 -4 7 3 4 14 -6 23 -13 26 -13 6z"/>
<path d="M7501 1004 c0 -11 3 -14 6 -6 3 7 2 16 -1 19 -3 4 -6 -2 -5 -13z"/>
<path d="M7920 996 c0 -2 8 -10 18 -17 15 -13 16 -12 3 4 -13 16 -21 21 -21
13z"/>
<path d="M3165 900 c10 -11 20 -20 23 -20 3 0 -3 9 -13 20 -10 11 -20 20 -23
20 -3 0 3 -9 13 -20z"/>
<path d="M5026 907 c3 -10 9 -15 12 -12 3 3 0 11 -7 18 -10 9 -11 8 -5 -6z"/>
<path d="M7407 908 c2 -5 13 -8 24 -8 10 0 19 3 19 8 0 4 -11 7 -24 7 -13 0
-22 -3 -19 -7z"/>
<path d="M8143 913 c9 -2 23 -2 30 0 6 3 -1 5 -18 5 -16 0 -22 -2 -12 -5z"/>
<path d="M8238 893 c7 -3 16 -2 19 1 4 3 -2 6 -13 5 -11 0 -14 -3 -6 -6z"/>
<path d="M7300 879 c0 -5 5 -7 10 -4 6 3 10 8 10 11 0 2 -4 4 -10 4 -5 0 -10
-5 -10 -11z"/>
<path d="M8298 883 c7 -3 16 -2 19 1 4 3 -2 6 -13 5 -11 0 -14 -3 -6 -6z"/>
<path d="M4577 860 c-3 -11 -1 -20 4 -20 5 0 9 9 9 20 0 11 -2 20 -4 20 -2 0
-6 -9 -9 -20z"/>
<path d="M4780 853 c0 -22 -2 -25 -10 -13 -14 22 -12 7 5 -31 l14 -34 1 53 c0
28 -2 52 -5 52 -3 0 -5 -12 -5 -27z"/>
<path d="M6778 873 c7 -3 16 -2 19 1 4 3 -2 6 -13 5 -11 0 -14 -3 -6 -6z"/>
<path d="M8370 870 c-9 -6 -10 -10 -3 -10 6 0 15 5 18 10 8 12 4 12 -15 0z"/>
<path d="M1451 854 c0 -11 3 -14 6 -6 3 7 2 16 -1 19 -3 4 -6 -2 -5 -13z"/>
<path d="M1550 855 c0 -8 5 -15 10 -15 6 0 10 7 10 15 0 8 -4 15 -10 15 -5 0
-10 -7 -10 -15z"/>
<path d="M1706 840 c-8 -16 -10 -30 -5 -30 5 0 9 -25 9 -55 0 -30 5 -55 10
-55 6 0 10 24 10 54 0 34 5 56 13 59 10 4 10 6 0 6 -15 1 -18 31 -3 31 6 0 10
5 10 10 0 22 -29 8 -44 -20z"/>
<path d="M6497 856 c-8 -9 -31 -13 -61 -12 -26 2 -49 -1 -52 -6 -3 -4 104 -8
237 -8 133 0 240 2 237 6 -3 3 -85 5 -183 5 -153 0 -175 2 -165 15 16 18 6 18
-13 0z"/>
<path d="M6350 845 c0 -8 5 -15 11 -15 5 0 8 4 5 9 -4 5 0 12 6 14 8 3 6 6 -4
6 -10 1 -18 -6 -18 -14z"/>
<path d="M6872 848 c6 -18 28 -21 28 -4 0 9 -7 16 -16 16 -9 0 -14 -5 -12 -12z"/>
<path d="M5350 835 c-8 -9 -8 -15 -2 -15 12 0 26 19 19 26 -2 2 -10 -2 -17
-11z"/>
<path d="M6226 829 c-11 -11 -36 -22 -57 -25 -30 -5 -36 -10 -36 -30 0 -19 3
-22 18 -14 28 16 33 12 10 -7 l-22 -18 31 -115 c33 -128 34 -134 20 -125 -5 3
-10 1 -10 -4 0 -6 7 -11 15 -11 8 0 15 -7 15 -15 0 -13 108 -15 916 -15 831 0
916 1 910 16 -3 9 -6 18 -6 20 0 2 -4 4 -10 4 -10 0 -92 73 -191 173 -67 68
-89 80 -89 51 0 -8 -5 -12 -10 -9 -6 4 -8 15 -5 26 11 34 -7 43 -22 10 -13
-27 -17 -29 -30 -15 -8 8 -23 13 -32 10 -33 -9 -199 -17 -224 -11 -15 4 -27
13 -27 21 0 20 -29 17 -75 -6 -45 -23 -65 -25 -65 -7 0 8 -4 7 -10 -3 -8 -13
-10 -12 -10 3 0 9 -7 17 -15 17 -8 0 -15 -4 -15 -9 0 -4 -27 -11 -60 -14 -77
-9 -180 2 -180 18 0 8 -13 11 -37 9 -51 -4 -52 -5 -23 -13 14 -4 30 -4 37 1 9
7 11 4 8 -11 -2 -12 -1 -19 3 -17 4 2 8 -3 8 -13 0 -14 -9 -17 -46 -16 -27 0
-44 4 -43 11 1 7 -12 6 -40 -4 -42 -15 -103 -10 -92 7 2 5 -2 11 -10 15 -19 7
-19 26 0 26 8 0 15 4 15 8 0 5 -7 9 -15 9 -8 0 -15 -5 -15 -11 0 -6 -5 -4 -10
4 -7 12 -13 11 -34 -9 -14 -14 -29 -21 -33 -18 -3 4 -2 7 4 7 6 0 14 8 17 17
6 15 5 15 -13 -1 -22 -20 -26 -63 -4 -44 9 7 13 7 13 -1 0 -7 5 -9 10 -6 6 3
10 15 10 26 0 10 7 19 15 19 10 0 15 -10 15 -28 l0 -28 -80 -2 c-65 -2 -80 1
-80 13 0 8 -6 15 -12 15 -9 0 -8 4 2 10 13 8 13 10 -2 10 -11 0 -20 -10 -24
-26 -6 -22 -11 -25 -43 -22 -31 3 -36 7 -39 31 -2 19 1 27 12 27 9 0 16 -9 16
-20 0 -11 5 -20 10 -20 6 0 10 8 8 18 -2 11 3 17 15 16 9 -1 17 4 17 10 0 7
-7 13 -15 13 -8 0 -15 -4 -15 -9 0 -4 -5 -8 -11 -8 -5 0 -8 4 -5 9 3 4 -8 8
-24 7 -26 -1 -29 -4 -25 -26 4 -23 -8 -40 -29 -40 -6 0 -2 6 9 13 11 9 14 16
7 20 -5 4 -8 16 -5 28 6 20 10 20 268 17 145 -2 261 0 258 5 -2 4 -126 7 -275
7 -222 0 -269 -2 -265 -13 4 -11 -6 -14 -39 -12 -31 1 -44 -3 -44 -12 0 -7 -4
-13 -10 -13 -5 0 -8 6 -6 13 1 6 1 9 -1 5 -3 -5 -11 -8 -19 -8 -9 0 -13 4 -9
9 3 5 1 12 -5 16 -5 3 -10 -1 -10 -10 0 -8 8 -18 18 -22 9 -3 25 -14 34 -24
22 -22 11 -26 -65 -26 -48 0 -55 2 -46 13 6 8 8 14 4 14 -4 0 -2 7 5 15 15 18
-1 20 -18 3 -9 -9 -12 -9 -12 -1 0 7 9 15 21 18 23 8 21 30 -4 30 -34 0 -26
13 12 20 23 4 41 11 41 16 0 5 6 9 14 9 17 0 30 16 19 23 -5 2 -17 -4 -27 -14z
m155 -105 c9 -11 7 -14 -10 -14 -12 0 -21 -6 -21 -15 0 -8 -7 -15 -15 -15 -8
0 -15 6 -15 14 0 8 -8 17 -17 21 -17 6 -17 7 0 19 20 15 61 10 78 -10z m1394
-34 c3 -5 1 -10 -4 -10 -6 0 -11 5 -11 10 0 6 2 10 4 10 3 0 8 -4 11 -10z
m-68 -6 c-3 -3 -12 -4 -19 -1 -8 3 -5 6 6 6 11 1 17 -2 13 -5z"/>
<path d="M6297 829 c4 -13 8 -18 11 -10 2 7 -1 18 -6 23 -8 8 -9 4 -5 -13z"/>
<path d="M7840 841 c0 -6 16 -7 35 -4 24 4 44 0 70 -15 19 -12 35 -17 35 -12
0 4 -6 11 -12 13 -7 3 8 4 35 2 29 -2 45 0 41 6 -3 5 -28 8 -55 5 -27 -2 -46
0 -43 5 3 5 -20 9 -50 9 -31 0 -56 -4 -56 -9z"/>
<path d="M8439 839 c13 -5 36 -18 52 -30 16 -11 29 -16 29 -10 0 6 -4 11 -10
11 -5 0 -7 7 -3 15 3 9 2 15 -3 14 -5 -1 -11 -1 -14 0 -3 2 -21 4 -40 6 -30 3
-32 3 -11 -6z"/>
<path d="M3434 811 c-1 -17 4 -28 13 -28 9 0 11 7 7 21 -10 34 -19 37 -20 7z"/>
<path d="M4168 833 c6 -2 18 -2 25 0 6 3 1 5 -13 5 -14 0 -19 -2 -12 -5z"/>
<path d="M7259 822 c6 -12 16 -24 22 -28 8 -4 8 -1 0 14 -6 12 -16 24 -22 28
-8 4 -8 1 0 -14z"/>
<path d="M7458 833 c12 -2 32 -2 45 0 12 2 2 4 -23 4 -25 0 -35 -2 -22 -4z"/>
<path d="M1143 823 c-22 -4 -23 -9 -23 -84 0 -46 4 -79 10 -79 6 0 10 9 10 20
0 15 7 20 25 20 28 0 45 25 45 69 0 27 -23 63 -38 60 -4 -1 -17 -4 -29 -6z
m41 -29 c9 -23 7 -57 -3 -73 -8 -12 -12 -12 -25 -2 -25 21 -18 91 9 91 7 0 16
-7 19 -16z"/>
<path d="M1245 814 c-11 -12 -15 -30 -13 -63 3 -44 4 -46 36 -49 22 -2 34 2
38 13 10 24 -4 31 -20 10 -15 -21 -36 -12 -36 16 0 14 7 19 30 19 25 0 30 4
30 23 0 43 -35 60 -65 31z m45 -23 c0 -14 -6 -19 -20 -18 -31 2 -24 37 7 37 7
0 13 -9 13 -19z"/>
<path d="M1346 815 c-35 -36 -10 -124 33 -112 14 3 21 1 21 -9 0 -20 -27 -29
-45 -14 -12 10 -15 10 -15 -3 0 -28 53 -31 72 -3 4 6 8 41 8 79 0 51 -3 67
-14 67 -8 0 -21 3 -29 6 -8 3 -22 -2 -31 -11z m48 -21 c17 -45 -7 -97 -32 -72
-22 22 -12 88 13 88 7 0 16 -7 19 -16z"/>
<path d="M1613 823 c-21 -4 -23 -10 -23 -64 0 -33 4 -59 10 -59 6 0 10 20 10
44 0 44 19 74 40 61 5 -3 10 -28 10 -56 0 -27 5 -49 10 -49 14 0 12 104 -2
118 -12 12 -16 13 -55 5z"/>
<path d="M1776 814 c-16 -15 -21 -69 -10 -98 9 -23 61 -21 74 3 14 28 12 63
-6 89 -18 26 -37 28 -58 6z m48 -20 c16 -42 -7 -96 -34 -79 -11 7 -14 78 -3
88 11 12 31 7 37 -9z"/>
<path d="M4945 810 c10 -11 20 -20 23 -20 3 0 -3 9 -13 20 -10 11 -20 20 -23
20 -3 0 3 -9 13 -20z"/>
<path d="M5910 824 c0 -5 14 -15 30 -22 17 -8 28 -17 25 -22 -3 -4 5 -6 17 -2
13 3 19 1 15 -5 -4 -6 4 -8 20 -5 24 4 22 6 -18 19 -23 8 -53 22 -66 30 -13 8
-23 11 -23 7z"/>
<path d="M7378 823 c6 -2 18 -2 25 0 6 3 1 5 -13 5 -14 0 -19 -2 -12 -5z"/>
<path d="M8733 795 c0 -22 2 -30 4 -17 2 12 2 30 0 40 -3 9 -5 -1 -4 -23z"/>
<path d="M614 803 c3 -10 10 -37 16 -61 13 -52 29 -50 45 4 l12 39 8 -42 c11
-60 31 -55 46 12 7 30 15 55 19 55 4 0 12 -25 19 -55 15 -68 34 -71 48 -7 l10
47 8 -43 c7 -41 20 -60 32 -48 3 3 11 30 18 61 10 42 10 55 2 52 -7 -2 -13
-17 -15 -33 -5 -46 -19 -49 -26 -5 -9 57 -31 53 -43 -6 l-10 -48 -9 45 c-8 38
-13 45 -33 45 -20 0 -26 -8 -36 -40 l-12 -40 -7 43 c-5 25 -13 42 -21 42 -8 0
-18 -18 -23 -42 -9 -43 -14 -40 -26 15 -4 15 -11 27 -17 27 -6 0 -8 -8 -5 -17z"/>
<path d="M920 804 c0 -35 23 -104 36 -104 8 0 16 19 20 48 l8 47 13 -47 c8
-27 18 -48 23 -48 5 0 14 19 20 43 6 23 13 50 16 60 3 9 1 17 -4 17 -12 0 -22
-24 -22 -51 0 -10 -4 -19 -10 -19 -5 0 -10 9 -10 19 0 62 -35 68 -45 9 -6 -36
-8 -39 -15 -23 -5 11 -9 30 -9 43 -1 24 -21 31 -21 6z"/>
<path d="M1449 808 c-5 -44 -3 -108 3 -108 5 0 8 27 8 60 0 33 -2 60 -5 60 -3
0 -6 -6 -6 -12z"/>
<path d="M1550 760 c0 -33 4 -60 10 -60 6 0 10 27 10 60 0 33 -4 60 -10 60 -6
0 -10 -27 -10 -60z"/>
<path d="M3980 800 c-14 -11 -20 -20 -14 -20 6 0 19 9 29 20 23 25 17 25 -15
0z"/>
<path d="M4240 811 c0 -6 4 -13 10 -16 6 -3 7 1 4 9 -7 18 -14 21 -14 7z"/>
<path d="M4431 804 c0 -11 3 -14 6 -6 3 7 2 16 -1 19 -3 4 -6 -2 -5 -13z"/>
<path d="M5383 813 c-15 -6 -18 -43 -3 -43 5 0 7 7 4 14 -4 10 5 18 28 25 28
8 29 9 8 9 -14 0 -31 -2 -37 -5z"/>
<path d="M7300 811 c0 -10 50 -25 58 -16 3 3 -2 5 -12 5 -9 0 -14 5 -11 10 3
6 -3 10 -14 10 -12 0 -21 -4 -21 -9z"/>
<path d="M3751 794 c0 -11 3 -14 6 -6 3 7 2 16 -1 19 -3 4 -6 -2 -5 -13z"/>
<path d="M4277 796 c-4 -10 -1 -13 8 -9 8 3 12 9 9 14 -7 12 -11 11 -17 -5z"/>
<path d="M5562 780 c0 -19 2 -27 5 -17 2 9 2 25 0 35 -3 9 -5 1 -5 -18z"/>
<path d="M6261 794 c0 -11 3 -14 6 -6 3 7 2 16 -1 19 -3 4 -6 -2 -5 -13z"/>
<path d="M2380 791 c0 -5 7 -12 16 -15 14 -5 15 -4 4 9 -14 17 -20 19 -20 6z"/>
<path d="M2927 793 c-12 -11 -8 -50 6 -61 8 -7 65 -11 144 -11 110 0 133 2
144 16 8 9 9 14 3 11 -14 -9 -109 -11 -174 -4 -37 4 -47 3 -30 -3 22 -8 19 -9
-20 -10 -56 -1 -70 7 -66 42 3 29 3 31 -7 20z"/>
<path d="M3625 790 c-3 -5 -1 -10 4 -10 6 0 11 5 11 10 0 6 -2 10 -4 10 -3 0
-8 -4 -11 -10z"/>
<path d="M3900 796 c0 -2 7 -7 16 -10 8 -3 12 -2 9 4 -6 10 -25 14 -25 6z"/>
<path d="M5410 790 c-24 -15 -7 -19 20 -5 15 8 19 14 10 14 -8 1 -22 -3 -30
-9z"/>
<path d="M5919 795 c-1 -3 -3 -9 -4 -15 -1 -5 -3 -14 -4 -19 -1 -9 -56 -9 -66
0 -10 11 -55 -3 -55 -17 0 -8 -7 -14 -15 -14 -8 0 -15 -4 -15 -9 0 -6 -18 -9
-40 -8 -22 1 -40 5 -40 10 0 5 -20 7 -44 5 -24 -3 -50 -2 -58 3 -10 5 -14 2
-15 -12 -1 -10 4 -19 12 -19 8 0 17 -5 20 -10 4 -6 1 -9 -7 -8 -15 3 -16 -44
-5 -152 3 -36 6 -68 7 -73 0 -12 610 -8 610 5 0 5 -7 8 -15 5 -10 -5 -16 4
-20 31 -3 20 -12 60 -20 88 -8 28 -15 60 -15 72 0 11 -5 33 -11 49 -7 15 -13
39 -15 52 -5 42 -12 34 -19 -24 l-7 -56 -45 3 c-24 1 -47 6 -50 11 -3 6 -1 7
5 3 6 -3 15 1 20 10 6 11 11 13 16 5 12 -19 26 -12 26 15 0 14 4 23 10 19 6
-3 10 -2 10 4 0 8 -16 9 -63 2 -5 0 -5 -5 -2 -11 3 -5 2 -10 -4 -10 -5 0 -12
6 -14 13 -3 7 -6 4 -6 -6 -1 -10 -5 -15 -11 -12 -6 4 -10 -5 -10 -19 0 -26
-22 -36 -34 -17 -7 10 -25 9 -43 -2 -9 -6 -11 -3 -7 8 4 8 1 22 -6 30 -11 13
-8 15 19 15 17 0 32 3 32 8 5 24 6 52 3 52 -2 0 -5 -2 -5 -5z m121 -55 c0 -5
-2 -10 -4 -10 -3 0 -8 5 -11 10 -3 6 -1 10 4 10 6 0 11 -4 11 -10z m-175 -38
c-8 -8 -25 10 -25 26 0 13 2 13 14 -4 8 -10 13 -21 11 -22z m240 8 c3 -5 1
-10 -4 -10 -6 0 -11 5 -11 10 0 6 2 10 4 10 3 0 8 -4 11 -10z m-255 -20 c11
-8 9 -9 -12 -8 -16 1 -28 6 -28 10 0 11 22 10 40 -2z"/>
<path d="M6040 796 c0 -2 9 -6 20 -9 11 -3 20 -1 20 4 0 5 -9 9 -20 9 -11 0
-20 -2 -20 -4z"/>
<path d="M6320 790 c0 -5 10 -15 23 -21 22 -12 22 -12 3 10 -21 23 -26 26 -26
11z"/>
<path d="M6925 791 c-3 -5 0 -13 6 -17 7 -4 9 -3 5 4 -3 5 0 13 6 15 9 4 10 6
1 6 -6 1 -14 -3 -18 -8z"/>
<path d="M2977 777 c-3 -8 3 -14 15 -14 16 -2 17 1 8 13 -15 17 -17 17 -23 1z"/>
<path d="M5345 780 c3 -5 8 -10 11 -10 2 0 4 5 4 10 0 6 -5 10 -11 10 -5 0 -7
-4 -4 -10z"/>
<path d="M5850 773 c0 -14 2 -15 9 -4 5 7 14 10 20 7 6 -4 11 -2 11 3 0 6 -9
11 -20 11 -12 0 -20 -7 -20 -17z"/>
<path d="M6205 765 c0 -14 3 -25 8 -25 4 0 7 11 7 25 0 14 -3 25 -7 25 -5 0
-8 -11 -8 -25z"/>
<path d="M7221 774 c0 -11 3 -14 6 -6 3 7 2 16 -1 19 -3 4 -6 -2 -5 -13z"/>
<path d="M7680 775 c-9 -11 -10 -19 -3 -26 8 -8 13 -7 17 0 4 6 2 11 -5 11 -8
0 -8 4 1 15 7 8 10 15 7 15 -2 0 -10 -7 -17 -15z"/>
<path d="M8526 783 c-3 -3 2 -12 12 -19 10 -8 12 -13 5 -14 -7 0 -13 -9 -13
-19 0 -11 6 -22 13 -24 6 -3 3 -6 -8 -6 -12 -1 -26 -6 -32 -12 -16 -16 -98 -6
-180 24 -56 20 -79 24 -103 17 -31 -9 -60 -4 -60 10 0 4 12 6 28 4 27 -4 27
-4 -3 7 -16 5 -83 11 -148 12 -91 2 -120 -1 -126 -12 -5 -8 -16 -11 -25 -8
-22 9 -20 28 2 21 14 -5 14 -4 2 4 -10 8 -18 8 -27 0 -7 -5 -28 -10 -47 -11
l-35 -1 32 -25 c17 -15 58 -52 92 -84 33 -32 84 -79 112 -104 29 -25 50 -49
47 -54 -3 -5 4 -9 14 -9 11 0 22 -7 26 -15 4 -13 36 -15 203 -15 126 0 203 4
213 11 13 9 12 10 -2 5 -12 -3 -35 14 -75 56 -32 34 -68 70 -80 81 -13 12 -23
27 -23 35 0 7 28 -11 63 -41 34 -30 73 -63 86 -73 13 -10 36 -31 51 -46 27
-27 33 -28 129 -28 l101 0 0 95 c0 55 -4 95 -10 95 -5 0 -35 12 -67 26 -32 15
-68 30 -81 33 -13 4 -31 20 -40 36 -22 39 -38 55 -46 48z m-446 -43 c0 -15 -7
-20 -24 -20 -14 0 -28 5 -32 12 -5 7 -3 8 6 3 9 -6 12 -4 8 6 -4 10 2 15 18
17 18 1 24 -3 24 -18z m-240 0 c0 -5 -2 -10 -4 -10 -3 0 -8 5 -11 10 -3 6 -1
10 4 10 6 0 11 -4 11 -10z m125 1 c16 -7 14 -9 -15 -14 -37 -8 -52 -1 -30 13
17 11 18 11 45 1z m-87 -13 c16 -16 15 -28 -2 -28 -7 0 -16 9 -19 20 -6 23 3
26 21 8z m682 2 c0 -5 -5 -10 -11 -10 -5 0 -7 5 -4 10 3 6 8 10 11 10 2 0 4
-4 4 -10z m-324 -15 c-23 -17 -50 -20 -41 -5 4 6 10 8 14 6 4 -3 13 -1 21 5
23 14 27 10 6 -6z m49 -19 c-11 -7 -28 -13 -38 -13 -21 0 -10 13 18 20 36 8
40 7 20 -7z m53 -4 c8 -6 2 -9 -18 -9 -20 0 -26 3 -18 9 7 4 15 8 18 8 3 0 11
-4 18 -8z m237 -2 c-3 -5 -11 -10 -16 -10 -6 0 -7 5 -4 10 3 6 11 10 16 10 6
0 7 -4 4 -10z m-38 -6 c-3 -3 -12 -4 -19 -1 -8 3 -5 6 6 6 11 1 17 -2 13 -5z
m-137 -24 c0 -5 -4 -10 -10 -10 -5 0 -10 5 -10 10 0 6 5 10 10 10 6 0 10 -4
10 -10z"/>
<path d="M2350 776 c0 -2 7 -7 16 -10 8 -3 12 -2 9 4 -6 10 -25 14 -25 6z"/>
<path d="M3270 747 c0 -41 8 -51 26 -32 18 18 18 26 -1 19 -8 -4 -15 -2 -15 4
0 6 4 12 9 14 5 2 3 9 -5 16 -12 11 -14 7 -14 -21z"/>
<path d="M4974 772 c6 -11 -6 -16 -26 -13 -5 0 -8 -3 -8 -9 0 -14 13 -13 35 3
14 11 15 16 5 22 -9 5 -11 4 -6 -3z"/>
<path d="M7330 770 c-8 -5 -10 -10 -5 -10 6 0 17 5 25 10 8 5 11 10 5 10 -5 0
-17 -5 -25 -10z"/>
<path d="M549 754 c-9 -11 -23 -14 -46 -11 -25 4 -33 2 -33 -9 0 -10 -12 -14
-40 -14 -33 0 -40 3 -40 20 0 11 -4 20 -10 20 -5 0 -10 -18 -10 -40 0 -22 -4
-40 -10 -40 -5 0 -7 6 -4 14 3 8 1 17 -4 20 -8 5 -15 -34 -25 -136 -2 -16 1
-28 5 -28 10 0 112 42 186 76 l52 25 -2 59 c-1 33 -3 60 -4 60 -1 0 -8 -7 -15
-16z m-16 -71 c-7 -2 -21 -2 -30 0 -10 3 -4 5 12 5 17 0 24 -2 18 -5z"/>
<path d="M2245 760 c-13 -6 -15 -9 -5 -9 8 0 22 4 30 9 18 12 2 12 -25 0z"/>
<path d="M4117 757 c-3 -9 -1 -28 5 -42 13 -28 30 -34 22 -7 -5 14 -4 14 4 2
6 -8 9 -17 6 -21 -5 -9 -43 -8 -42 1 0 3 0 13 -1 23 -1 17 -2 17 -31 1 -34
-21 -33 -31 2 -14 22 10 22 10 4 -4 -11 -9 -29 -13 -40 -11 -23 6 -35 -1 -51
-26 -36 -57 -70 -106 -84 -120 -9 -9 -23 -26 -31 -38 -13 -20 -23 -22 -90 -20
-138 5 -750 -14 -750 -23 0 -4 305 -7 677 -6 l677 3 24 75 c13 41 31 89 38
107 19 43 19 43 -26 43 -38 0 -52 12 -30 25 6 3 10 11 10 17 0 6 -12 1 -26
-13 -21 -19 -38 -24 -97 -27 -64 -3 -76 -1 -109 22 -21 14 -39 22 -39 18 -1
-4 -4 7 -8 23 -5 24 -8 26 -14 12z"/>
<path d="M5179 762 c11 -8 10 -11 -5 -15 -15 -4 -14 -5 5 -6 22 -1 23 -2 8
-18 -13 -16 -13 -20 -1 -31 15 -13 19 -6 15 27 -2 8 2 10 11 5 9 -6 8 0 -3 16
-9 13 -22 26 -30 28 -12 3 -12 2 0 -6z"/>
<path d="M7418 763 c7 -3 16 -2 19 1 4 3 -2 6 -13 5 -11 0 -14 -3 -6 -6z"/>
<path d="M2080 749 c0 -5 5 -7 10 -4 6 3 10 8 10 11 0 2 -4 4 -10 4 -5 0 -10
-5 -10 -11z"/>
<path d="M2448 753 c-28 -3 -38 -9 -38 -22 0 -14 -7 -16 -37 -13 -21 2 -43 9
-50 14 -7 6 -19 4 -32 -4 -26 -16 -22 -33 8 -32 14 0 18 -3 12 -9 -7 -7 -19
-7 -36 1 -32 15 -38 15 -29 0 4 -6 3 -8 -4 -4 -9 6 -313 -189 -320 -206 -2 -5
-10 -8 -18 -8 -9 0 -12 -4 -9 -10 4 -6 76 -10 184 -10 140 0 181 3 197 15 10
8 37 15 59 16 31 2 34 3 12 6 -27 4 -26 5 30 52 108 88 69 81 472 84 l360 2
31 30 c34 33 40 51 10 35 -22 -12 -370 -13 -369 -2 3 17 -2 32 -8 31 -5 -1
-20 -1 -35 0 -22 1 -28 6 -29 24 -1 17 -3 15 -10 -10 -8 -26 -15 -33 -34 -33
-14 0 -25 5 -25 10 0 7 -36 10 -101 9 -90 -1 -102 1 -123 20 -12 11 -24 20
-27 19 -2 -1 -21 -3 -41 -5z m359 -65 c-3 -7 -5 -2 -5 12 0 14 2 19 5 13 2 -7
2 -19 0 -25z"/>
<path d="M4915 750 c-9 -15 4 -30 23 -29 15 1 14 2 -1 6 -11 3 -16 11 -13 19
6 16 0 19 -9 4z"/>
<path d="M5935 750 c-3 -5 -1 -10 4 -10 6 0 11 5 11 10 0 6 -2 10 -4 10 -3 0
-8 -4 -11 -10z"/>
<path d="M6510 750 c0 -5 5 -10 11 -10 5 0 7 5 4 10 -3 6 -8 10 -11 10 -2 0
-4 -4 -4 -10z"/>
<path d="M6547 747 c3 -5 16 -7 29 -4 13 2 25 1 26 -3 2 -5 8 -2 15 5 9 10 3
13 -32 11 -24 0 -41 -5 -38 -9z"/>
<path d="M6738 739 c-14 -15 -15 -19 -4 -19 8 0 18 5 21 10 3 6 16 10 28 10
27 -1 63 -26 47 -33 -6 -3 -5 -4 2 -2 7 1 12 8 11 14 -2 6 5 11 15 11 14 0 15
2 2 10 -12 8 -12 10 -1 10 8 0 12 2 9 5 -8 9 -38 -6 -32 -16 3 -5 0 -9 -5 -9
-6 0 -11 6 -11 14 0 21 -61 17 -82 -5z"/>
<path d="M7020 750 c0 -5 5 -10 10 -10 6 0 10 5 10 10 0 6 -4 10 -10 10 -5 0
-10 -4 -10 -10z"/>
<path d="M8625 750 c-13 -6 -15 -9 -5 -9 8 0 22 4 30 9 18 12 2 12 -25 0z"/>
<path d="M8715 750 l-40 -7 43 -2 c23 0 42 4 42 9 0 6 -1 9 -2 9 -2 -1 -21 -5
-43 -9z"/>
<path d="M2188 734 c-26 -13 -38 -34 -20 -34 10 1 56 40 51 44 -2 2 -16 -2
-31 -10z"/>
<path d="M4540 722 c-5 -13 -7 -28 -4 -34 4 -6 3 -9 -2 -6 -27 16 -48 -12 -78
-103 -17 -52 -35 -99 -38 -105 -4 -6 -5 -14 -1 -18 8 -8 1107 -8 1129 1 9 3
11 8 6 12 -8 5 -28 130 -35 219 -1 19 -3 20 -35 6 -53 -22 -179 -19 -219 6
l-32 19 -21 -27 c-12 -15 -23 -22 -26 -17 -3 7 -29 9 -68 7 -66 -4 -65 -4
-104 46 l-17 23 -23 -24 c-17 -18 -20 -27 -11 -32 8 -5 10 -4 5 3 -4 7 -1 12
8 12 9 0 16 -5 16 -11 0 -6 7 -8 16 -5 8 3 13 2 10 -2 -2 -4 -81 -8 -176 -10
-111 -1 -169 2 -165 8 4 6 3 19 0 30 -6 17 -8 18 -21 6 -16 -16 -19 -40 -4
-31 6 3 10 1 10 -5 0 -7 -7 -9 -16 -6 -9 3 -18 6 -20 6 -3 0 -2 5 1 10 3 6 1
10 -4 10 -18 0 -12 18 7 22 9 3 -4 6 -30 9 -42 4 -48 1 -58 -19z m711 -40 c-7
-2 -18 1 -23 6 -8 8 -4 9 13 5 13 -4 18 -8 10 -11z m112 -163 c-4 -4 -6 13 -3
39 l5 47 3 -39 c2 -21 0 -42 -5 -47z m7 -34 c0 -8 -4 -15 -10 -15 -5 0 -7 7
-4 15 4 8 8 15 10 15 2 0 4 -7 4 -15z"/>
<path d="M1902 723 c1 -10 0 -44 0 -75 l-2 -57 -218 -3 -218 -3 -49 -31 c-52
-33 -112 -53 -100 -34 3 5 13 10 21 10 8 0 14 4 14 8 0 5 18 15 41 22 22 8 42
17 45 22 3 5 -179 8 -405 8 -225 -1 -411 -4 -413 -8 -2 -4 -30 -20 -63 -35
-33 -15 -67 -32 -75 -37 -35 -23 -85 -40 -114 -41 -26 0 -28 -2 -11 -9 11 -5
331 -9 710 -9 776 0 695 -8 833 82 40 26 75 47 79 47 3 0 20 11 37 24 17 12
46 31 65 41 27 13 31 19 20 27 -10 7 -8 8 8 3 25 -7 42 12 18 21 -9 4 -14 13
-11 20 6 16 -10 28 -19 14 -8 -13 -162 -13 -170 0 -10 16 -25 11 -23 -7z"/>
<path d="M1070 710 c0 -5 5 -10 10 -10 6 0 10 5 10 10 0 6 -4 10 -10 10 -5 0
-10 -4 -10 -10z"/>
<path d="M1500 710 c0 -5 5 -10 10 -10 6 0 10 5 10 10 0 6 -4 10 -10 10 -5 0
-10 -4 -10 -10z"/>
<path d="M6250 712 c0 -12 19 -26 26 -19 2 2 -2 10 -11 17 -9 8 -15 8 -15 2z"/>
<path d="M6775 710 c-3 -5 -1 -10 4 -10 6 0 11 5 11 10 0 6 -2 10 -4 10 -3 0
-8 -4 -11 -10z"/>
<path d="M4915 700 c3 -5 8 -10 11 -10 2 0 4 5 4 10 0 6 -5 10 -11 10 -5 0 -7
-4 -4 -10z"/>
<path d="M218 503 c7 -3 16 -2 19 1 4 3 -2 6 -13 5 -11 0 -14 -3 -6 -6z"/>
<path d="M1868 483 c7 -3 16 -2 19 1 4 3 -2 6 -13 5 -11 0 -14 -3 -6 -6z"/>
<path d="M2473 483 c31 -2 83 -2 115 0 31 2 5 3 -58 3 -63 0 -89 -1 -57 -3z"/>
<path d="M2853 483 c37 -2 96 -2 130 0 34 2 4 3 -68 3 -71 0 -99 -1 -62 -3z"/>
<path d="M418 403 c12 -2 32 -2 45 0 12 2 2 4 -23 4 -25 0 -35 -2 -22 -4z"/>
<path d="M528 403 c6 -2 18 -2 25 0 6 3 1 5 -13 5 -14 0 -19 -2 -12 -5z"/>
<path d="M8198 400 c40 -5 85 -4 100 0 18 6 -7 8 -73 8 l-100 -1 73 -7z"/>
</g>
</svg>
