<?xml version="1.0" standalone="no"?>
<!DOCTYPE svg PUBLIC "-//W3C//DTD SVG 20010904//EN"
 "http://www.w3.org/TR/2001/REC-SVG-20010904/DTD/svg10.dtd">
<svg version="1.0" xmlns="http://www.w3.org/2000/svg"
 width="640.000000pt" height="640.000000pt" viewBox="0 0 640.000000 640.000000"
 preserveAspectRatio="xMidYMid meet">

<g transform="translate(0.000000,640.000000) scale(0.100000,-0.100000)"
fill="#000000" stroke="none">
<path d="M3835 6388 c-2 -7 -6 -42 -10 -78 -15 -158 -82 -462 -139 -627 -23
-69 -24 -73 -6 -73 31 0 50 11 50 29 0 9 18 68 40 131 22 63 40 133 41 155 1
34 2 36 8 15 7 -22 8 -19 13 20 6 47 29 169 54 280 8 36 14 86 14 113 0 46 -1
47 -30 47 -17 0 -32 -6 -35 -12z"/>
<path d="M4070 6398 c-1 -28 -48 -275 -71 -368 -25 -102 -93 -323 -125 -403
-6 -16 -1 -18 41 -15 l47 3 34 90 c68 179 145 485 161 635 l6 60 -47 0 c-25 0
-46 -1 -46 -2z"/>
<path d="M4480 6385 c0 -8 6 -15 14 -15 16 0 29 -27 20 -41 -3 -5 2 -9 10 -9
10 0 16 -9 16 -26 0 -16 4 -23 11 -18 6 3 9 17 6 30 -2 14 0 27 4 30 9 5 13
-17 11 -76 l-1 -35 8 35 c5 19 11 59 14 88 l6 52 -59 0 c-47 0 -60 -3 -60 -15z"/>
<path d="M4952 6380 c0 -14 2 -19 5 -12 2 6 2 18 0 25 -3 6 -5 1 -5 -13z"/>
<path d="M5055 6355 c-4 -25 -5 -48 -2 -51 2 -3 8 16 12 41 3 26 4 49 2 52 -3
3 -9 -16 -12 -42z"/>
<path d="M4951 6274 c0 -11 3 -14 6 -6 3 7 2 16 -1 19 -3 4 -6 -2 -5 -13z"/>
<path d="M5027 6248 c-3 -24 -8 -59 -12 -78 l-6 -35 14 37 c19 50 29 118 18
118 -5 0 -11 -19 -14 -42z"/>
<path d="M4927 6273 c-4 -3 -7 -20 -6 -37 l1 -31 8 35 c9 36 8 45 -3 33z"/>
<path d="M4971 6225 c0 -11 4 -27 9 -35 9 -13 10 -13 9 0 0 8 -4 24 -9 35 l-9
20 0 -20z"/>
<path d="M1343 6170 c-24 -10 -43 -22 -43 -25 0 -3 13 1 28 9 16 8 44 13 61
11 28 -4 31 -2 21 10 -15 19 -16 19 -67 -5z"/>
<path d="M1150 6172 c0 -4 18 -7 39 -7 22 0 34 3 28 7 -16 10 -67 10 -67 0z"/>
<path d="M4902 6145 c0 -16 2 -22 5 -12 2 9 2 23 0 30 -3 6 -5 -1 -5 -18z"/>
<path d="M4930 6140 c0 -5 5 -10 10 -10 6 0 10 5 10 10 0 6 -4 10 -10 10 -5 0
-10 -4 -10 -10z"/>
<path d="M4552 6113 c-6 -16 -18 -53 -28 -83 -23 -75 -84 -227 -132 -332 l-41
-88 39 0 39 0 35 113 c29 91 76 275 102 395 6 31 -1 28 -14 -5z"/>
<path d="M5001 6104 c0 -11 3 -14 6 -6 3 7 2 16 -1 19 -3 4 -6 -2 -5 -13z"/>
<path d="M4991 6054 c0 -11 3 -14 6 -6 3 7 2 16 -1 19 -3 4 -6 -2 -5 -13z"/>
<path d="M1174 6023 c-15 -20 -23 -33 -16 -29 13 8 56 66 49 66 -3 0 -17 -17
-33 -37z"/>
<path d="M4867 6013 c-4 -3 -7 -16 -6 -27 0 -19 1 -19 10 3 10 24 8 36 -4 24z"/>
<path d="M1406 5995 c10 -32 26 -77 40 -115 11 -31 13 -32 13 -10 1 14 -13 52
-29 85 -17 33 -28 51 -24 40z"/>
<path d="M4966 5985 c-3 -9 -6 -22 -5 -28 0 -7 5 -1 10 12 5 13 8 26 5 28 -2
2 -6 -3 -10 -12z"/>
<path d="M1066 5955 c6 -43 45 -116 52 -97 2 8 13 5 33 -9 31 -22 58 -17 38 7
-6 8 -17 14 -23 14 -7 0 -20 6 -30 13 -17 12 -17 16 -2 52 22 51 15 54 -13 5
-23 -42 -35 -52 -24 -22 4 10 2 14 -3 9 -5 -5 -14 7 -22 30 l-12 38 6 -40z"/>
<path d="M4840 5930 c0 -5 5 -10 10 -10 6 0 10 5 10 10 0 6 -4 10 -10 10 -5 0
-10 -4 -10 -10z"/>
<path d="M4930 5891 c0 -25 6 -27 13 -6 4 8 2 17 -3 20 -6 4 -10 -3 -10 -14z"/>
<path d="M4826 5881 c-4 -7 -5 -15 -2 -18 9 -9 19 4 14 18 -4 11 -6 11 -12 0z"/>
<path d="M4900 5884 c0 -3 5 -14 10 -25 12 -21 3 -49 -10 -30 -3 6 -6 -3 -6
-21 0 -18 -3 -46 -8 -63 -4 -16 4 -3 18 29 24 57 26 116 5 116 -5 0 -9 -3 -9
-6z"/>
<path d="M4791 5764 c0 -11 3 -14 6 -6 3 7 2 16 -1 19 -3 4 -6 -2 -5 -13z"/>
<path d="M4761 5694 c0 -11 3 -14 6 -6 3 7 2 16 -1 19 -3 4 -6 -2 -5 -13z"/>
<path d="M4858 5703 c7 -3 16 -2 19 1 4 3 -2 6 -13 5 -11 0 -14 -3 -6 -6z"/>
<path d="M4850 5661 c0 -7 -6 -11 -14 -8 -8 3 -22 -1 -33 -8 -17 -13 -17 -14
4 -9 15 4 22 1 26 -13 3 -15 6 -13 16 11 6 16 9 31 6 34 -3 3 -5 0 -5 -7z"/>
<path d="M4760 5620 l-45 -7 53 -1 c29 -1 52 2 52 8 0 6 -3 9 -7 8 -5 0 -28
-4 -53 -8z"/>
<path d="M950 5262 c1 -269 3 -334 13 -322 32 39 95 42 98 5 5 -56 2 -80 -9
-94 -12 -14 -13 -13 -9 7 4 19 3 21 -8 12 -20 -17 -53 -3 -70 28 -13 25 -14
18 -15 -90 0 -94 3 -120 16 -133 15 -14 18 -14 34 0 11 10 29 14 54 10 26 -3
43 1 53 10 8 8 23 15 34 15 10 0 19 4 19 9 0 5 12 12 26 15 23 6 26 10 20 39
-3 18 -13 37 -21 43 -9 6 -20 44 -26 90 -11 75 -23 99 -41 88 -4 -3 -8 3 -8
12 0 10 13 29 30 43 24 21 30 34 31 71 1 25 5 61 10 80 4 19 11 62 14 94 10
101 11 102 160 112 50 3 110 8 135 9 117 9 230 8 283 -2 37 -8 75 -9 103 -4
40 8 46 6 64 -16 14 -18 17 -35 14 -71 -17 -182 -17 -249 1 -303 23 -68 29
-249 8 -249 -7 0 -13 -3 -13 -6 0 -10 23 -48 37 -63 8 -7 12 -19 9 -27 -3 -7
2 -18 10 -25 12 -9 13 -31 9 -113 -5 -83 -2 -110 13 -151 17 -45 23 -52 70
-70 29 -11 52 -26 52 -34 0 -11 3 -11 15 -1 8 7 22 9 31 6 15 -6 15 -8 -1 -26
-10 -11 -13 -20 -8 -20 6 0 11 -15 10 -33 0 -18 9 -54 22 -79 13 -27 20 -56
16 -70 -3 -12 -7 -48 -8 -80 -3 -42 -1 -55 8 -51 7 2 22 -5 33 -17 l19 -21 6
22 c4 14 11 20 21 16 8 -3 18 -2 21 3 4 6 13 6 26 0 11 -6 24 -8 29 -5 5 3 15
-14 21 -37 8 -27 14 -36 16 -25 6 25 23 21 24 -5 1 -20 2 -21 6 -4 4 17 7 15
18 -11 16 -38 57 -66 95 -66 16 0 27 -4 24 -9 -3 -4 6 -3 20 4 29 13 35 30 9
22 -10 -2 -8 1 5 7 26 14 27 22 7 43 -16 15 -20 36 -7 36 4 0 7 11 7 24 0 15
-5 22 -12 19 -12 -5 -14 2 -16 55 -1 27 25 74 34 61 4 -6 5 9 4 35 -3 46 8 63
18 26 3 -11 19 -25 37 -31 29 -11 30 -12 13 -26 -13 -10 -15 -16 -5 -19 6 -3
9 -11 6 -16 -4 -7 -2 -8 4 -4 7 4 12 1 12 -8 0 -22 9 -20 37 5 20 20 23 20 29
6 3 -9 11 -14 18 -10 7 4 6 1 -1 -9 -11 -13 -9 -15 17 -16 35 -1 39 12 10 30
-12 8 -20 24 -20 39 0 17 -9 32 -25 43 -14 9 -26 26 -26 39 -1 17 -2 18 -6 5
-5 -19 -23 -25 -23 -8 0 6 -7 10 -15 10 -9 0 -27 12 -41 26 -24 23 -25 27 -11
42 9 9 19 29 22 45 8 29 25 37 25 11 0 -9 9 -23 20 -32 12 -10 22 -27 23 -39
1 -22 17 -33 17 -13 0 6 5 10 11 10 6 0 8 -8 5 -17 -5 -16 -5 -16 8 0 8 10 16
17 18 16 7 -6 33 17 34 29 3 37 5 42 17 42 7 0 23 14 36 30 12 17 30 29 39 28
11 -2 18 5 20 20 2 12 10 22 18 22 8 0 14 5 14 10 0 6 7 10 15 10 8 0 15 7 15
15 0 8 5 15 11 15 5 0 8 -4 4 -10 -3 -5 5 -16 19 -25 14 -9 26 -26 28 -38 2
-16 10 -22 28 -22 20 0 26 6 30 30 6 28 7 29 14 8 4 -13 14 -23 23 -23 13 0
13 -2 2 -17 -12 -14 -12 -16 0 -12 8 3 23 -3 34 -14 15 -15 21 -16 34 -5 14
11 15 10 8 -12 l-8 -25 21 25 c17 20 23 23 33 13 10 -10 10 -13 1 -13 -21 0
-13 -27 10 -33 29 -8 35 -3 43 36 4 17 11 50 17 72 9 35 11 37 18 19 5 -12 14
-73 21 -137 12 -111 13 -117 35 -117 31 0 55 -10 49 -21 -3 -5 2 -20 11 -34
21 -32 16 -37 -26 -25 -18 5 -37 7 -41 4 -11 -7 -1 -49 22 -94 l18 -35 1 33
c0 31 13 42 25 22 3 -5 17 -10 30 -10 34 0 40 -18 16 -44 -12 -12 -21 -35 -21
-50 0 -39 36 -86 66 -86 28 0 29 7 9 34 -8 11 -15 31 -15 45 0 25 0 25 14 6
11 -16 46 -116 46 -132 0 -2 -8 -3 -17 -4 -15 0 -15 -2 2 -8 21 -9 38 6 28 22
-3 5 -1 12 5 16 7 4 2 48 -14 136 -23 119 -23 134 -10 175 8 25 20 65 26 90 7
25 17 51 22 58 15 17 79 12 86 -8 3 -8 10 -18 14 -21 5 -3 10 -21 10 -38 1
-37 18 -48 45 -32 15 9 12 10 -12 4 -26 -6 -28 -4 -17 9 16 20 65 17 89 -5 10
-9 52 -30 93 -48 91 -38 236 -53 258 -26 11 13 8 16 -17 22 -19 4 -46 25 -72
56 l-42 50 29 -7 c82 -20 117 -35 178 -79 36 -26 66 -53 66 -60 0 -7 -20 -42
-45 -79 l-45 -67 6 -132 c3 -73 10 -153 16 -180 14 -66 -6 -97 -62 -97 -22 0
-40 -4 -40 -10 0 -5 6 -10 14 -10 8 0 24 -11 37 -25 13 -13 48 -36 77 -51 29
-14 51 -31 49 -37 -5 -17 -74 -35 -133 -36 -36 -1 -59 -7 -78 -22 -27 -21 -30
-39 -4 -23 7 5 54 9 104 9 69 0 90 -3 87 -13 -3 -7 -17 -15 -32 -18 -30 -6
-101 -35 -101 -41 0 -17 45 -45 88 -53 68 -12 125 -37 120 -51 -4 -11 -42 -24
-143 -51 -22 -6 -46 -12 -52 -14 -35 -10 24 -54 72 -54 32 0 40 -16 12 -24
-55 -15 -92 -6 -141 33 -47 37 -51 38 -73 24 -12 -8 -21 -18 -19 -22 3 -4 -20
-27 -50 -51 -46 -37 -54 -48 -54 -76 0 -51 28 -112 86 -189 82 -107 80 -106
126 -54 l40 44 -22 -37 c-18 -33 -20 -42 -10 -78 6 -23 29 -61 51 -85 21 -23
39 -47 39 -53 0 -6 7 -9 16 -5 16 6 74 -50 74 -71 0 -5 2 -7 5 -4 3 2 27 -17
55 -44 49 -47 70 -58 70 -37 0 5 5 7 10 4 6 -4 8 -11 5 -16 -4 -5 -1 -9 6 -9
6 0 27 -14 47 -31 24 -22 37 -27 42 -19 4 7 10 8 13 3 3 -5 -10 -26 -29 -46
-41 -43 -39 -44 15 -17 26 14 48 19 65 14 30 -7 31 -12 10 -42 -24 -35 -11
-36 31 -2 43 34 47 36 39 15 -5 -13 -2 -14 22 -5 16 6 33 15 39 19 17 14 76
31 70 21 -10 -17 11 -11 46 13 19 12 44 43 56 68 16 33 71 93 188 205 90 86
163 160 160 162 -3 3 -13 -2 -23 -11 -31 -28 -33 -19 -4 13 109 119 153 236
116 306 -36 67 -102 66 -148 -3 -14 -21 -26 -33 -26 -28 0 24 52 85 72 85 17
0 19 2 7 16 -9 12 -22 14 -48 8 -20 -4 -45 -8 -56 -9 -21 -2 -50 -67 -41 -92
4 -8 -3 -13 -19 -14 -45 -3 -48 -4 -56 -24 -10 -27 -11 -85 -1 -85 4 0 13 5
19 11 7 7 12 1 16 -20 4 -16 20 -45 36 -63 27 -31 33 -33 90 -32 47 1 59 -2
51 -11 -5 -6 -7 -15 -3 -18 3 -4 0 -7 -8 -8 -8 0 -36 -27 -63 -60 -27 -32 -52
-59 -57 -59 -4 0 10 26 32 59 45 68 48 81 15 81 -17 0 -27 -9 -37 -32 -11 -28
-65 -112 -90 -142 -4 -5 -13 10 -20 33 -8 26 -17 40 -25 37 -7 -3 -14 -1 -16
4 -2 5 -8 -2 -14 -15 -11 -22 -10 -24 5 -15 13 6 18 5 18 -4 0 -8 -12 -13 -31
-12 -21 1 -31 -4 -32 -14 -2 -35 -5 -40 -23 -40 -40 0 -81 22 -81 43 0 12 -10
37 -23 56 -41 63 -47 76 -47 102 0 15 -7 32 -15 39 -14 12 -12 17 17 49 l33
36 -35 -32 c-19 -17 -47 -36 -62 -42 -33 -12 -36 -27 -8 -36 21 -7 24 -30 10
-75 -9 -27 -13 -19 -11 20 1 14 -5 34 -13 45 -14 19 -15 19 -35 1 -33 -30 -24
-10 12 26 17 18 33 40 35 48 2 8 11 22 20 30 14 14 15 13 3 -3 -8 -9 -10 -21
-6 -25 4 -4 10 -1 12 6 3 6 9 10 14 6 5 -3 8 -1 7 5 -4 12 63 100 76 101 5 0
24 11 43 26 19 14 38 22 46 18 9 -6 9 -4 -1 8 -10 13 -10 18 -1 24 8 4 9 3 5
-4 -11 -19 17 -13 44 8 29 22 45 26 34 8 -5 -7 3 -5 16 4 14 9 24 22 22 28 -1
6 2 9 7 5 6 -3 35 8 66 26 40 22 62 29 81 25 16 -4 30 -1 39 8 8 8 20 16 27
19 29 10 -11 26 -92 38 -93 13 -145 7 -136 -16 3 -8 -11 -34 -33 -59 l-38 -44
0 97 c0 53 -4 96 -9 97 -21 2 -44 17 -44 28 0 14 -41 36 -66 36 -8 0 -13 -4
-9 -9 9 -16 -29 -18 -41 -2 -9 12 -15 13 -26 3 -8 -6 -17 -9 -20 -7 -3 3 -17
1 -31 -4 -15 -6 -29 -6 -32 -2 -6 11 19 21 53 21 17 0 23 3 14 8 -9 6 -2 17
25 38 20 16 39 29 42 30 3 0 22 7 43 16 42 19 88 81 88 120 0 25 -3 28 -35 28
-30 0 -35 -3 -35 -23 0 -12 -14 -38 -30 -57 -26 -30 -30 -31 -25 -12 4 13 15
85 25 160 10 75 18 125 19 109 1 -24 44 -107 56 -107 3 0 2 30 -1 68 l-5 67
19 -30 c21 -34 52 -62 52 -48 0 5 -4 13 -9 19 -5 5 -12 32 -15 59 l-5 50 14
-50 c13 -49 13 -47 12 80 -1 72 2 148 7 170 8 40 8 40 -20 -14 -17 -32 -39
-58 -51 -62 -29 -10 -29 1 -2 30 25 26 19 37 -10 21 -13 -6 -21 -7 -21 -1 0 5
9 13 20 16 12 4 32 24 46 46 22 36 24 44 14 80 -6 23 -14 38 -17 35 -7 -7 -33
13 -33 25 0 5 6 9 14 9 7 0 19 7 26 15 19 22 30 8 30 -38 0 -61 18 -34 28 43
5 35 7 72 4 82 -4 18 -13 18 -59 1 -20 -8 -15 12 7 32 16 14 17 20 8 27 -8 5
-1 8 18 8 23 0 36 7 48 25 9 14 23 25 31 25 8 0 21 12 30 28 12 22 15 23 14 7
-2 -34 1 -45 11 -45 6 0 10 7 10 16 0 12 7 15 29 12 27 -4 28 -3 20 20 -11 29
3 57 31 65 19 5 19 3 -5 -19 -21 -20 -24 -27 -15 -44 14 -26 17 -25 16 2 -1
14 6 24 17 26 16 3 17 1 7 -18 -11 -21 -11 -21 14 -5 14 10 33 14 45 10 10 -3
22 -2 25 4 3 5 15 7 26 4 13 -3 20 0 21 8 1 8 4 1 8 -16 11 -46 20 394 18 845
l-2 405 -2267 2 -2268 2 0 -337z m2590 288 c0 -5 -5 -10 -11 -10 -5 0 -7 5 -4
10 3 6 8 10 11 10 2 0 4 -4 4 -10z m1785 -70 l0 -35 -100 2 c-55 1 -112 2
-127 2 -25 1 -28 5 -28 36 l0 36 128 -3 127 -3 0 -35z m-1768 -6 c-3 -3 -12
-4 -19 -1 -8 3 -5 6 6 6 11 1 17 -2 13 -5z m143 -39 c-7 -9 -15 -13 -17 -11
-7 7 7 26 19 26 6 0 6 -6 -2 -15z m-30 -60 c-7 -8 -18 -15 -24 -15 -6 0 -2 7
8 15 25 19 32 19 16 0z m56 0 c17 -16 14 -18 -10 -9 -9 3 -16 10 -16 15 0 13
9 11 26 -6z m-1284 -41 c46 -32 55 -59 26 -78 -14 -9 -21 -6 -33 12 -53 74
-188 67 -240 -12 -26 -40 -37 -102 -25 -145 31 -115 157 -157 251 -82 38 31
39 31 59 13 20 -18 20 -18 -8 -44 -50 -48 -88 -60 -168 -56 -63 3 -77 7 -111
34 -133 107 -116 307 32 376 63 29 161 21 217 -18z m563 17 c47 -22 99 -74
114 -114 15 -39 14 -121 -3 -161 -18 -43 -71 -103 -110 -123 -18 -9 -55 -16
-87 -16 -71 0 -133 33 -175 94 -26 38 -29 50 -29 124 0 72 3 86 28 123 54 82
172 115 262 73z m536 -17 c35 -33 36 -40 8 -55 -18 -9 -25 -7 -48 15 -30 28
-50 33 -69 14 -26 -26 -12 -56 52 -113 81 -71 103 -113 87 -166 -32 -106 -145
-126 -214 -38 -26 33 -26 34 -7 53 18 19 19 18 53 -18 38 -40 61 -45 89 -19
33 30 23 71 -29 117 -94 81 -103 94 -103 143 0 36 6 50 30 75 28 27 36 30 76
25 32 -3 55 -13 75 -33z m1577 10 c59 -29 80 -57 61 -80 -17 -21 -27 -18 -70
21 -33 29 -47 35 -85 35 -52 0 -94 -19 -123 -55 -107 -137 20 -322 177 -260
23 10 49 27 57 38 14 20 15 20 34 3 18 -17 19 -20 5 -42 -37 -55 -154 -82
-237 -55 -48 16 -113 89 -127 143 -30 109 10 206 103 253 69 34 136 34 205 -1z
m-1412 -19 c-5 -19 -11 -25 -23 -21 -11 5 -14 2 -9 -10 5 -14 4 -15 -9 -4 -19
15 -2 42 21 33 8 -3 14 -2 13 3 -3 18 1 37 7 31 4 -3 3 -18 0 -32z m208 -30
c17 -33 49 -99 70 -147 22 -49 42 -88 46 -88 3 0 12 17 19 38 19 56 122 262
131 262 13 0 31 -88 51 -250 10 -88 15 -158 10 -163 -5 -5 -17 -7 -27 -5 -14
2 -20 20 -31 93 -25 180 -17 177 -87 36 -33 -68 -65 -124 -71 -124 -11 0 -8
-6 -75 137 -28 60 -53 106 -55 104 -9 -8 -35 -219 -30 -229 4 -5 11 -9 16 -9
6 0 18 -8 27 -17 16 -16 16 -16 0 -10 -9 3 -32 -2 -50 -11 -28 -14 -30 -17
-13 -20 41 -7 49 -12 37 -24 -9 -9 -15 -9 -24 0 -23 23 -38 14 -31 -20 6 -29
4 -31 -9 -20 -13 10 -16 7 -22 -25 -3 -21 -6 -131 -6 -244 0 -242 0 -242 -80
-237 -78 4 -83 16 -76 198 3 80 2 172 -3 205 -7 55 -8 58 -18 35 -14 -32 -82
-137 -83 -128 0 4 9 22 20 40 30 49 26 67 -8 35 -15 -15 -31 -27 -35 -27 -7 0
3 62 12 70 8 7 34 54 62 110 20 42 27 101 21 170 -2 14 -2 44 -2 68 1 24 -5
51 -12 60 -11 13 -11 14 0 8 9 -5 23 0 38 15 18 17 27 20 35 12 6 -6 19 -9 28
-6 9 4 13 3 9 -2 -4 -4 1 -20 12 -35 11 -15 17 -30 13 -33 -12 -12 20 -37 47
-37 24 0 27 -3 23 -22 -3 -13 -24 -42 -46 -65 -23 -24 -38 -43 -34 -43 5 0 72
38 94 54 1 1 7 42 13 91 19 151 42 266 52 263 5 -2 24 -30 42 -63z m641 -17
c3 -46 2 -139 -2 -208 -7 -116 -9 -125 -29 -128 -20 -3 -21 2 -27 130 -3 73
-3 168 0 211 5 72 7 77 29 77 21 0 23 -5 29 -82z m-895 58 c0 -3 -4 -8 -10
-11 -5 -3 -10 -1 -10 4 0 6 5 11 10 11 6 0 10 -2 10 -4z m-2520 -57 c0 -24
-23 -21 -28 4 -2 10 3 17 12 17 10 0 16 -9 16 -21z m2543 -66 c-7 -2 -19 -2
-25 0 -7 3 -2 5 12 5 14 0 19 -2 13 -5z m-2553 -68 c0 -8 -9 -15 -20 -15 -20
0 -26 11 -13 23 12 13 33 7 33 -8z m2128 -12 c-5 -25 -28 -28 -28 -4 0 12 6
21 16 21 9 0 14 -7 12 -17z m-28 -53 c0 -5 -2 -10 -4 -10 -3 0 -8 5 -11 10 -3
6 -1 10 4 10 6 0 11 -4 11 -10z m-553 -66 c-9 -9 -28 6 -21 18 4 6 10 6 17 -1
6 -6 8 -13 4 -17z m503 -115 c0 -5 -7 -9 -15 -9 -15 0 -20 12 -9 23 8 8 24 -1
24 -14z m125 -19 c-2 -4 2 -16 10 -26 8 -11 14 -14 15 -6 0 8 19 12 58 12 87
0 97 -14 97 -145 0 -90 -3 -107 -21 -132 -15 -20 -19 -34 -13 -45 10 -17 49
-180 49 -203 0 -24 -29 -17 -36 9 -3 13 -15 64 -27 112 -19 77 -25 89 -44 92
-23 3 -23 2 -23 -112 0 -96 -3 -116 -15 -116 -13 0 -15 32 -16 223 -1 122 -4
236 -8 252 l-7 30 -18 -27 -18 -27 -34 34 c-19 19 -34 41 -34 48 0 15 27 42
50 49 17 6 42 -10 35 -22z m-1052 -29 c43 -17 52 -59 52 -261 0 -168 -2 -189
-21 -225 -20 -38 -24 -40 -72 -43 l-50 -3 -4 263 c-2 145 -2 266 0 271 4 10
66 9 95 -2z m357 -16 c0 -24 -3 -25 -60 -25 l-60 0 0 -100 0 -100 49 0 c35 0
51 -4 55 -15 7 -20 -14 -28 -64 -23 l-40 4 0 -113 0 -112 57 -3 c34 -2 58 -8
61 -15 3 -10 -16 -13 -72 -13 l-76 0 0 188 c0 103 -3 224 -7 270 l-6 82 82 0
c80 0 81 0 81 -25z m288 13 c18 -18 11 -168 -8 -168 -5 0 -12 28 -17 63 l-8
62 -37 3 -36 3 -7 -85 c-4 -47 -5 -92 -2 -100 4 -10 24 -16 59 -18 l53 -3 3
-129 c2 -86 -1 -133 -9 -142 -7 -9 -31 -14 -65 -14 -66 0 -74 12 -74 104 0 51
3 66 15 66 11 0 15 -16 17 -67 l3 -68 40 0 40 0 3 107 3 107 -35 6 c-19 4 -39
5 -43 2 -5 -3 -15 -2 -23 3 -20 12 -28 243 -10 265 15 18 121 20 138 3z m307
-13 c0 -15 -8 -21 -31 -23 -32 -3 -32 -3 -38 -75 -3 -40 -5 -147 -5 -240 1
-92 -1 -170 -4 -174 -18 -17 -22 23 -22 200 -1 288 -1 287 -27 287 -33 0 -68
11 -68 21 0 5 7 6 15 3 10 -4 15 0 15 10 0 15 11 16 83 14 74 -3 82 -5 82 -23z
m870 2 c19 -29 10 -157 -11 -157 -9 0 -14 19 -16 63 l-3 62 -37 3 c-35 3 -37
1 -43 -30 -3 -18 -5 -121 -3 -228 l3 -195 43 -3 42 -3 0 70 c0 56 3 71 15 71
12 0 15 -14 15 -66 0 -92 -8 -104 -75 -104 -43 0 -56 4 -65 19 -15 29 -14 493
2 509 7 7 36 12 65 12 44 0 55 -4 68 -23z m305 -2 c0 -21 -5 -25 -29 -25 -26
0 -29 -3 -35 -46 -3 -26 -6 -136 -6 -245 0 -169 -2 -199 -15 -199 -12 0 -15
36 -17 242 l-3 243 -29 5 c-17 3 -29 8 -28 13 1 4 2 14 2 22 0 12 16 15 80 15
79 0 80 0 80 -25z m193 -55 c9 -79 2 -385 -9 -432 -10 -44 -31 -33 -38 18 -8
64 -8 479 1 488 4 4 14 5 23 4 11 -2 17 -23 23 -78z m290 66 c21 -21 19 -484
-2 -509 -9 -12 -29 -17 -67 -17 -49 0 -55 2 -64 26 -6 14 -10 128 -10 254 0
194 2 231 16 244 20 21 107 22 127 2z m218 -121 c15 -72 34 -155 43 -185 15
-54 16 -53 13 130 -2 179 -1 185 18 185 16 0 20 -6 19 -32 0 -18 -1 -139 -2
-268 -2 -196 -4 -235 -16 -235 -10 0 -24 40 -46 138 -62 264 -58 261 -59 50
-1 -152 -4 -188 -15 -188 -11 0 -14 49 -18 263 -3 144 -3 266 -1 270 3 4 12 7
21 5 12 -2 23 -35 43 -133z m-2401 104 c0 -5 -7 -9 -15 -9 -15 0 -20 12 -9 23
8 8 24 -1 24 -14z m-25 -218 c7 -12 -12 -24 -25 -16 -11 7 -4 25 10 25 5 0 11
-4 15 -9z m510 -51 c3 -5 1 -10 -4 -10 -6 0 -11 5 -11 10 0 6 2 10 4 10 3 0 8
-4 11 -10z m75 -244 c0 -11 -19 -15 -25 -6 -3 5 1 10 9 10 9 0 16 -2 16 -4z
m-406 -64 c2 -4 1 -13 -3 -20 -5 -9 -12 -7 -26 8 -18 19 -18 20 3 20 11 0 23
-4 26 -8z m-33 -212 c6 0 7 -5 4 -10 -4 -7 -13 -6 -27 1 -16 9 -19 8 -16 -2 8
-23 -15 -39 -29 -20 -7 9 -13 19 -13 23 0 8 40 16 58 12 8 -2 18 -4 23 -4z
m2149 -158 c5 -48 7 -116 4 -152 -7 -92 -35 -271 -45 -299 -11 -26 -103 -158
-191 -270 -64 -81 -79 -87 -23 -10 19 27 35 55 35 62 0 8 9 25 21 38 61 70
108 195 140 373 21 117 41 338 32 365 -3 12 -2 12 7 -2 6 -10 15 -57 20 -105z
m38 83 c-1 -14 -6 -25 -11 -25 -5 0 -6 7 -3 16 3 9 6 20 6 25 0 5 2 9 5 9 3 0
4 -11 3 -25z m-2605 1 c22 -17 9 -27 -21 -19 -22 5 -27 14 -15 26 9 10 15 8
36 -7z m2207 -30 c0 -16 -18 -31 -27 -22 -8 8 5 36 17 36 5 0 10 -6 10 -14z
m69 -31 c-20 -18 -59 -29 -59 -16 0 6 9 11 20 11 10 0 25 10 31 22 9 16 14 19
17 9 2 -7 -2 -19 -9 -26z m65 19 c11 -29 -15 -82 -47 -95 -41 -17 -111 -15
-140 4 -27 17 -44 64 -29 79 6 6 21 -3 40 -21 39 -40 91 -42 127 -6 14 13 25
31 25 40 0 20 16 19 24 -1z m51 -81 c-2 -53 -27 -125 -44 -131 -6 -2 -11 -8
-11 -13 0 -30 -107 -169 -130 -169 -53 0 -112 124 -90 187 9 25 19 33 54 42
24 6 49 17 56 26 7 8 22 15 34 15 23 0 56 21 100 63 16 15 30 27 31 27 1 0 1
-21 0 -47z m-12 -725 c-54 -60 -59 -139 -13 -211 16 -26 33 -47 37 -47 23 -1
34 -18 24 -36 -6 -11 -20 -42 -32 -71 -11 -28 -29 -59 -40 -69 -10 -9 -19 -23
-19 -31 0 -7 -11 -19 -25 -25 -14 -6 -25 -16 -24 -22 1 -6 0 -38 -1 -71 -2
-48 -4 -54 -9 -30 -9 35 -7 75 3 128 5 23 4 37 -2 37 -11 0 -22 -57 -22 -121
0 -36 -7 -54 -30 -84 -16 -21 -30 -41 -30 -46 0 -5 -9 -13 -21 -19 -18 -10
-18 -8 5 29 27 42 32 56 18 47 -4 -2 -9 4 -9 15 -1 15 3 19 17 14 10 -3 21 -1
25 4 3 7 0 8 -9 5 -9 -3 -16 -1 -16 6 0 6 -4 8 -10 5 -5 -3 -10 1 -10 9 0 9 5
16 10 16 6 0 10 6 10 13 1 6 9 30 20 52 11 22 20 49 20 60 0 11 7 38 14 60 9
24 13 65 10 105 -7 122 26 235 82 279 35 28 53 27 27 -1z m122 -65 c-11 -3
-28 -15 -38 -26 -16 -18 -18 -19 -13 -4 3 10 6 23 6 28 0 5 15 8 33 8 20 -1
25 -3 12 -6z m-259 -31 c-17 -33 -46 -60 -46 -43 0 6 3 11 8 11 4 0 15 14 24
30 22 38 33 39 14 2z m154 -50 c0 -23 -4 -32 -12 -30 -15 5 -23 52 -13 76 9
25 25 -4 25 -46z m70 -2 c21 0 46 -3 54 -6 24 -9 0 -34 -32 -34 -26 0 -73 35
-71 54 0 6 3 5 6 -1 2 -7 22 -13 43 -13z m-368 -72 c-19 -11 -38 -33 -44 -47
l-10 -26 -10 28 c-15 43 4 58 82 65 8 1 0 -8 -18 -20z m-123 -125 c9 -31 8
-33 -15 -33 -21 0 -24 5 -24 34 0 18 -2 55 -5 82 l-6 49 21 -50 c11 -27 24
-65 29 -82z m1091 97 c0 -5 -5 -10 -12 -10 -6 0 -19 -6 -28 -12 -9 -7 -5 -3 8
10 26 24 32 27 32 12z m-573 -67 c-12 -21 -28 -45 -36 -53 -13 -13 -14 -13 -6
5 4 11 13 35 19 53 7 19 18 32 28 32 16 0 15 -4 -5 -37z m-450 -15 c-3 -7 -5
-2 -5 12 0 14 2 19 5 13 2 -7 2 -19 0 -25z m-127 -68 c12 -8 12 -10 -3 -16
-10 -3 -17 -17 -17 -33 -1 -20 -3 -22 -9 -11 -10 16 -3 70 8 70 3 0 13 -4 21
-10z m990 -12 c0 -6 -6 -5 -15 2 -8 7 -15 14 -15 16 0 2 7 1 15 -2 8 -4 15
-11 15 -16z m-430 -108 c0 -11 -7 -20 -15 -20 -15 0 -21 21 -8 33 12 13 23 7
23 -13z m-79 -22 c4 -46 -15 -83 -38 -74 -8 3 -13 -2 -13 -12 0 -9 -7 -25 -15
-36 -12 -16 -12 -20 7 -36 26 -21 18 -35 -30 -51 -20 -7 -43 -20 -50 -31 -34
-47 -65 6 -40 70 19 50 50 51 59 2 l6 -35 2 37 c1 26 10 48 31 71 17 19 30 42
30 51 0 37 48 78 51 44z m105 -56 c16 -11 34 -48 34 -71 0 -38 -77 -23 -100
19 -21 40 27 78 66 52z m232 -103 c4 -21 -26 -51 -47 -47 -20 4 -26 35 -10 54
16 19 53 14 57 -7z m-324 -41 c21 -17 12 -23 -18 -12 -9 4 -16 17 -15 33 0 15
3 20 6 11 4 -8 16 -22 27 -32z m45 -46 c3 -5 17 -13 30 -17 18 -5 20 -9 10
-16 -8 -5 -20 -2 -30 7 -13 12 -19 13 -25 3 -4 -7 -2 -15 4 -17 7 -2 12 -11
12 -19 0 -12 -7 -14 -27 -8 -48 12 -76 48 -30 38 22 -4 22 -4 2 11 -11 9 -25
14 -32 12 -7 -3 -10 1 -6 11 5 12 16 14 46 10 22 -3 43 -10 46 -15z m216 -12
c-3 -5 -11 -10 -16 -10 -6 0 -7 5 -4 10 3 6 11 10 16 10 6 0 7 -4 4 -10z
m-145 -37 c-1 -26 -14 -53 -27 -53 -8 0 -12 6 -9 13 3 6 9 20 12 30 6 17 24
24 24 10z m40 3 c0 -3 -4 -8 -10 -11 -5 -3 -10 -1 -10 4 0 6 5 11 10 11 6 0
10 -2 10 -4z m40 -49 c0 -5 -8 -7 -19 -4 -14 3 -17 0 -14 -14 3 -11 12 -19 19
-19 18 0 18 -11 -1 -36 -14 -18 -14 -18 -9 3 4 15 0 25 -18 33 -12 7 -25 14
-26 16 -2 1 7 17 19 34 22 29 25 30 36 14 7 -10 13 -22 13 -27z m-256 7 c23
-9 20 -34 -4 -34 -11 0 -20 2 -20 4 0 2 -3 11 -6 20 -6 17 4 20 30 10z m198
-96 c-6 -6 -15 -8 -19 -4 -4 4 -1 11 7 16 19 12 27 3 12 -12z"/>
<path d="M5100 5481 c0 -25 6 -27 13 -6 4 8 2 17 -3 20 -6 4 -10 -3 -10 -14z"/>
<path d="M5127 5486 c-4 -10 -5 -21 -2 -24 9 -9 17 6 13 25 -3 17 -4 17 -11
-1z"/>
<path d="M5167 5480 c3 -11 7 -20 8 -20 1 0 5 9 8 20 3 12 0 20 -8 20 -8 0
-11 -8 -8 -20z"/>
<path d="M5210 5490 c0 -5 4 -10 9 -10 6 0 13 5 16 10 3 6 -1 10 -9 10 -9 0
-16 -4 -16 -10z"/>
<path d="M5265 5490 c-9 -15 4 -30 23 -29 15 1 15 2 0 6 -10 2 -18 8 -18 13 0
5 8 11 18 13 15 4 15 5 0 6 -9 0 -20 -3 -23 -9z"/>
<path d="M5220 5470 c-12 -8 -11 -10 8 -10 12 0 22 5 22 10 0 13 -11 13 -30 0z"/>
<path d="M2843 5298 c-34 -24 -73 -99 -73 -140 0 -77 45 -141 112 -159 136
-36 235 121 157 249 -42 70 -134 93 -196 50z m67 -148 c9 -17 7 -22 -12 -29
-33 -12 -40 -4 -22 25 20 29 20 29 34 4z"/>
<path d="M3765 4960 c-32 -21 -23 -26 19 -10 14 5 26 14 26 20 0 15 -11 12
-45 -10z"/>
<path d="M3690 4870 c-13 -8 -15 -48 -15 -262 l0 -253 32 -3 c23 -2 34 2 41
15 11 21 8 433 -3 481 -8 33 -26 40 -55 22z"/>
<path d="M3750 4870 c0 -5 7 -10 16 -10 8 0 12 5 9 10 -3 6 -10 10 -16 10 -5
0 -9 -4 -9 -10z"/>
<path d="M3376 4789 c-3 -17 -6 -71 -6 -120 l0 -89 31 0 c25 0 32 6 45 35 18
44 18 126 0 170 -11 26 -21 35 -39 35 -19 0 -26 -7 -31 -31z"/>
<path d="M2196 4788 c-3 -13 -6 -119 -6 -235 0 -206 1 -213 20 -213 48 0 75
120 67 294 -6 127 -20 176 -53 176 -14 0 -24 -8 -28 -22z"/>
<path d="M4766 4808 c-12 -37 -16 -170 -10 -305 l7 -153 37 0 c31 0 39 4 44
23 8 30 6 340 -2 397 -7 42 -9 45 -40 48 -20 2 -34 -2 -36 -10z"/>
<path d="M4746 2853 c1 -14 -2 -37 -7 -51 -13 -34 -20 -117 -9 -106 14 14 61
124 52 124 -4 0 -1 4 6 8 9 6 4 14 -17 29 l-28 21 3 -25z"/>
<path d="M1497 5393 c-3 -2 -65 -7 -138 -11 l-134 -7 -3 -160 c-1 -88 -5 -167
-8 -175 -7 -17 -5 -135 2 -176 6 -31 24 -52 42 -46 8 2 12 -12 12 -52 0 -55 0
-55 -32 -58 -32 -3 -33 -4 -32 -48 1 -25 2 -118 3 -207 l1 -163 375 0 375 0 0
188 c0 184 -1 189 -23 210 -13 12 -29 22 -35 22 -18 0 -14 28 9 59 40 54 53
199 23 256 -16 30 -15 137 2 293 6 51 -7 89 -26 77 -15 -9 -210 -11 -210 -3 0
9 -195 10 -203 1z m167 -40 c4 -4 24 -6 46 -4 35 2 40 0 46 -23 3 -14 10 -26
14 -26 5 0 6 8 3 19 -3 13 2 20 19 24 33 9 96 8 102 -1 3 -5 0 -70 -6 -145 -9
-120 -8 -142 6 -171 19 -40 21 -154 3 -205 -14 -39 -48 -67 -92 -76 -23 -5
-27 -4 -15 4 12 9 10 10 -10 6 -54 -12 -198 -21 -193 -11 4 5 -1 7 -10 3 -8
-3 -21 1 -27 9 -17 19 -30 18 -31 -3 0 -12 -2 -13 -6 -5 -4 10 -7 10 -17 -2
-8 -11 -33 -16 -89 -17 -42 -1 -81 1 -85 5 -4 4 -9 35 -12 69 -4 44 -9 61 -18
59 -24 -5 -39 23 -46 86 -5 43 -4 62 4 62 6 0 8 5 5 10 -3 6 -3 79 1 164 l7
154 71 5 c39 2 82 0 95 -5 19 -7 27 -5 33 7 7 12 28 15 102 15 51 0 96 -3 100
-7z m-394 -728 c0 -33 4 -45 15 -45 11 0 15 12 15 45 0 25 5 45 10 45 6 0 10
-22 10 -49 0 -54 -17 -77 -50 -66 -17 5 -20 15 -20 61 0 30 5 54 10 54 6 0 10
-20 10 -45z m100 -6 c0 -29 4 -39 16 -39 26 0 9 -25 -19 -28 -26 -3 -27 -2
-27 51 0 29 3 57 6 60 14 13 24 -6 24 -44z m100 36 c0 -8 -7 -15 -15 -15 -11
0 -15 -12 -15 -45 0 -25 -4 -45 -10 -45 -5 0 -10 20 -10 45 0 35 -4 45 -16 45
-14 0 -14 3 -4 15 7 8 25 15 41 15 19 0 29 -5 29 -15z m40 -45 c0 -33 -4 -60
-10 -60 -6 0 -10 27 -10 60 0 33 4 60 10 60 6 0 10 -27 10 -60z m70 21 c0 -11
7 -7 24 14 l24 30 11 -40 c6 -22 11 -50 11 -63 0 -33 -24 -22 -30 13 l-5 29
-14 -30 -13 -29 -10 25 -10 25 -10 -27 c-5 -16 -14 -28 -19 -28 -12 0 -11 36
2 83 8 32 13 36 25 26 8 -6 14 -19 14 -28z m141 29 c15 -8 19 -22 19 -60 0
-28 -4 -50 -10 -50 -5 0 -10 12 -10 26 0 31 -23 28 -28 -4 -2 -12 -8 -22 -13
-22 -13 0 -11 94 3 108 15 15 15 15 39 2z m109 0 c0 -6 -7 -13 -15 -16 -10 -4
-15 -20 -15 -50 0 -24 -4 -44 -10 -44 -5 0 -10 20 -10 45 0 33 -4 45 -15 45
-16 0 -20 12 -8 23 10 11 73 8 73 -3z m85 -5 c0 -5 -10 -11 -22 -13 -13 -2
-23 -7 -23 -12 0 -4 9 -6 20 -3 26 7 25 -1 -2 -27 l-22 -20 28 0 c18 0 26 -5
24 -12 -3 -7 -20 -13 -39 -13 -33 0 -34 1 -37 44 -5 62 2 73 40 69 18 -2 33
-7 33 -13z m-547 -152 c7 -10 12 -48 12 -95 0 -71 -2 -78 -20 -78 -17 0 -20 7
-20 40 0 26 -4 40 -13 40 -21 0 -37 -22 -37 -52 0 -21 -5 -28 -20 -28 -18 0
-20 7 -20 80 0 68 3 83 21 101 24 24 75 20 97 -8z m82 -53 l0 -80 31 0 c24 0
30 -4 27 -17 -2 -14 -15 -19 -51 -21 l-47 -3 0 94 c0 95 3 107 27 107 10 0 13
-20 13 -80z m130 -20 c0 -93 -1 -100 -20 -100 -19 0 -20 7 -20 100 0 93 1 100
20 100 19 0 20 -7 20 -100z m160 95 c0 -23 -17 -35 -51 -35 -32 0 -39 -4 -39
-19 0 -17 5 -19 35 -14 19 3 35 3 35 0 0 -17 -14 -37 -25 -37 -16 0 -45 -27
-45 -41 0 -5 20 -9 45 -9 48 0 48 0 39 -24 -5 -12 -21 -16 -65 -16 l-59 0 0
99 0 99 65 0 c36 0 65 -2 65 -3z m95 -52 c17 -29 33 -52 38 -53 4 0 7 25 7 56
0 47 3 55 18 52 14 -3 17 -17 20 -101 3 -95 2 -97 -20 -97 -17 0 -30 13 -51
50 -16 28 -31 50 -35 50 -4 0 -5 -22 -4 -50 4 -48 3 -50 -22 -50 l-26 0 0 93
c0 52 3 97 7 101 16 16 40 -2 68 -51z"/>
<path d="M1528 5343 l-58 -4 0 -107 0 -107 -19 30 c-15 26 -16 33 -5 50 19 26
18 90 -2 109 -18 18 -148 23 -159 6 -3 -5 -9 -71 -12 -146 l-6 -137 72 7 c89
9 100 13 111 40 8 19 9 19 9 2 1 -17 7 -18 54 -12 28 3 66 6 84 6 29 0 32 3
36 38 l4 37 1 -42 c2 -37 5 -43 25 -43 56 0 66 9 69 64 l3 51 18 -53 19 -53
41 3 42 3 10 123 c6 68 7 126 4 128 -3 2 -22 1 -42 -3 l-37 -6 0 -55 c0 -63
-9 -60 -35 11 -17 46 -18 47 -61 47 l-44 0 -2 -72 c0 -40 -1 -78 -1 -83 0 -6
-22 -12 -48 -13 -38 -2 -49 1 -49 13 0 11 11 15 40 15 33 0 40 3 40 20 0 17
-7 20 -40 20 -29 0 -40 4 -40 15 0 11 12 15 45 15 l45 0 0 45 c0 43 -1 45 -27
43 -16 -1 -54 -3 -85 -5z m-138 -103 c0 -4 -7 -10 -15 -14 -11 -4 -15 2 -15
21 0 21 2 24 15 13 8 -7 15 -16 15 -20z m-12 -107 c-5 -25 -28 -28 -28 -4 0
12 6 21 16 21 9 0 14 -7 12 -17z"/>
<path d="M1752 4936 c-22 -33 -22 -34 -5 -65 10 -17 21 -31 26 -31 4 0 15 15
23 34 12 25 14 41 7 62 -13 39 -24 39 -51 0z"/>
<path d="M1617 4939 c-21 -29 -22 -59 -2 -85 15 -18 16 -18 40 11 14 17 25 32
25 35 0 3 -11 18 -23 34 l-24 29 -16 -24z"/>
<path d="M1690 4630 c0 -5 4 -10 9 -10 6 0 13 5 16 10 3 6 -1 10 -9 10 -9 0
-16 -4 -16 -10z"/>
<path d="M1297 4483 c-10 -9 -9 -43 1 -43 18 0 45 28 38 38 -8 13 -29 16 -39
5z"/>
<path d="M1005 4650 c3 -5 8 -10 11 -10 2 0 4 5 4 10 0 6 -5 10 -11 10 -5 0
-7 -4 -4 -10z"/>
<path d="M962 4523 c1 -71 3 -109 5 -85 6 60 27 58 24 -3 l-1 -20 9 20 c6 13
4 27 -5 43 -8 12 -10 22 -4 22 5 0 10 4 10 10 0 5 -7 7 -15 4 -12 -5 -15 5
-15 59 0 43 4 67 13 70 7 3 5 6 -5 6 -16 1 -18 -11 -16 -126z"/>
<path d="M1970 4340 c0 -5 5 -10 10 -10 6 0 10 5 10 10 0 6 -4 10 -10 10 -5 0
-10 -4 -10 -10z"/>
<path d="M1860 4173 c-14 -9 -37 -24 -51 -34 -21 -14 -40 -16 -105 -12 -99 6
-205 -15 -294 -59 -132 -65 -259 -228 -295 -379 -16 -69 -20 -165 -7 -173 9
-6 28 59 37 128 5 37 14 55 38 77 49 45 57 38 35 -36 -10 -35 -12 -37 -17 -17
-14 54 -39 12 -58 -95 -8 -42 -7 -53 4 -53 7 0 13 -4 13 -9 0 -5 9 -12 19 -16
10 -3 22 -17 25 -32 8 -30 1 -42 -16 -25 -9 9 -9 12 2 12 10 0 8 4 -5 13 -26
18 -64 27 -70 17 -3 -4 6 -40 19 -79 71 -211 232 -348 451 -385 l70 -12 38
-100 c51 -135 73 -214 61 -222 -18 -13 -54 -123 -54 -166 0 -53 38 -228 51
-237 5 -3 7 -13 3 -22 -3 -10 -1 -17 5 -17 8 0 9 -6 2 -18 -7 -13 -7 -22 0
-29 8 -8 8 -13 0 -17 -6 -4 -13 8 -17 29 -5 31 -9 35 -28 29 -31 -10 -45 -23
-67 -66 -11 -21 -21 -38 -24 -38 -7 0 16 51 37 81 15 23 16 28 3 33 -18 7 -42
-2 -72 -24 l-22 -17 22 -23 22 -23 -32 21 c-17 12 -37 22 -45 22 -10 0 -9 -3
2 -10 8 -5 10 -10 5 -10 -16 0 -12 -52 5 -73 8 -10 27 -25 43 -33 28 -15 37
-54 17 -84 -9 -15 -11 -13 -14 22 0 9 -22 39 -48 66 -35 37 -44 51 -33 56 18
7 3 53 -16 48 -7 -2 -15 2 -19 8 -4 6 -17 12 -28 13 -27 2 -27 -4 2 85 15 49
25 68 30 57 9 -26 7 -37 -6 -30 -7 4 -5 0 5 -8 9 -8 15 -21 12 -29 -3 -8 2
-21 11 -29 12 -9 15 -10 10 -1 -4 6 -2 12 3 12 6 0 11 -6 11 -13 0 -16 37 -39
44 -28 3 5 0 24 -8 42 -25 62 -28 89 -10 89 12 0 15 8 13 35 -3 26 3 42 26 68
37 43 54 67 61 89 4 10 12 14 21 11 12 -5 14 -1 8 15 -3 13 -2 22 4 22 10 0
11 31 4 153 -5 77 -23 109 -23 41 0 -50 -27 -103 -51 -101 -17 1 -24 16 -20
41 1 5 -1 16 -5 25 -4 9 -6 28 -5 43 3 29 -62 129 -113 177 -22 20 -26 22 -26
7 0 -9 12 -40 26 -69 44 -85 51 -137 14 -92 -7 8 -16 13 -20 10 -4 -2 -16 5
-26 17 -25 28 -132 78 -166 78 -38 0 -27 -23 22 -45 52 -23 84 -59 114 -127
20 -46 23 -58 12 -67 -10 -9 -26 0 -65 35 -44 40 -60 48 -103 52 -45 4 -50 3
-46 -14 2 -12 17 -21 41 -27 29 -7 48 -22 78 -59 21 -27 39 -58 39 -67 0 -15
-6 -17 -42 -11 -24 4 -55 12 -70 18 -16 7 -28 9 -28 6 0 -32 -90 145 -216 423
l-59 131 -3 -616 c-2 -486 0 -617 10 -624 10 -6 10 -8 1 -8 -10 0 -13 -30 -13
-115 l0 -114 32 6 c22 4 29 3 24 -5 -4 -7 -2 -12 3 -12 6 0 11 5 11 11 0 6 7
17 16 26 8 9 13 22 10 29 -3 8 -1 14 4 14 6 0 10 9 10 20 0 13 7 20 20 20 11
0 20 7 20 15 0 19 30 8 48 -17 7 -10 21 -18 30 -18 9 0 27 -11 40 -24 21 -23
22 -28 11 -73 -6 -26 -18 -59 -27 -73 l-15 -25 26 18 c15 9 38 24 51 32 12 9
45 21 73 28 64 17 109 6 131 -33 9 -17 22 -28 28 -26 6 3 16 0 21 -5 6 -6 20
-4 39 6 53 27 94 12 55 -22 -11 -9 -16 -20 -11 -23 5 -3 -26 -32 -70 -64 -43
-32 -86 -69 -95 -82 -18 -28 -14 -31 9 -8 9 8 16 11 16 5 0 -6 -11 -18 -24
-27 -16 -10 -23 -21 -19 -31 5 -13 2 -15 -15 -11 -15 4 -25 0 -32 -10 -5 -10
-10 -12 -10 -5 0 6 13 22 28 35 16 13 27 29 25 35 -3 7 1 22 7 34 12 21 11 22
-21 15 -46 -8 -164 -69 -231 -119 -83 -62 -147 -197 -168 -357 -5 -41 -10 -82
-10 -90 -1 -12 -3 -12 -14 3 -12 15 -14 14 -20 -20 -3 -21 -6 -135 -6 -254 0
-195 2 -219 18 -239 19 -23 19 -23 16 24 -2 25 0 46 4 46 4 0 17 -15 30 -33
l22 -32 0 26 c0 15 6 32 14 39 8 6 16 21 18 32 2 12 9 23 16 26 15 5 17 -44 2
-53 -16 -10 -67 -125 -74 -165 l-6 -35 11 30 c21 56 61 140 76 156 8 9 15 26
16 36 0 11 8 20 15 19 21 -1 24 16 7 38 -14 19 -15 19 -35 1 -20 -18 -21 -18
-14 1 4 10 14 29 21 40 12 19 17 20 39 10 21 -9 25 -17 24 -51 -1 -22 -1 -131
-1 -242 l1 -203 143 0 c79 0 147 -3 150 -7 4 -3 2 -12 -4 -19 -14 -17 32 -48
60 -39 10 3 22 1 26 -5 9 -15 348 -12 357 3 6 9 8 9 8 0 0 -14 46 -18 74 -7
28 11 7 23 -29 17 -31 -5 -35 -3 -35 16 0 11 5 21 10 21 19 0 10 16 -19 33
-26 15 -36 32 -56 92 -5 16 -8 17 -15 5 -8 -12 -10 -11 -10 5 0 11 9 34 20 50
17 25 20 46 19 135 0 58 -4 113 -7 123 -7 16 -9 16 -30 2 -12 -9 -22 -24 -22
-34 0 -18 -18 -41 -32 -41 -4 0 -8 92 -8 204 0 199 1 205 20 203 11 -1 20 -5
20 -9 0 -4 4 -8 9 -8 14 0 51 69 51 95 0 13 5 27 10 30 6 4 8 11 4 16 -3 6 2
17 12 24 18 14 17 14 -7 15 -14 0 -34 -9 -44 -20 -10 -11 -23 -20 -30 -20 -6
0 -18 -12 -25 -27 l-14 -28 -4 28 -3 27 -202 1 c-111 1 -213 5 -227 9 l-25 8
26 1 c21 1 27 7 35 44 5 26 15 42 24 42 25 1 41 16 36 33 -8 27 44 77 123 119
13 7 40 13 60 13 23 0 51 11 81 31 l45 30 5 -50 c4 -32 13 -58 27 -73 12 -13
31 -43 41 -68 36 -81 37 -81 142 -82 l95 -1 203 102 c112 57 221 105 242 108
22 3 40 9 40 14 0 4 14 6 30 4 37 -4 39 13 6 42 -22 19 -25 20 -40 5 -12 -12
-16 -13 -16 -3 0 8 -7 11 -17 7 -10 -4 1 9 23 29 23 19 49 47 59 62 l18 28
-32 -29 c-38 -36 -67 -42 -80 -18 -7 14 -5 22 10 33 11 7 28 31 39 52 18 34
18 37 3 28 -10 -5 -30 -21 -45 -35 -27 -24 -41 -23 -16 2 10 10 7 16 -11 28
-20 14 -22 23 -18 57 3 22 13 44 21 49 52 29 78 103 51 145 -14 21 -12 27 31
93 26 39 45 72 43 75 -10 10 -49 -8 -54 -26 -3 -10 -15 -21 -26 -24 -10 -4
-19 -13 -19 -21 0 -8 -4 -14 -10 -14 -5 0 -7 -7 -4 -15 4 -9 0 -15 -8 -15 -8
0 -30 -30 -49 -67 -30 -61 -58 -97 -67 -88 -3 3 50 94 91 155 25 39 -2 65 -83
80 -47 9 -62 7 -127 -15 -80 -26 -170 -81 -191 -115 -7 -11 -17 -18 -22 -15
-5 3 -8 0 -5 -7 3 -7 -7 -22 -21 -33 -15 -11 -36 -33 -46 -50 l-19 -30 7 30 7
30 -22 -20 c-17 -15 -24 -16 -30 -6 -14 22 -4 58 38 142 48 94 50 109 17 109
-19 0 -23 4 -19 20 4 13 -6 35 -28 64 -35 45 -59 56 -124 56 -26 0 -37 7 -54
32 -16 26 -18 35 -8 43 7 6 17 19 22 30 7 16 10 8 15 -35 8 -84 22 -36 28 97
2 62 8 110 13 107 5 -3 9 -1 9 5 0 5 -5 13 -11 17 -6 4 -9 19 -5 38 4 22 3 27
-4 16 -8 -12 -9 -9 -8 12 1 15 6 24 10 22 4 -3 8 0 8 5 0 6 -4 11 -10 11 -5 0
-10 7 -10 16 0 8 -4 13 -9 10 -19 -12 -21 70 -3 144 l9 35 12 -44 c7 -25 11
-59 9 -77 -2 -18 0 -30 4 -28 4 3 8 -5 8 -18 0 -13 5 -72 11 -132 9 -85 9
-128 -1 -195 -7 -47 -12 -88 -12 -91 2 -9 33 -12 58 -6 23 6 33 31 15 38 -8 3
-22 158 -15 158 2 0 10 -13 19 -30 8 -16 29 -37 45 -45 19 -10 27 -20 24 -30
-12 -31 5 -63 41 -75 26 -9 35 -17 35 -34 0 -29 36 -62 82 -74 28 -8 56 -7
105 4 69 14 89 28 100 72 7 27 45 72 62 72 6 0 11 5 11 10 0 6 13 1 29 -11 22
-16 37 -20 58 -15 34 9 44 9 109 3 64 -6 118 -31 140 -65 9 -15 26 -34 37 -43
20 -16 20 -17 -19 -85 -54 -93 -73 -145 -81 -214 -5 -52 -3 -61 21 -92 14 -19
26 -40 26 -46 0 -21 -21 -24 -35 -6 -8 11 -15 16 -15 12 0 -17 33 -88 41 -88
5 0 9 -7 9 -16 0 -8 5 -12 10 -9 6 3 10 2 10 -3 0 -6 -7 -12 -15 -16 -20 -7
-19 -33 7 -86 11 -25 30 -73 42 -107 12 -35 26 -63 31 -64 19 -2 45 -20 45
-31 0 -7 -13 -9 -35 -5 -21 3 -33 2 -30 -4 4 -5 13 -9 20 -9 8 0 19 -10 26
-21 6 -12 23 -32 38 -45 l26 -23 -23 -1 c-13 0 -32 5 -44 11 -11 6 -22 8 -25
6 -3 -3 13 -15 36 -27 37 -19 41 -24 41 -59 0 -22 -3 -41 -7 -44 -5 -2 -3 -3
4 -1 6 1 14 -7 17 -19 9 -34 7 -40 -9 -27 -12 10 -14 7 -10 -19 4 -37 1 -38
-39 -8 -50 38 -63 42 -33 12 28 -29 29 -61 1 -78 -7 -4 -19 -14 -27 -22 -8 -8
-17 -11 -21 -8 -3 4 -6 -30 -6 -75 0 -59 4 -82 13 -82 9 0 9 -2 0 -8 -12 -8
-17 -75 -15 -217 2 -116 2 -129 6 -133 7 -6 113 16 150 32 26 11 36 21 36 37
0 12 3 19 7 15 4 -4 8 -42 9 -84 1 -42 5 -107 9 -145 l7 -67 490 0 c415 0 493
2 518 15 16 8 31 11 35 6 3 -5 -3 -12 -12 -14 -10 -3 294 -5 675 -6 472 -1
691 2 687 9 -4 6 -12 10 -18 9 -19 -4 -67 23 -67 36 0 23 -36 42 -90 48 -53 6
-56 6 -75 -24 -16 -24 -70 -59 -91 -59 -3 0 5 18 16 39 25 49 21 51 -106 51
l-94 0 0 29 c0 27 -5 31 -55 47 -39 13 -55 22 -53 33 2 12 15 14 56 12 l53 -3
-3 34 c-2 18 -7 33 -13 34 -5 0 -23 7 -40 14 -16 7 -41 12 -54 11 -18 -1 -21
2 -13 12 8 9 -9 12 -79 12 -63 0 -92 -4 -98 -14 -5 -7 -11 -11 -15 -9 -3 1
-22 -10 -41 -25 -28 -22 -35 -35 -35 -62 0 -19 4 -36 9 -39 13 -8 65 -155 58
-163 -4 -3 -11 5 -16 18 -5 13 -10 20 -10 15 -1 -5 -25 12 -55 38 -30 25 -59
46 -66 46 -6 0 -35 -16 -65 -35 -30 -19 -78 -42 -107 -51 -67 -21 -63 -21 -66
-10 -1 5 10 10 24 11 14 0 31 7 38 15 6 8 42 31 79 50 67 34 103 68 161 149
16 22 38 43 48 47 53 16 74 113 42 193 -13 32 -14 47 -5 74 15 46 30 211 19
215 -4 2 -6 8 -2 13 3 5 0 9 -6 9 -6 0 -2 13 9 28 30 43 37 119 13 163 -16 31
-20 34 -29 20 -8 -12 -9 -7 -4 19 8 35 -3 97 -20 115 -5 5 -9 19 -9 32 0 29
-16 30 -25 2 -4 -11 -9 -18 -12 -15 -3 3 6 36 20 73 55 146 72 233 46 233 -6
0 -8 7 -5 16 10 27 -23 99 -56 124 -17 13 -28 18 -24 11 11 -17 -1 -13 -44 14
-45 28 -70 33 -46 9 18 -18 11 -38 -10 -30 -18 7 -50 -64 -33 -75 8 -5 8 -8 0
-10 -7 -3 -13 -14 -14 -26 0 -12 -5 -20 -9 -17 -4 3 -14 -6 -23 -20 -18 -28
-48 -39 -64 -23 -6 6 -11 7 -11 2 0 -6 -4 -4 -9 4 -8 12 -13 12 -35 -2 -39
-26 -42 -21 -19 41 3 6 -2 12 -10 12 -19 0 -30 25 -33 75 -4 61 3 72 27 47 11
-12 25 -22 32 -22 9 0 9 2 0 8 -6 4 -9 19 -6 33 7 38 56 52 148 44 73 -7 74
-7 134 30 34 21 63 36 66 34 2 -3 5 -23 7 -44 1 -22 20 -78 41 -125 35 -75 39
-95 41 -167 1 -46 -2 -83 -7 -83 -12 0 -1 -170 12 -183 6 -6 11 -29 11 -51 0
-23 12 -68 26 -101 35 -82 40 -100 25 -91 -14 9 -6 -34 15 -75 7 -15 11 -29 8
-32 -3 -3 2 -19 10 -36 9 -16 16 -36 15 -43 0 -7 -4 -4 -9 7 -5 11 -9 14 -9 7
-1 -16 30 -75 42 -80 4 -2 7 -18 7 -36 0 -33 9 -42 98 -103 l32 -22 0 44 0 45
173 0 c183 0 258 7 235 21 -10 7 -10 9 3 9 8 0 19 -4 25 -9 5 -6 34 -11 64
-13 l55 -3 6 -50 c3 -27 7 -44 7 -36 2 10 8 7 22 -9 11 -13 20 -19 20 -15 0 4
9 0 20 -10 20 -18 20 -17 19 106 -1 68 -3 116 -6 106 -5 -18 -6 -18 -28 3 -14
13 -41 23 -71 26 -27 3 -54 10 -60 15 -6 5 -15 4 -22 -3 -8 -8 -12 -8 -12 -1
0 19 -51 46 -63 34 -8 -8 -8 -11 1 -11 7 0 12 -4 12 -10 0 -18 -22 -10 -27 10
-3 11 -10 20 -17 20 -6 0 -5 4 3 9 11 7 10 12 -8 27 -11 10 -21 24 -21 30 0 6
-15 38 -32 70 -58 103 -241 270 -320 289 -15 4 -34 18 -42 31 -16 23 -15 24
33 56 27 17 55 42 62 55 14 26 42 29 79 8 14 -8 37 -11 54 -8 22 5 28 3 24 -8
-2 -8 -19 -15 -36 -17 -27 -3 -32 -7 -32 -29 0 -15 -12 -36 -30 -53 -16 -15
-26 -30 -23 -34 16 -16 51 -3 79 31 l31 36 36 -29 c47 -37 49 -73 7 -127 -34
-45 -32 -76 4 -52 11 9 37 20 56 25 19 5 53 25 74 44 39 35 39 35 29 85 -6 29
-7 92 -2 158 9 117 8 130 -23 273 -24 113 -43 175 -63 203 -8 12 -12 31 -9 44
4 13 1 31 -6 41 -7 9 15 -12 49 -47 34 -36 81 -92 105 -125 45 -63 120 -205
113 -212 -2 -2 -16 5 -31 17 -15 12 -30 19 -33 15 -4 -3 -1 -6 5 -6 6 0 9 -15
8 -35 -2 -20 1 -38 7 -42 6 -3 7 -1 3 5 -4 7 -3 12 3 12 15 0 41 -30 41 -48 0
-15 -2 -15 -10 -2 -5 8 -10 11 -10 5 0 -5 5 -17 10 -25 9 -13 11 -13 21 0 9
13 10 12 5 -2 -3 -10 -1 -20 4 -23 5 -3 10 7 12 22 3 22 9 11 31 -52 15 -44
27 -89 27 -100 0 -13 3 -16 8 -8 4 6 6 110 4 230 -1 120 -3 409 -4 643 -1 234
-3 398 -5 365 -4 -54 -7 -63 -40 -91 -21 -18 -33 -36 -29 -43 7 -10 -64 -107
-92 -124 -10 -7 -10 -12 -1 -23 9 -11 9 -14 0 -14 -27 0 -4 -44 32 -63 47 -24
47 -52 0 -80 l-32 -18 -66 50 c-36 28 -72 51 -79 51 -17 0 -32 -18 -39 -50 -3
-14 -12 -33 -20 -44 -13 -18 -15 -18 -55 3 -53 27 -70 27 -81 -2 -5 -13 -43
-55 -84 -94 -72 -66 -79 -70 -133 -76 -68 -7 -91 6 -117 67 -12 28 -20 37 -26
28 -5 -9 -19 -6 -57 15 l-50 28 9 49 c12 61 4 67 -73 51 -56 -12 -58 -11 -55
7 7 34 -54 50 -220 58 -82 4 -132 8 -111 8 l40 2 -35 30 c-19 16 -39 34 -46
40 -7 5 -17 10 -23 10 -5 0 -10 5 -10 11 0 6 -6 9 -14 6 -9 -4 -25 8 -41 29
-14 19 -30 32 -36 29 -5 -4 -14 5 -20 19 -7 14 -15 23 -19 21 -4 -2 -27 14
-51 36 -23 22 -61 46 -83 53 -33 11 -42 19 -44 41 -2 17 -8 25 -17 21 -7 -2
-25 6 -39 19 -14 13 -26 20 -26 15 0 -5 -8 -6 -17 -3 -34 13 159 163 210 163
26 0 21 13 -13 33 -20 12 -31 28 -36 52 -3 19 -12 39 -19 45 -10 9 -13 7 -10
-7 11 -54 13 -95 5 -87 -5 5 -18 62 -29 128 -21 130 -40 172 -34 79 1 -32 0
-52 -3 -44 -5 10 -11 6 -20 -15 -13 -29 -13 -28 -7 12 12 91 -39 185 -123 228
-107 53 -235 10 -289 -97 -33 -67 -33 -127 1 -195 30 -60 70 -95 133 -113 43
-13 43 -13 23 -30 -12 -9 -18 -19 -15 -23 4 -3 1 -6 -6 -6 -7 0 -10 -4 -6 -10
8 -13 -80 15 -114 37 -41 26 -79 75 -96 123 -17 49 -20 146 -4 187 5 15 6 24
1 18 -16 -17 -32 -76 -32 -115 0 -110 67 -208 176 -260 36 -17 79 -33 95 -37
25 -5 29 -10 29 -39 0 -23 -5 -34 -15 -34 -8 0 -68 18 -133 39 -118 39 -119
40 -191 112 l-72 74 6 -40 c10 -62 26 -108 45 -130 9 -11 30 -41 45 -67 16
-29 34 -48 45 -48 10 0 23 -7 30 -15 7 -9 19 -14 27 -11 8 3 20 -9 32 -33 17
-31 27 -39 58 -44 60 -10 67 -9 54 7 -14 17 -51 28 -51 15 0 -5 -19 13 -42 39
-24 26 -46 49 -50 50 -5 2 -8 8 -8 13 0 6 8 5 20 -1 16 -9 20 -8 20 5 0 8 -4
15 -10 15 -5 0 -10 9 -10 20 0 11 7 20 15 20 13 0 21 -37 16 -72 -1 -8 62 -58
72 -58 11 0 8 68 -3 75 -17 11 -11 37 7 33 14 -3 17 -12 14 -46 -2 -31 3 -49
15 -63 21 -24 44 -25 45 -1 0 9 9 -1 21 -24 20 -39 24 -42 72 -47 58 -5 75 0
29 9 -22 4 -47 26 -89 77 -58 71 -58 75 4 30 17 -13 37 -21 43 -17 7 4 23 -6
38 -22 28 -31 29 -31 85 -37 20 -2 39 -7 43 -10 3 -4 14 -7 23 -7 10 0 23 -7
30 -16 8 -8 27 -21 44 -29 17 -8 42 -23 56 -34 l25 -21 -32 12 c-18 7 -33 15
-33 18 0 3 -16 7 -35 8 -20 2 -47 7 -61 12 -14 6 -37 10 -52 9 -18 0 -3 -8 43
-23 103 -33 208 -90 311 -167 136 -102 249 -234 169 -197 -14 6 -25 15 -25 20
0 6 -6 8 -12 6 -7 -3 -17 4 -23 15 -5 11 -19 25 -30 31 -11 6 -52 39 -93 74
-40 34 -79 62 -86 62 -7 0 -25 9 -39 20 -33 26 -123 71 -161 81 -17 4 -58 15
-91 24 -111 29 -225 52 -225 45 0 -4 22 -28 50 -54 32 -30 58 -46 75 -46 24 0
65 -31 65 -49 0 -13 -34 -24 -38 -13 -2 6 -21 8 -42 5 -29 -4 -40 -2 -40 8 0
10 -3 10 -12 1 -17 -17 -41 -15 -34 3 7 20 2 19 -44 -10 -39 -24 -53 -22 -27
4 10 10 9 11 -5 6 -9 -4 -19 -14 -23 -23 -5 -14 -7 -14 -16 -2 -7 13 -10 13
-18 1 -6 -9 -11 -10 -15 -2 -4 6 -20 11 -36 11 -16 0 -32 5 -35 10 -5 8 -11 8
-19 1 -7 -6 -16 -8 -19 -4 -19 18 96 56 208 69 54 6 57 8 33 16 -16 5 -28 14
-28 19 0 6 -4 8 -9 5 -5 -3 -14 0 -20 8 -16 20 -99 30 -117 15 -9 -7 -14 -8
-14 -1 0 6 5 14 11 17 6 5 3 12 -10 21 -17 12 -26 12 -63 -1 -62 -21 -70 -18
-18 10 55 29 36 33 -21 5 -22 -12 -37 -25 -34 -30 3 -5 -1 -7 -9 -4 -9 3 -32
-11 -59 -36 -25 -23 -47 -41 -49 -39 -3 2 -12 -2 -22 -10 -34 -29 -24 -3 19
48 25 29 45 54 45 57 0 12 -96 -7 -107 -22 -6 -9 -16 -13 -22 -9 -6 3 -11 0
-11 -7 0 -8 -7 -23 -15 -34 -13 -18 -14 -16 -9 16 5 32 3 37 -20 48 -43 19
-40 20 -158 -39 -52 -27 -66 -23 -36 9 14 15 30 42 36 60 10 29 9 32 -9 32
-10 0 -19 -4 -19 -10 0 -5 -6 -10 -14 -10 -8 0 -38 -27 -67 -60 -29 -33 -54
-58 -57 -55 -3 3 4 15 15 28 31 34 43 61 33 77 -7 12 -12 12 -22 2 -6 -6 -20
-12 -29 -12 -10 0 -19 -5 -21 -10 -2 -7 -17 -5 -41 5 -32 13 -36 18 -27 35 5
10 10 21 10 23 0 10 -82 37 -114 37 -40 0 -50 -8 -34 -29 7 -9 0 -5 -14 8 -30
26 -51 23 -68 -10 -8 -15 -9 -19 -1 -15 6 4 11 0 11 -9 0 -10 -23 -27 -62 -45
-35 -16 -58 -29 -51 -30 7 0 10 -6 7 -14 -4 -10 -17 -13 -42 -9 -25 3 -50 -2
-74 -15 -35 -18 -38 -19 -38 -3 0 10 3 21 7 25 8 8 9 12 25 104 9 49 16 71 25
68 7 -3 10 1 7 8 -3 7 2 16 10 19 11 4 16 19 16 47 0 23 7 54 15 70 24 47 28
109 12 194 -8 44 -13 85 -10 93 6 15 47 28 61 19 5 -3 17 2 25 12 15 16 15 20
1 40 -8 12 -20 22 -25 22 -6 0 -17 7 -26 15 -8 8 -19 12 -25 9 -6 -4 -6 -9 -2
-13 16 -11 13 -27 -7 -39 -17 -11 -19 -9 -19 16 0 21 12 37 56 71 138 108 223
279 224 452 0 72 -32 196 -67 262 -39 72 -139 175 -214 219 -35 21 -67 39 -72
41 -7 2 6 42 31 90 6 12 -22 7 -48 -10z m-10 -27 c0 -2 -8 -10 -17 -17 -16
-13 -17 -12 -4 4 13 16 21 21 21 13z m-187 -128 c-4 -21 -3 -21 7 -5 9 14 19
17 38 12 40 -10 52 -24 52 -59 l-1 -31 -19 23 c-11 13 -21 18 -25 12 -3 -5
-11 -10 -18 -10 -8 0 -8 3 1 12 25 25 13 38 -18 20 -34 -19 -63 -9 -68 24 -2
15 1 13 12 -6 10 -16 15 -20 16 -9 0 12 18 39 26 39 1 0 0 -10 -3 -22z m-60
-28 c9 -12 9 -13 -3 -2 -19 16 -59 17 -42 0 7 -7 12 -17 12 -22 0 -6 -5 -4
-10 4 -8 13 -11 12 -24 -5 -15 -20 -15 -19 -16 6 0 19 8 29 33 41 22 11 33 12
36 4 2 -6 8 -18 14 -26z m273 -20 c39 0 48 -25 27 -67 -15 -32 -23 -38 -50
-38 -18 -1 -35 -4 -39 -8 -4 -4 0 -7 9 -7 23 0 22 -20 0 -21 -10 0 -38 -2 -63
-5 l-45 -4 39 22 c21 13 47 28 58 34 16 10 17 12 4 17 -11 4 -16 19 -16 45 0
21 -5 43 -11 49 -7 7 3 6 27 -2 22 -8 49 -14 60 -15z m-400 -22 c-3 -13 -5
-27 -5 -32 -1 -5 -7 -3 -15 3 -19 16 -30 -13 -15 -41 12 -23 5 -48 -13 -48
-19 1 -68 47 -68 64 0 12 80 62 117 75 2 1 1 -9 -1 -21z m179 12 c3 -5 -1 -10
-10 -10 -9 0 -13 5 -10 10 3 6 8 10 10 10 2 0 7 -4 10 -10z m35 -31 c0 -5 -12
-9 -27 -9 -26 0 -26 1 -8 14 20 14 35 12 35 -5z m286 -45 c-3 -8 -15 -14 -27
-14 -13 0 -32 -8 -43 -17 -11 -10 -2 3 19 29 31 36 42 43 48 31 5 -8 6 -21 3
-29z m-281 -5 c-15 -23 -42 -28 -66 -11 l-24 17 40 5 c44 6 58 3 50 -11z m335
-4 l23 -25 -25 0 c-19 0 -27 6 -30 25 -3 14 -2 25 2 25 3 0 17 -11 30 -25z
m-709 -32 c-8 -15 -10 -15 -11 -2 0 17 10 32 18 25 2 -3 -1 -13 -7 -23z m729
-23 c0 -11 -4 -20 -10 -20 -5 0 -10 9 -10 20 0 11 5 20 10 20 6 0 10 -9 10
-20z m17 -12 c-3 -7 -5 -2 -5 12 0 14 2 19 5 13 2 -7 2 -19 0 -25z m38 26 c9
-4 25 -24 35 -45 26 -49 29 -196 5 -205 -8 -4 -15 -10 -15 -16 0 -5 4 -7 9 -3
5 3 13 0 17 -6 4 -8 3 -9 -4 -5 -11 6 -16 -5 -13 -26 0 -4 -13 1 -29 10 l-29
17 21 22 c11 12 17 27 13 33 -4 7 -1 16 6 21 12 8 12 10 0 18 -13 8 -13 12 0
27 8 10 9 15 2 11 -8 -5 -15 1 -19 18 -3 14 -10 25 -14 25 -5 0 -7 25 -7 55 1
30 3 55 4 55 1 0 9 -3 18 -6z m-599 -25 c3 -5 -9 -9 -25 -9 -20 0 -31 5 -31
14 0 15 46 11 56 -5z m460 6 c-4 -24 -13 -27 -19 -5 -3 13 0 20 8 20 7 0 12
-7 11 -15z m34 -5 c0 -11 -2 -20 -4 -20 -2 0 -6 9 -9 20 -3 11 -1 20 4 20 5 0
9 -9 9 -20z m-190 -10 c0 -23 -25 -27 -33 -6 -4 9 1 17 11 19 9 3 18 5 20 6 1
0 2 -8 2 -19z m50 0 c0 -12 -6 -17 -17 -16 -26 4 -28 31 -3 33 13 1 20 -4 20
-17z m44 3 c3 -8 -2 -13 -14 -13 -11 0 -20 6 -20 13 0 8 7 14 15 14 8 0 16 -6
19 -14z m-622 -15 c-7 -7 -12 -8 -12 -2 0 14 12 26 19 19 2 -3 -1 -11 -7 -17z
m391 1 c-4 -15 -9 -17 -17 -9 -8 8 -7 13 4 20 8 5 16 10 17 10 0 0 -1 -9 -4
-21z m40 6 c4 -8 2 -17 -3 -20 -6 -4 -10 3 -10 14 0 25 6 27 13 6z m24 -17
c-3 -7 -5 -2 -5 12 0 14 2 19 5 13 2 -7 2 -19 0 -25z m20 10 c-3 -8 -6 -5 -6
6 -1 11 2 17 5 13 3 -3 4 -12 1 -19z m-158 -10 c-1 -21 -2 -21 -7 -3 l-5 20
-8 -20 c-7 -19 -8 -19 -8 3 -1 13 5 22 14 22 9 0 15 -9 14 -22z m-129 -18
c-28 -24 -27 -24 -40 0 -7 14 -7 20 0 20 5 0 11 -8 11 -17 1 -16 2 -16 6 -1 2
9 12 18 21 21 27 5 27 -1 2 -23z m80 15 c0 -8 -7 -15 -15 -15 -8 0 -15 7 -15
15 0 8 7 15 15 15 8 0 15 -7 15 -15z m-199 -8 c-6 -8 -7 -17 -3 -22 4 -4 -5
-6 -20 -3 -15 3 -29 0 -31 -6 -2 -6 -6 0 -10 13 -4 15 -2 21 6 18 7 -2 21 -1
32 4 30 12 39 10 26 -4z m57 -20 c12 -3 10 -5 -5 -6 -18 -1 -23 4 -22 22 1 15
3 17 6 5 2 -9 12 -19 21 -21z m-155 3 c3 -11 1 -20 -4 -20 -5 0 -9 9 -9 20 0
11 2 20 4 20 2 0 6 -9 9 -20z m490 3 c-7 -2 -19 -2 -25 0 -7 3 -2 5 12 5 14 0
19 -2 13 -5z m251 -1 c2 -4 6 -34 7 -67 3 -55 1 -60 -19 -63 -19 -3 -22 1 -22
28 0 27 -3 31 -22 28 -18 -2 -24 -11 -26 -35 -2 -24 -8 -33 -21 -33 -15 0 -20
13 -28 70 -9 69 -9 70 13 70 17 0 23 -7 26 -27 2 -22 8 -28 28 -28 19 0 24 5
22 19 -2 10 -1 24 2 32 6 15 32 19 40 6z m-164 -27 c0 -11 -8 -13 -30 -9 l-30
6 6 -61 c6 -57 5 -61 -13 -61 -18 0 -22 9 -28 55 -6 52 -8 55 -32 53 -14 -2
-28 2 -30 9 -4 12 28 19 110 21 35 2 47 -2 47 -13z m-192 -17 c6 -7 12 -35 13
-63 3 -45 1 -50 -19 -53 -19 -3 -22 1 -22 28 0 27 -3 31 -22 28 -18 -2 -24
-11 -26 -35 -2 -24 -8 -33 -21 -33 -14 0 -20 11 -25 53 -11 91 -13 87 53 87
35 0 63 -5 69 -12z m-168 -19 c4 -6 7 -34 6 -63 -1 -37 -5 -51 -16 -51 -8 0
-17 11 -20 25 -5 23 -11 26 -40 22 -5 -1 -10 -13 -10 -26 0 -28 -40 -45 -41
-18 0 10 -4 40 -8 69 l-7 52 30 4 c45 7 98 -1 106 -14z m375 -80 c10 -15 -1
-22 -24 -14 -12 3 -21 15 -21 26 0 16 3 18 19 9 11 -5 23 -15 26 -21z m225
-38 c0 -14 -9 -20 -34 -23 -19 -2 -33 -1 -30 3 2 4 -3 9 -10 12 -9 4 -17 -1
-19 -11 -3 -12 -5 -11 -6 6 -1 24 18 29 36 11 9 -9 16 -8 28 5 22 21 35 20 35
-3z m-117 -11 c3 -11 1 -20 -4 -20 -5 0 -9 9 -9 20 0 11 2 20 4 20 2 0 6 -9 9
-20z m-140 -5 c4 -8 3 -16 -1 -19 -4 -3 -9 4 -9 15 -2 23 3 25 10 4z m24 -17
c-3 -7 -5 -2 -5 12 0 14 2 19 5 13 2 -7 2 -19 0 -25z m37 0 c7 -5 4 -8 -6 -8
-12 0 -18 7 -17 23 0 15 2 17 6 7 3 -8 11 -18 17 -22z m36 17 c0 -8 -4 -15
-10 -15 -5 0 -10 7 -10 15 0 8 5 15 10 15 6 0 10 -7 10 -15z m-210 -17 c0 -18
-2 -20 -9 -8 -6 8 -7 18 -5 22 9 14 14 9 14 -14z m70 1 c0 -11 -4 -17 -10 -14
-5 3 -10 13 -10 21 0 8 5 14 10 14 6 0 10 -9 10 -21z m-160 -9 c0 -16 -6 -20
-28 -18 -15 1 -33 -1 -39 -5 -6 -4 -15 -2 -19 4 -4 8 -9 7 -15 -2 -6 -11 -9
-9 -9 7 0 17 6 20 35 19 20 0 41 3 48 7 20 13 27 9 27 -12z m40 2 c0 -9 6 -12
17 -8 10 4 14 3 9 -1 -15 -15 -56 -10 -56 7 0 9 7 17 15 17 8 0 15 -7 15 -15z
m-164 -16 c2 -12 1 -13 -3 -1 -2 8 -9 15 -15 15 -5 0 -8 -7 -4 -15 3 -8 1 -15
-3 -15 -5 0 -18 -3 -28 -7 -14 -5 -12 -1 7 20 27 29 44 30 46 3z m-116 -8 c0
-18 -2 -20 -9 -8 -6 8 -7 18 -5 22 9 14 14 9 14 -14z m50 11 c0 -6 -4 -7 -10
-4 -5 3 -10 -1 -10 -10 0 -9 -4 -13 -10 -10 -17 11 -11 31 10 32 11 1 20 -3
20 -8z m-120 -10 c0 -5 -4 -7 -10 -4 -5 3 -10 -1 -10 -9 0 -9 -4 -16 -10 -16
-5 0 -10 9 -10 20 0 13 7 20 20 20 11 0 20 -5 20 -11z m17 -21 c-3 -7 -5 -2
-5 12 0 14 2 19 5 13 2 -7 2 -19 0 -25z m453 -12 c0 -9 -23 -15 -81 -19 -45
-4 -86 -4 -90 -1 -20 12 4 21 63 23 34 1 65 4 67 7 10 10 41 3 41 -10z m-240
-6 c0 -5 -7 -10 -15 -10 -8 0 -15 5 -15 10 0 6 7 10 15 10 8 0 15 -4 15 -10z
m-360 -14 c0 -3 -4 -8 -10 -11 -5 -3 -10 -1 -10 4 0 6 5 11 10 11 6 0 10 -2
10 -4z m320 -11 c0 -8 -4 -15 -9 -15 -13 0 -22 16 -14 24 11 11 23 6 23 -9z
m460 -30 c0 -27 -10 -32 -69 -31 -41 1 -45 3 -48 29 -4 27 -2 28 36 25 22 -1
43 1 47 4 12 13 34 -5 34 -27z m68 28 c-10 -2 -18 -13 -18 -24 0 -21 16 -26
23 -6 2 6 8 9 12 5 11 -10 -4 -28 -24 -28 -12 0 -20 9 -23 25 -6 29 -1 35 26
34 17 -1 18 -2 4 -6z m-284 -64 c-12 -20 -20 -7 -16 23 5 31 5 31 13 9 5 -12
7 -27 3 -32z m25 19 c0 -28 -2 -30 -9 -13 -12 28 -12 45 0 45 6 0 10 -15 9
-32z m33 2 c3 -19 1 -29 -6 -27 -14 4 -21 57 -8 57 5 0 12 -14 14 -30z m28 5
c0 -14 -2 -25 -4 -25 -2 0 -6 11 -8 25 -3 14 -1 25 3 25 5 0 9 -11 9 -25z
m-180 5 c0 -5 -7 -7 -15 -4 -8 4 -15 1 -15 -5 0 -6 9 -11 21 -11 29 0 18 -24
-12 -27 -21 -2 -22 -2 -4 6 19 8 19 8 -2 15 -23 7 -29 17 -16 29 10 11 43 8
43 -3z m60 -15 c0 -14 -4 -25 -10 -25 -5 0 -10 11 -10 25 0 14 5 25 10 25 6 0
10 -11 10 -25z m-180 -15 c0 -16 -4 -30 -10 -30 -5 0 -10 5 -10 10 0 6 -5 10
-11 10 -5 0 -7 -4 -4 -10 3 -5 2 -10 -3 -10 -5 0 -12 11 -14 25 -4 17 -1 25 8
25 8 0 14 -4 14 -10 0 -5 4 -10 10 -10 5 0 7 7 4 15 -4 8 -1 15 5 15 6 0 11
-13 11 -30z m41 -20 c4 0 10 10 12 23 3 19 4 19 3 -3 -1 -18 -7 -25 -21 -25
-15 0 -20 7 -22 30 l-2 30 12 -27 c6 -16 14 -28 18 -28z m-172 18 c9 -24 6
-38 -9 -38 -5 0 -7 11 -4 25 2 14 0 25 -6 25 -5 0 -10 -11 -10 -25 0 -14 -4
-25 -10 -25 -15 0 -12 47 3 53 22 10 28 7 36 -15z m66 -8 c0 -34 -40 -41 -48
-9 -8 30 0 41 26 37 16 -2 22 -10 22 -28z m532 -20 c11 -13 12 -13 13 3 0 21
20 23 20 2 0 -8 -4 -15 -10 -15 -5 0 -10 -8 -10 -17 0 -14 -3 -13 -16 5 -19
27 -38 29 -29 2 7 -22 -10 -28 -19 -7 -5 10 -7 10 -12 0 -9 -20 -24 -15 -24 7
0 13 -7 20 -20 20 -25 0 -27 -37 -2 -43 9 -3 -3 -5 -28 -5 -25 0 -37 2 -27 5
10 3 17 14 17 28 0 21 5 24 43 27 73 6 92 4 104 -12z m-232 -51 c17 -6 16 -8
-7 -8 -25 -1 -28 2 -27 32 1 28 2 29 8 8 3 -13 15 -28 26 -32z m45 14 c0 -7
-4 -13 -10 -13 -5 0 -10 12 -10 28 0 21 2 24 10 12 5 -8 10 -21 10 -27z m-172
20 c-10 -2 -18 -13 -18 -24 0 -21 16 -26 23 -6 2 6 8 9 12 5 11 -11 -4 -28
-26 -28 -11 0 -22 7 -25 15 -10 24 4 45 28 44 17 -1 18 -2 6 -6z m47 -10 c-2
-10 -4 -24 -4 -32 -1 -20 -7 -11 -15 22 -5 20 -3 27 8 27 8 0 13 -7 11 -17z
m35 -8 c0 -14 -4 -25 -10 -25 -5 0 -10 11 -10 25 0 14 5 25 10 25 6 0 10 -11
10 -25z m-220 -24 c0 -21 -2 -23 -11 -11 -8 11 -12 12 -16 3 -8 -22 -23 -14
-23 11 0 13 6 26 13 29 22 8 37 -5 37 -32z m63 32 c-7 -2 -13 -16 -13 -29 0
-13 -4 -24 -10 -24 -5 0 -10 11 -10 24 0 13 -6 27 -12 29 -7 3 3 5 22 5 19 0
29 -2 23 -5z m-125 -37 c2 -18 0 -26 -7 -21 -6 3 -11 15 -11 26 0 30 -20 22
-21 -8 0 -25 -1 -26 -9 -8 -16 36 -12 47 18 43 21 -2 28 -9 30 -32z m642 -26
c0 -14 -6 -19 -22 -18 -13 1 -33 -2 -45 -6 -19 -6 -23 -4 -23 15 0 18 4 21 28
16 15 -3 34 -2 42 4 20 12 20 12 20 -11z m-133 -10 c-1 -11 -5 -20 -9 -20 -4
0 -8 9 -8 20 0 11 4 20 9 20 6 0 9 -9 8 -20z m33 -1 c0 -11 -4 -17 -10 -14 -5
3 -10 13 -10 21 0 8 5 14 10 14 6 0 10 -9 10 -21z m-450 2 c0 -6 -4 -13 -10
-16 -5 -3 -10 1 -10 9 0 9 5 16 10 16 6 0 10 -4 10 -9z m222 -16 c-2 -14 -9
-25 -14 -25 -5 0 -7 3 -5 8 2 4 7 15 10 25 9 25 15 21 9 -8z m98 5 c0 -11 -7
-20 -15 -20 -27 0 -18 30 13 39 1 1 2 -8 2 -19z m70 -2 c0 -17 -3 -18 -15 -8
-10 9 -15 9 -15 1 0 -6 -4 -11 -8 -11 -4 0 -8 8 -8 19 0 13 7 19 23 19 16 0
23 -6 23 -20z m-130 -8 c0 -11 -2 -20 -4 -20 -2 0 -6 9 -9 20 -3 11 -1 20 4
20 5 0 9 -9 9 -20z m-163 -10 c2 -23 -22 -27 -30 -6 -5 13 4 22 23 25 3 1 6
-8 7 -19z m43 -1 c0 -18 -2 -19 -15 -9 -15 12 -12 30 6 30 5 0 9 -10 9 -21z
m40 6 c0 -9 -6 -12 -15 -9 -8 4 -15 10 -15 15 0 5 7 9 15 9 8 0 15 -7 15 -15z
m-257 -2 c-7 -2 -13 -11 -13 -18 0 -7 6 -16 13 -18 6 -3 0 -5 -15 -4 -20 1
-28 7 -28 20 0 10 4 16 9 12 5 -3 12 -1 16 5 3 5 12 10 18 9 9 0 9 -2 0 -6z
m57 -19 c0 -22 -16 -17 -17 6 -1 11 2 18 8 15 5 -4 9 -13 9 -21z m40 22 c0 -3
-4 -8 -10 -11 -5 -3 -10 -1 -10 4 0 6 5 11 10 11 6 0 10 -2 10 -4z m32 -14 c4
-12 -1 -18 -13 -18 -22 0 -23 2 -6 21 15 18 14 18 19 -3z m-182 -12 c0 -13 -7
-20 -19 -20 -11 0 -26 -3 -35 -6 -12 -5 -16 0 -15 17 0 23 1 23 9 4 8 -18 11
-17 9 2 0 7 27 21 44 22 4 1 7 -8 7 -19z m77 -2 c-3 -8 -6 -5 -6 6 -1 11 2 17
5 13 3 -3 4 -12 1 -19z m453 -8 c0 -11 -7 -20 -15 -20 -27 0 -18 30 13 39 1 1
2 -8 2 -19z m-100 -10 c0 -15 -7 -20 -25 -20 -29 0 -35 26 -7 33 30 8 32 7 32
-13z m57 -2 c2 -18 0 -20 -7 -8 -12 18 -13 30 -2 30 4 0 9 -10 9 -22z m1665
-35 c37 -35 58 -83 58 -132 0 -33 -3 -41 -19 -41 -29 0 -118 -91 -128 -131 -8
-31 -13 -34 -49 -37 -114 -10 -213 80 -214 194 l0 41 64 6 c54 5 73 12 111 42
26 19 51 35 56 35 5 0 12 18 15 40 l6 39 37 -15 c20 -8 48 -27 63 -41z m-1874
8 c-16 -5 -29 22 -15 31 7 4 15 0 18 -10 4 -9 2 -19 -3 -21z m52 19 c0 -11 -4
-20 -10 -20 -5 0 -10 9 -10 20 0 11 5 20 10 20 6 0 10 -9 10 -20z m40 5 c0 -8
-2 -15 -4 -15 -2 0 -6 7 -10 15 -3 8 -1 15 4 15 6 0 10 -7 10 -15z m-214 -15
c0 -11 -4 -20 -8 -20 -10 0 -11 24 -1 33 9 9 9 10 9 -13z m48 5 c-8 -21 13
-19 25 3 9 15 10 15 11 1 0 -16 -19 -29 -41 -29 -5 0 -9 9 -9 20 0 11 4 20 10
20 5 0 7 -7 4 -15z m-107 -27 c-3 -7 -5 -2 -5 12 0 14 2 19 5 13 2 -7 2 -19 0
-25z m314 -12 c-6 -7 -8 -16 -4 -19 3 -4 1 -7 -5 -7 -7 0 -12 6 -12 13 0 8 -3
9 -8 1 -4 -6 -20 -14 -37 -17 -26 -4 -27 -3 -12 8 9 7 17 16 17 21 0 5 16 10
36 11 28 2 33 -1 25 -11z m49 4 c0 -5 -10 -15 -22 -21 l-23 -12 20 21 c23 24
25 25 25 12z m-220 -19 c0 -35 -59 -33 -60 2 0 16 20 6 21 -10 0 -14 2 -15 6
-3 5 13 22 29 31 30 1 0 2 -8 2 -19z m40 9 c0 -5 -2 -10 -4 -10 -3 0 -8 5 -11
10 -3 6 -1 10 4 10 6 0 11 -4 11 -10z m1860 -304 c0 -2 -11 -11 -25 -20 -14
-9 -25 -13 -25 -8 0 5 10 14 23 20 27 13 27 13 27 8z m9 -133 c-24 -28 -91
-73 -111 -73 -13 0 -18 7 -18 29 0 27 3 29 68 44 37 8 69 15 71 16 2 1 -3 -7
-10 -16z m-489 -18 c13 -14 21 -25 18 -25 -2 0 -15 11 -28 25 -13 14 -21 25
-18 25 2 0 15 -11 28 -25z m-1703 -95 c9 0 13 -6 10 -14 -3 -8 1 -20 9 -26 8
-7 14 -21 14 -31 0 -9 7 -25 16 -33 18 -18 18 -19 -52 -111 -38 -51 -57 -88
-69 -135 -19 -73 -34 -107 -35 -76 0 43 33 144 63 188 18 27 35 48 39 48 4 0
16 14 28 30 l21 30 -20 26 c-12 15 -21 35 -21 45 0 11 -4 19 -9 19 -13 0 -41
29 -41 42 0 5 7 7 16 4 9 -3 22 -6 31 -6z m783 -176 c-12 -21 -12 -27 -1 -34
10 -6 9 -9 -7 -14 -12 -4 -24 -16 -27 -27 -8 -25 -25 -15 -25 15 0 12 -4 26
-10 32 -6 6 -6 15 0 24 8 12 10 12 10 1 0 -10 3 -11 13 -2 8 6 16 8 20 5 3 -3
11 3 18 15 18 28 25 16 9 -15z m965 -68 c-16 -13 -32 -22 -34 -20 -5 5 42 43
54 44 6 0 -3 -11 -20 -24z m-955 0 c0 -2 -8 -10 -17 -17 -16 -13 -17 -12 -4 4
13 16 21 21 21 13z m50 -128 c0 -5 -4 -8 -8 -8 -12 0 -32 46 -24 54 6 6 31
-31 32 -46z m2078 -31 c-7 -13 -16 -17 -31 -13 -50 15 -120 25 -128 20 -5 -3
-17 0 -26 6 -13 7 10 9 88 8 100 -3 106 -4 97 -21z m-2578 -12 c-13 -14 -26
-23 -28 -20 -7 7 29 45 41 45 6 0 0 -11 -13 -25z m2615 -5 c-20 -22 -31 -20
-22 5 4 8 14 15 23 15 16 0 16 -2 -1 -20z m-2079 -17 c-7 -7 -26 7 -26 19 0 6
6 6 15 -2 9 -7 13 -15 11 -17z m1321 14 c-4 -10 8 -12 52 -9 75 5 143 -23 166
-70 10 -21 11 -27 2 -16 -17 21 -86 17 -99 -6 -5 -9 -16 -22 -24 -29 -8 -6
-20 -17 -27 -23 -8 -8 -19 -8 -34 -1 -18 8 -20 14 -12 28 17 32 -5 20 -31 -17
-46 -65 -70 -82 -70 -49 0 8 4 15 9 15 5 0 11 9 14 20 3 11 1 20 -5 20 -5 0
-6 5 -3 11 5 6 -2 6 -16 -2 -63 -33 -62 -33 -43 -2 9 15 35 45 58 65 61 56 27
46 -43 -12 -33 -27 -62 -50 -65 -50 -3 0 -4 15 -2 34 1 19 0 34 -3 34 -3 -1
-13 2 -21 5 -8 3 -24 8 -35 11 -11 2 -2 4 20 4 22 0 47 2 55 5 8 3 42 8 75 11
36 4 64 12 70 21 12 18 19 19 12 2z m793 -28 c-12 -39 -12 -135 -1 -163 6 -16
9 -17 16 -5 7 11 10 8 15 -11 4 -18 13 -25 30 -25 19 0 26 -7 32 -35 6 -24 19
-42 41 -55 l32 -20 -69 -3 c-67 -3 -69 -2 -104 33 -19 19 -40 35 -46 35 -6 1
-36 38 -66 83 -30 45 -72 101 -92 125 -21 24 -38 46 -38 49 0 9 101 -7 137
-22 45 -19 41 -31 -12 -39 -25 -4 -45 -11 -45 -16 0 -15 47 -23 68 -11 12 6
23 11 26 11 12 0 5 -28 -9 -40 -15 -13 -12 -30 6 -30 6 0 7 5 4 10 -3 6 0 10
8 10 13 0 28 37 42 105 6 29 24 59 31 52 2 -2 -1 -19 -6 -38z m-2736 5 c4 -11
2 -12 -14 -1 -11 6 -20 15 -20 19 0 12 28 -3 34 -18z m-151 -15 c60 -31 136
-104 126 -121 -7 -10 -21 0 -56 38 -27 28 -67 61 -90 73 -24 12 -43 24 -43 26
0 10 22 4 63 -16z m2973 -27 c-18 -16 -18 -16 -6 6 6 13 14 21 18 18 3 -4 -2
-14 -12 -24z m-36 3 c-7 -9 -15 -13 -19 -10 -3 3 1 10 9 15 21 14 24 12 10 -5z
m-1043 -10 c0 -8 -6 -15 -14 -15 -14 0 -17 12 -6 23 11 11 20 8 20 -8z m1113
-3 c0 -5 -7 -17 -15 -28 -14 -18 -14 -17 -4 9 12 27 19 34 19 19z m540 -7 c0
-8 -4 -15 -10 -15 -5 0 -7 7 -4 15 4 8 8 15 10 15 2 0 4 -7 4 -15z m-3342 -21
c0 -18 -3 -22 -9 -13 -11 18 -11 39 0 39 5 0 9 -12 9 -26z m3640 -69 c26 -24
55 -57 65 -74 18 -30 18 -31 -2 -31 -12 0 -21 -5 -21 -11 0 -5 -4 -7 -10 -4
-5 3 -10 1 -10 -5 0 -7 -20 13 -45 43 -24 30 -62 70 -84 89 -38 32 -39 36 -25
56 l14 21 35 -20 c19 -12 56 -40 83 -64z m-118 -23 c0 -5 -21 9 -57 37 -18 14
-33 30 -33 34 0 4 20 -9 45 -30 25 -20 45 -39 45 -41z m163 43 c23 -32 17 -32
-13 0 -13 14 -19 25 -14 25 5 0 17 -12 27 -25z m-1866 -8 c-3 -8 -25 -24 -49
-35 l-43 -21 35 30 c19 16 40 34 45 38 13 11 19 5 12 -12z m-1641 1 c4 -7 3
-8 -4 -4 -7 4 -12 1 -12 -8 0 -9 -8 -16 -17 -17 -11 0 -13 -3 -5 -6 19 -8 14
-23 -8 -20 -32 5 -32 13 0 41 36 30 36 30 46 14z m1744 -5 c0 -5 -11 -13 -25
-20 -27 -12 -33 -5 -13 15 13 13 38 16 38 5z m1460 0 c0 -5 -7 -17 -15 -27 -8
-11 -12 -28 -9 -39 5 -17 5 -17 -14 -1 -20 17 -20 17 -1 37 10 12 19 24 19 29
0 4 5 8 10 8 6 0 10 -3 10 -7z m408 -42 c8 -5 12 -17 10 -27 -3 -15 -6 -14
-21 9 -18 27 -13 34 11 18z m-248 -11 c0 -5 -2 -10 -4 -10 -3 0 -8 5 -11 10
-3 6 -1 10 4 10 6 0 11 -4 11 -10z m-3428 -20 c11 0 37 -29 38 -42 0 -5 -9 -8
-21 -8 -11 0 -17 5 -14 10 3 6 -1 17 -9 26 -13 12 -17 13 -20 2 -12 -39 -14
-41 -15 -15 -1 15 -7 27 -13 28 -7 1 -2 4 12 8 14 4 27 4 28 -1 2 -4 8 -8 14
-8z m1740 -2 c-7 -7 -12 -8 -12 -2 0 14 12 26 19 19 2 -3 -1 -11 -7 -17z m504
1 c19 -11 34 -23 34 -25 0 -5 -44 17 -70 35 -28 20 3 11 36 -10z m1214 -9 c0
-5 -2 -10 -4 -10 -3 0 -8 5 -11 10 -3 6 -1 10 4 10 6 0 11 -4 11 -10z m191 -7
c13 -16 12 -17 -3 -4 -10 7 -18 15 -18 17 0 8 8 3 21 -13z m-2557 -71 c4 -7 3
-12 -2 -12 -17 0 -34 47 -26 71 7 22 8 22 14 -11 3 -20 10 -41 14 -48z m-980
44 c-4 -9 -17 -16 -33 -15 -24 0 -25 1 -5 9 12 5 25 14 29 20 10 16 17 6 9
-14z m25 -85 c-25 -48 -38 -63 -51 -55 -4 3 -17 -15 -29 -38 -14 -28 -24 -38
-27 -28 -2 8 -12 24 -21 34 -12 14 -13 20 -3 23 6 3 12 11 12 19 0 17 5 17 29
2 22 -14 36 -3 65 54 10 21 23 35 27 32 5 -3 6 2 3 10 -3 9 -10 13 -15 10 -5
-3 -6 2 -3 11 6 14 9 13 22 -6 14 -20 13 -26 -9 -68z m1285 58 c39 -23 44 -29
22 -29 -15 0 -78 49 -64 50 4 0 23 -9 42 -21z m2276 -33 c0 -12 -5 -7 -19 24
-11 24 -11 24 3 6 9 -11 16 -24 16 -30z m-2024 -4 c-9 -17 -21 -32 -28 -34 -7
-3 -9 -11 -4 -24 7 -18 8 -18 26 6 24 30 26 20 5 -21 -16 -29 -35 -31 -35 -3
0 9 -10 14 -28 14 -30 0 -116 56 -107 70 9 15 134 24 150 10 12 -10 16 -9 21
4 4 9 8 15 11 12 2 -2 -3 -18 -11 -34z m-1561 18 c-3 -5 -14 -10 -23 -10 -15
0 -15 2 -2 10 20 13 33 13 25 0z m869 -92 c12 -18 15 -35 10 -50 -6 -20 -9
-18 -30 27 -25 51 -29 72 -17 102 6 14 9 10 13 -17 3 -19 14 -47 24 -62z
m2578 38 c7 -13 7 -16 -1 -12 -6 4 -18 22 -27 39 -14 30 -14 31 1 12 9 -11 21
-28 27 -39z m-3154 -4 c-41 -37 -61 -40 -27 -4 11 12 18 26 15 30 -2 4 8 7 23
8 l28 1 -39 -35z m126 -29 c-7 -30 -24 -55 -24 -36 0 17 18 63 25 63 3 0 2
-12 -1 -27z m-1264 3 c0 -3 -4 -8 -10 -11 -5 -3 -10 -1 -10 4 0 6 5 11 10 11
6 0 10 -2 10 -4z m4320 -16 c6 -11 8 -20 6 -20 -3 0 -10 9 -16 20 -6 11 -8 20
-6 20 3 0 10 -9 16 -20z m-3669 -3 c27 -21 89 -108 89 -125 0 -9 -13 6 -30 34
-16 28 -43 63 -60 78 -31 26 -30 37 1 13z m3259 -2 c10 -12 15 -13 20 -4 6 8
9 8 14 0 4 -6 2 -11 -4 -11 -6 0 -8 -6 -4 -12 4 -7 -2 -5 -13 5 -11 9 -25 17
-31 17 -7 0 -12 5 -12 10 0 15 16 12 30 -5z m-3096 -43 c-8 -17 -19 -34 -25
-37 -11 -7 8 44 23 62 18 22 19 8 2 -25z m226 26 c0 -9 -70 -69 -70 -61 0 17
41 63 56 63 8 0 14 -1 14 -2z m1210 -19 c11 -19 10 -20 -9 -9 -22 11 -29 30
-11 30 5 0 14 -9 20 -21z m-980 -34 c0 -5 -5 -3 -10 5 -5 8 -10 20 -10 25 0 6
5 3 10 -5 5 -8 10 -19 10 -25z m2651 9 c12 -14 11 -16 -5 -13 -11 2 -21 10
-24 17 -5 17 13 15 29 -4z m-2037 -97 c-3 -10 1 -20 12 -24 16 -6 16 -7 0 -18
-15 -11 -15 -13 -1 -19 11 -4 14 -13 10 -26 -4 -11 -2 -20 4 -20 6 0 11 -7 11
-15 0 -8 -9 -15 -20 -15 -11 0 -20 -7 -20 -15 0 -20 -44 -20 -60 0 -7 9 -19
14 -26 11 -7 -3 -15 2 -18 10 -3 8 -11 13 -17 12 -6 -2 -15 7 -20 20 -7 17 -5
22 8 22 13 0 14 3 5 12 -15 15 -16 32 -2 23 7 -4 9 6 6 29 -3 24 0 36 10 40 8
3 14 9 13 13 -4 22 3 35 24 43 18 7 27 3 54 -28 21 -23 31 -44 27 -55z m-834
64 c-13 -11 -29 -17 -34 -14 -5 3 4 12 20 19 40 17 43 16 14 -5z m999 16 c-22
-17 -100 -57 -95 -48 8 12 75 50 90 51 5 0 7 -1 5 -3z m476 -7 c-3 -5 -14 -10
-23 -10 -15 0 -15 2 -2 10 20 13 33 13 25 0z m-1717 -45 c-12 -25 -26 -45 -30
-45 -4 0 2 20 14 45 12 25 26 45 30 45 4 0 -2 -20 -14 -45z m552 38 c0 -5 -5
-15 -10 -23 -8 -12 -10 -11 -10 8 0 12 5 22 10 22 6 0 10 -3 10 -7z m2491 -10
c19 -9 49 -17 67 -17 18 0 32 -5 32 -12 0 -15 -112 -24 -121 -10 -4 4 -13 5
-20 0 -11 -6 -11 -4 0 10 13 15 12 18 -7 23 -12 3 -19 9 -16 14 8 13 27 11 65
-8z m-2851 -7 c0 -2 -24 -21 -52 -41 l-53 -38 30 33 c17 18 39 36 50 40 25 11
25 11 25 6z m331 -26 c16 0 11 -77 -6 -84 -8 -3 -15 -10 -15 -16 0 -6 6 -8 13
-4 9 6 9 4 1 -7 -16 -21 -26 -67 -14 -71 5 -2 -2 -25 -16 -53 -14 -27 -22 -39
-18 -25 3 14 7 43 8 65 1 22 6 50 10 62 5 17 0 27 -29 48 -19 15 -35 34 -35
41 0 15 43 29 59 19 7 -4 11 3 11 18 0 28 14 46 18 23 2 -9 8 -16 13 -16z
m2679 20 c0 -5 -7 -10 -15 -10 -8 0 -15 5 -15 10 0 6 7 10 15 10 8 0 15 -4 15
-10z m-3238 -32 c-7 -7 -12 -8 -12 -2 0 6 3 14 7 17 3 4 9 5 12 2 2 -3 -1 -11
-7 -17z m143 12 c3 -6 -1 -13 -10 -16 -19 -8 -30 0 -20 15 8 14 22 14 30 1z
m125 5 c0 -2 -17 -13 -37 -24 -85 -44 -153 -136 -172 -232 -8 -39 -9 -41 -11
-14 -2 17 -2 42 -1 58 1 15 -3 27 -9 27 -8 0 -10 -22 -6 -70 3 -41 2 -69 -4
-65 -5 3 -10 -5 -13 -17 -2 -13 -3 21 -3 75 1 88 3 97 19 93 10 -2 21 4 28 15
11 22 3 43 -13 33 -7 -4 -8 -2 -4 4 4 7 16 12 26 12 10 0 26 8 36 18 45 46
164 110 164 87z m1200 -26 c0 -16 -4 -19 -22 -14 -16 6 -20 4 -15 -9 3 -8 2
-18 -3 -21 -18 -11 -14 31 5 47 27 23 35 22 35 -3z m2071 -6 c13 -16 12 -17
-3 -4 -10 7 -18 15 -18 17 0 8 8 3 21 -13z m-1831 3 c0 -2 -7 -7 -16 -10 -8
-3 -12 -2 -9 4 6 10 25 14 25 6z m1880 -41 c0 -5 -5 -3 -10 5 -5 8 -10 20 -10
25 0 6 5 3 10 -5 5 -8 10 -19 10 -25z m-468 3 c-7 -7 -12 -8 -12 -2 0 14 12
26 19 19 2 -3 -1 -11 -7 -17z m195 0 c-3 -8 -6 -5 -6 6 -1 11 2 17 5 13 3 -3
4 -12 1 -19z m-3337 -20 c0 -11 -7 -43 -17 -72 -9 -28 -18 -58 -20 -66 -6 -23
-23 10 -18 35 3 11 6 36 8 55 6 61 47 103 47 48z m1507 26 c-3 -3 -12 -4 -19
-1 -8 3 -5 6 6 6 11 1 17 -2 13 -5z m-1583 -32 c-16 -2 -20 -8 -17 -23 3 -10
0 -19 -6 -19 -6 0 -11 11 -11 25 0 46 -68 31 -124 -29 -19 -20 -31 -27 -33
-18 -7 19 13 38 67 65 44 22 53 23 97 13 30 -7 40 -12 27 -14z m1696 18 c8 -5
11 -10 5 -10 -5 0 -17 5 -25 10 -8 5 -10 10 -5 10 6 0 17 -5 25 -10z m1660 -4
c0 -3 -4 -8 -10 -11 -5 -3 -10 -1 -10 4 0 6 5 11 10 11 6 0 10 -2 10 -4z
m-1870 -36 c0 -32 11 -36 86 -31 18 1 35 -2 38 -8 4 -6 13 -8 20 -5 8 3 27 -1
43 -9 46 -23 93 -29 93 -12 0 8 5 15 10 15 11 0 14 -43 4 -53 -3 -3 -24 1 -46
9 -47 16 -88 18 -88 4 0 -5 7 -7 15 -4 10 4 15 0 15 -14 0 -15 -5 -19 -20 -15
-11 3 -20 10 -20 15 0 6 -7 5 -15 -2 -11 -9 -15 -9 -15 -1 0 7 -5 9 -10 6 -6
-4 -19 -3 -28 1 -9 4 -26 9 -37 11 -11 2 -24 8 -29 13 -4 4 -15 6 -24 3 -10
-5 -13 -2 -8 6 5 7 17 11 27 8 10 -3 21 -2 24 3 2 4 -13 10 -35 14 -43 7 -45
11 -30 50 13 35 30 33 30 -4z m238 9 c28 -7 52 -15 52 -19 0 -8 -42 -7 -55 1
-14 9 -59 17 -130 24 -33 3 -62 9 -65 12 -8 9 140 -4 198 -18z m39 15 c-3 -3
-12 -4 -19 -1 -8 3 -5 6 6 6 11 1 17 -2 13 -5z m1358 -13 c-3 -6 -11 -11 -17
-11 -6 0 -6 6 2 15 14 17 26 13 15 -4z m-3185 -1 c0 -5 -5 -10 -11 -10 -5 0
-7 5 -4 10 3 6 8 10 11 10 2 0 4 -4 4 -10z m730 -56 c0 -8 -4 -14 -9 -14 -6 0
-9 9 -8 19 1 22 17 18 17 -5z m2470 12 c32 -10 38 -15 20 -15 -14 0 -38 6 -55
14 -40 18 -21 18 35 1z m-3270 -6 c0 -5 -2 -10 -4 -10 -3 0 -8 5 -11 10 -3 6
-1 10 4 10 6 0 11 -4 11 -10z m140 -5 c-7 -8 -36 -27 -64 -41 -60 -30 -47 -13
21 27 55 33 60 34 43 14z m3317 -2 c0 -22 -25 -53 -43 -53 -18 0 -5 38 19 55
12 8 22 15 23 15 0 0 1 -8 1 -17z m-807 -13 c0 -5 -4 -10 -10 -10 -5 0 -10 5
-10 10 0 6 5 10 10 10 6 0 10 -4 10 -10z m-105 -20 c3 -5 1 -10 -4 -10 -6 0
-11 5 -11 10 0 6 2 10 4 10 3 0 8 -4 11 -10z m124 -26 c9 -9 -55 -3 -69 6 -11
7 -3 8 25 4 22 -3 42 -8 44 -10z m-774 -14 c29 -8 28 -8 -11 -9 -28 -1 -46 5
-55 16 -13 15 -11 16 11 9 14 -4 39 -11 55 -16z m-2137 -6 c-16 -8 -28 -18
-28 -22 0 -5 -7 -17 -15 -28 -14 -18 -14 -17 -5 11 12 33 36 55 59 55 10 -1 5
-7 -11 -16z m122 -3 c0 -5 -7 -12 -16 -15 -24 -9 -28 -7 -14 9 14 17 30 20 30
6z m1627 -31 c8 -30 7 -40 -1 -40 -28 0 -49 54 -29 73 13 13 19 6 30 -33z
m-1139 -44 c-3 -18 -6 -17 -21 11 -9 17 -14 39 -11 48 5 13 9 10 21 -12 7 -15
12 -36 11 -47z m256 32 c-13 -96 -53 -163 -102 -173 -23 -4 -30 9 -11 20 6 4
8 14 5 22 -4 10 -2 13 7 10 8 -3 13 3 12 18 0 26 -15 47 -15 22 0 -8 -11 -24
-25 -35 -14 -11 -25 -24 -25 -30 0 -5 -7 -16 -17 -23 -15 -13 -15 -12 0 18 9
17 22 33 28 35 7 2 20 24 30 48 10 25 18 37 18 28 1 -22 15 -23 35 -2 9 8 20
13 25 10 11 -7 21 17 21 50 0 13 5 24 10 24 6 0 8 -17 4 -42z m-734 19 c0 -2
-15 -16 -32 -33 -27 -24 -29 -25 -13 -4 24 30 45 47 45 37z m579 -50 c-23 -18
-24 -19 -28 -1 -2 10 7 26 20 37 23 18 24 19 28 1 2 -10 -7 -26 -20 -37z
m1672 2 c-13 -10 -28 -19 -35 -19 -6 0 3 11 19 24 17 13 32 22 35 19 3 -2 -6
-13 -19 -24z m-515 -14 c14 -11 16 -15 4 -15 -12 0 -10 -4 4 -15 27 -20 42
-19 25 2 -13 15 -12 15 9 4 12 -6 22 -18 22 -26 0 -18 5 -19 -58 5 -29 11 -62
20 -75 21 -12 0 -16 3 -9 6 6 2 12 11 12 19 0 18 41 18 66 -1z m-138 -32 c-22
-27 -34 -6 -14 26 7 11 10 11 17 0 4 -8 3 -19 -3 -26z m-1782 -3 c0 -13 -7
-20 -18 -20 -10 0 -18 -4 -18 -8 0 -5 -25 -21 -55 -37 -30 -15 -55 -31 -55
-36 0 -5 -6 -9 -12 -9 -7 1 5 16 26 35 22 19 34 35 28 35 -7 0 -12 5 -12 10 0
6 13 10 29 10 16 0 39 9 52 20 30 25 35 25 35 0z m571 -47 c0 -32 -2 -45 -4
-28 -3 16 -9 33 -14 36 -6 3 -7 18 -4 32 11 43 22 22 22 -40z m3265 39 c4 -32
0 -52 -11 -52 -4 0 -7 18 -8 40 -2 46 13 55 19 12z m-1756 -27 c-10 -8 -15
-18 -12 -24 10 -15 -43 -26 -57 -12 -14 14 3 32 46 47 38 13 49 8 23 -11z
m-2036 12 c0 -2 -10 -12 -21 -23 -22 -19 -22 -19 -10 4 10 18 31 31 31 19z
m-181 -10 c-9 -8 -69 -35 -69 -32 0 12 35 35 52 35 12 0 19 -2 17 -3z m2618
-27 c-14 -11 -40 -20 -59 -20 -32 1 -31 2 17 19 67 24 72 25 42 1z m-707 -18
c0 -4 -9 -8 -20 -9 -22 -2 -27 13 -7 20 14 5 27 -1 27 -11z m-1998 -14 c-7 -7
-12 -8 -12 -2 0 14 12 26 19 19 2 -3 -1 -11 -7 -17z m144 7 c-11 -8 -22 -12
-25 -9 -6 6 19 24 34 24 6 -1 1 -7 -9 -15z m79 -55 c4 -6 4 -23 0 -39 -5 -23
-11 -28 -35 -28 -31 0 -43 17 -12 17 16 1 16 2 -2 15 -18 13 -17 14 8 21 14 3
23 10 20 15 -3 5 -1 9 5 9 5 0 13 -5 16 -10z m2020 -21 c12 -19 -5 -23 -22 -6
-16 16 -16 17 -1 17 9 0 20 -5 23 -11z m-2224 -42 c-10 -9 -11 -8 -5 6 3 10 9
15 12 12 3 -3 0 -11 -7 -18z m2733 -8 c-21 -24 -93 -63 -101 -55 -4 4 35 32
92 64 29 16 31 15 9 -9z m-2536 -36 c-10 -2 -26 -2 -35 0 -10 3 -2 5 17 5 19
0 27 -2 18 -5z m2812 -24 c0 -6 -4 -7 -10 -4 -6 3 -7 -1 -4 -9 3 -9 2 -16 -4
-16 -15 0 -20 23 -8 36 12 13 26 9 26 -7z m26 -24 c0 -19 -4 -35 -8 -35 -4 0
-8 5 -8 12 0 6 -10 3 -22 -8 -13 -10 -18 -12 -12 -4 6 8 18 27 27 43 10 15 19
27 20 27 2 0 3 -16 3 -35z m-2356 -405 l0 -430 -287 2 -288 3 -3 415 c-1 228
0 421 3 427 3 10 71 13 290 13 l285 0 0 -430z m62 382 c-7 -9 -15 -25 -18 -34
-7 -21 -24 -24 -24 -4 0 8 7 16 15 20 9 3 12 12 8 22 -5 13 -3 15 7 9 10 -6
12 -4 6 11 -6 15 -5 17 6 6 10 -10 10 -16 0 -30z m2328 -4 c0 -6 -7 -5 -15 2
-8 7 -15 17 -15 22 0 6 7 5 15 -2 8 -7 15 -17 15 -22z m70 -29 c0 -13 -7 -11
-35 7 -35 23 -31 36 5 18 17 -9 30 -20 30 -25z m-585 -79 c3 -5 1 -10 -4 -10
-6 0 -11 5 -11 10 0 6 2 10 4 10 3 0 8 -4 11 -10z m-355 -18 c0 -5 17 -15 38
-23 61 -23 136 -63 139 -75 4 -11 -28 -10 -142 6 -38 6 -98 11 -132 12 -45 2
-63 6 -63 16 0 9 -7 11 -20 7 -52 -16 11 38 65 56 29 10 115 10 115 1z m258
-11 c3 -8 -1 -12 -9 -9 -7 2 -15 10 -17 17 -3 8 1 12 9 9 7 -2 15 -10 17 -17z
m485 -16 c36 -5 87 -36 87 -52 0 -7 6 -10 14 -7 8 3 17 1 21 -5 8 -14 -30 -14
-56 -1 -10 6 -19 7 -19 2 0 -5 23 -19 51 -32 76 -36 114 -72 67 -65 -57 10
-84 19 -101 33 -9 8 -20 13 -23 9 -3 -3 8 -18 26 -34 l32 -29 -41 -1 c-22 -1
-43 2 -46 8 -4 5 -11 9 -17 9 -7 0 -6 -6 2 -15 7 -8 17 -15 23 -15 10 0 36
-29 37 -42 0 -3 -9 -4 -20 -1 -11 3 -20 10 -20 17 0 6 -4 5 -9 -3 -6 -9 -24
-14 -50 -13 -46 2 -57 -19 -21 -38 14 -8 20 -8 20 0 0 7 5 6 13 -2 10 -9 11
-15 3 -24 -11 -12 -20 -9 -63 22 -21 15 -22 15 -17 -21 l4 -37 -32 8 c-18 4
-42 8 -53 9 -37 4 -85 17 -91 26 -11 18 -25 8 -19 -13 6 -22 5 -22 -9 -4 -11
13 -22 17 -41 12 -19 -5 -25 -3 -20 5 9 14 -12 29 -43 29 -13 0 -20 4 -17 10
3 6 -3 10 -13 10 -11 0 -25 7 -32 15 -7 8 -18 15 -24 15 -6 0 -20 12 -30 26
-15 19 -25 24 -44 19 -32 -8 -22 6 22 29 l35 19 35 -27 35 -27 48 25 c27 13
79 51 117 85 63 55 97 77 81 51 -11 -17 25 -24 38 -7 15 20 74 37 107 31 14
-2 37 -6 53 -9z m-976 -47 c-13 -18 -31 -33 -39 -33 -22 0 -45 -23 -52 -50 -4
-14 -11 -25 -16 -25 -15 0 -12 15 10 43 11 14 20 28 20 31 0 16 66 64 89 65 9
1 5 -10 -12 -31z m-266 -71 c-1 -12 -15 -9 -19 4 -3 6 1 10 8 8 6 -3 11 -8 11
-12z m149 -55 c0 -5 -13 -21 -29 -37 -17 -15 -32 -35 -34 -44 -2 -9 -3 -3 0
14 5 39 63 101 63 67z m101 -2 c10 -6 19 -18 19 -26 0 -8 -4 -12 -10 -9 -6 3
-7 -1 -3 -10 4 -12 8 -13 13 -5 6 9 10 8 17 -4 5 -10 25 -19 44 -21 19 -1 58
-6 87 -10 51 -7 55 -6 87 25 l34 33 -2 -36 c-1 -19 -5 -33 -9 -31 -3 2 -8 0
-10 -6 -2 -6 -24 -12 -50 -14 -32 -2 -45 1 -42 8 3 6 -3 0 -14 -13 -16 -20
-22 -22 -41 -12 -15 9 -20 18 -16 32 9 26 -10 24 -21 -2 -9 -20 -11 -20 -26
-5 -9 9 -21 16 -27 16 -6 0 -11 5 -11 11 0 6 -6 9 -14 6 -7 -3 -18 -1 -24 5
-13 13 -70 19 -77 8 -3 -4 -6 -42 -7 -83 -1 -42 -6 -73 -11 -70 -8 5 -1 128
10 166 4 17 58 57 76 57 5 0 17 -5 28 -10z m349 -20 c0 -5 -12 -10 -27 -9 -25
0 -26 1 -8 9 27 12 35 12 35 0z m90 6 c0 -2 -7 -7 -16 -10 -8 -3 -12 -2 -9 4
6 10 25 14 25 6z m-2340 -46 c0 -5 -5 -10 -11 -10 -5 0 -7 5 -4 10 3 6 8 10
11 10 2 0 4 -4 4 -10z m-140 -15 c0 -8 -2 -15 -4 -15 -2 0 -6 7 -10 15 -3 8
-1 15 4 15 6 0 10 -7 10 -15z m2518 -4 c10 -6 10 -10 -3 -21 -8 -7 -15 -11
-16 -9 -8 42 -6 46 19 30z m-47 -29 c-7 -2 -18 1 -23 6 -8 8 -4 9 13 5 13 -4
18 -8 10 -11z m-2434 -24 c-3 -7 -5 -2 -5 12 0 14 2 19 5 13 2 -7 2 -19 0 -25z
m1818 -45 l-26 -28 11 30 c6 16 17 36 23 44 10 12 12 12 15 -2 2 -9 -8 -29
-23 -44z m600 32 c68 -9 89 -16 123 -41 37 -28 41 -49 12 -57 -11 -3 -20 0
-20 6 0 9 -2 9 -8 1 -11 -17 -72 -26 -72 -11 0 9 -2 9 -8 1 -4 -7 -28 -13 -54
-15 -43 -4 -48 -2 -48 16 -1 26 -27 57 -76 90 l-39 27 75 -6 c41 -3 93 -8 115
-11z m-121 -174 c-5 -5 -20 -12 -34 -16 -21 -7 -23 -6 -13 6 7 8 22 15 34 16
12 1 18 -2 13 -6z m109 -156 c10 -2 31 0 47 5 20 6 34 4 47 -6 17 -13 17 -13
-2 -15 -27 -3 -49 -6 -55 -9 -3 -1 -14 -3 -24 -5 -11 -2 -29 -6 -40 -9 -16 -4
-25 2 -38 24 l-17 29 32 -5 c18 -3 40 -7 50 -9z m1117 -24 c0 -6 -4 -13 -10
-16 -5 -3 -10 1 -10 9 0 9 5 16 10 16 6 0 10 -4 10 -9z m-2890 -10 c0 -5 -7
-12 -16 -15 -14 -5 -15 -4 -4 9 14 17 20 19 20 6z"/>
<path d="M1554 3684 c3 -9 6 -18 6 -20 0 -6 36 -5 43 2 12 13 -6 34 -30 34
-19 0 -24 -4 -19 -16z"/>
<path d="M1383 3674 c-3 -8 -1 -20 5 -26 16 -16 42 -2 42 22 0 24 -38 28 -47
4z"/>
<path d="M1913 3424 c-3 -8 -1 -20 6 -27 8 -8 11 -4 11 16 0 30 -7 35 -17 11z"/>
<path d="M1850 3410 c0 -16 5 -21 23 -18 12 2 22 10 22 18 0 8 -10 16 -22 18
-18 3 -23 -2 -23 -18z"/>
<path d="M1420 3370 c0 -11 5 -20 10 -20 6 0 10 9 10 20 0 11 -4 20 -10 20 -5
0 -10 -9 -10 -20z"/>
<path d="M1920 3350 c0 -5 5 -10 10 -10 6 0 10 5 10 10 0 6 -4 10 -10 10 -5 0
-10 -4 -10 -10z"/>
<path d="M1455 3310 c-3 -5 -1 -10 4 -10 6 0 11 5 11 10 0 6 -2 10 -4 10 -3 0
-8 -4 -11 -10z"/>
<path d="M3560 2099 c0 -11 30 -12 48 0 9 5 3 8 -17 9 -17 0 -31 -4 -31 -9z"/>
<path d="M3599 2053 c-13 -15 -12 -15 9 -4 23 12 28 21 13 21 -5 0 -15 -7 -22
-17z"/>
<path d="M3614 2025 c-18 -14 -18 -14 4 -8 12 3 22 9 22 14 0 12 -3 11 -26 -6z"/>
<path d="M3251 1406 c12 -10 59 -15 59 -6 0 5 -14 10 -32 10 -17 0 -29 -2 -27
-4z"/>
<path d="M3325 1390 c3 -5 11 -10 16 -10 6 0 7 5 4 10 -3 6 -11 10 -16 10 -6
0 -7 -4 -4 -10z"/>
<path d="M1260 1049 c0 -5 5 -7 10 -4 6 3 10 8 10 11 0 2 -4 4 -10 4 -5 0 -10
-5 -10 -11z"/>
<path d="M1192 523 l3 -418 278 -3 277 -2 0 420 0 420 -280 0 -280 0 2 -417z
m41 377 c-3 -11 -7 -20 -9 -20 -2 0 -4 9 -4 20 0 11 4 20 9 20 5 0 7 -9 4 -20z
m44 0 c-1 -12 -5 -16 -10 -11 -5 5 -6 14 -3 20 11 16 15 13 13 -9z m65 11 c12
6 21 5 30 -4 11 -12 14 -12 23 -1 7 11 10 6 11 -21 1 -29 -1 -33 -16 -25 -11
6 -21 5 -27 -1 -8 -8 -13 -7 -17 0 -4 6 -2 11 3 11 6 0 11 7 11 15 0 18 -12
19 -28 3 -9 -9 -12 -9 -12 0 0 7 -7 12 -15 12 -8 0 -15 5 -15 10 0 7 6 7 18 1
11 -6 24 -6 34 0z m133 -1 c3 -5 1 -10 -4 -10 -6 0 -11 5 -11 10 0 6 2 10 4
10 3 0 8 -4 11 -10z m-28 -37 c-3 -10 -5 -4 -5 12 0 17 2 24 5 18 2 -7 2 -21
0 -30z m-137 7 c0 -5 -4 -10 -10 -10 -5 0 -10 5 -10 10 0 6 5 10 10 10 6 0 10
-4 10 -10z m204 -11 c-3 -5 -10 -7 -15 -3 -5 3 -7 10 -3 15 3 5 10 7 15 3 5
-3 7 -10 3 -15z m-254 1 c0 -5 -2 -10 -4 -10 -3 0 -8 5 -11 10 -3 6 -1 10 4
10 6 0 11 -4 11 -10z m0 -52 c0 6 4 12 9 12 10 0 8 -46 -2 -56 -12 -12 -27 8
-27 34 0 21 2 24 10 12 6 -10 10 -11 10 -2z m50 8 c0 -3 -4 -8 -10 -11 -5 -3
-10 -1 -10 4 0 6 5 11 10 11 6 0 10 -2 10 -4z m29 -34 c0 -24 -1 -25 -9 -7
-12 28 -12 47 0 40 6 -3 10 -18 9 -33z m51 34 c0 -3 -4 -8 -10 -11 -5 -3 -10
-1 -10 4 0 6 5 11 10 11 6 0 10 -2 10 -4z m88 -9 c-5 -6 23 -37 33 -37 14 0
11 38 -3 43 -8 3 -6 6 5 6 12 1 17 -7 17 -26 l1 -28 14 30 13 30 1 -27 c1 -14
7 -29 14 -32 14 -6 -60 -6 -85 1 -12 3 -18 14 -18 30 0 15 3 24 6 21 3 -4 4
-8 2 -11z m149 -10 c2 -17 0 -17 -10 -4 -7 8 -21 17 -32 20 -12 3 -7 5 11 4
22 -1 30 -6 31 -20z m-270 -19 c-3 -8 -6 -5 -6 6 -1 11 2 17 5 13 3 -3 4 -12
1 -19z m60 -10 c-3 -7 -5 -2 -5 12 0 14 2 19 5 13 2 -7 2 -19 0 -25z m187 18
c-3 -8 2 -16 13 -19 14 -4 14 -5 -4 -6 -17 -1 -23 5 -23 19 0 11 4 20 10 20 5
0 7 -6 4 -14z m-291 -10 c4 -10 1 -13 -9 -9 -7 3 -14 9 -14 14 0 14 17 10 23
-5z m417 4 c0 -5 -2 -10 -4 -10 -3 0 -8 5 -11 10 -3 6 -1 10 4 10 6 0 11 -4
11 -10z m-10 -265 l0 -225 -250 0 -250 0 0 225 0 225 250 0 250 0 0 -225z
m-480 -257 c0 -16 -3 -19 -11 -11 -6 6 -8 16 -5 22 11 17 16 13 16 -11z m70 2
c0 -11 -50 -19 -56 -9 -10 16 5 26 31 21 14 -2 25 -8 25 -12z m73 11 c9 -1 17
-8 17 -16 0 -13 -4 -14 -20 -5 -15 8 -20 8 -20 -2 0 -10 -2 -10 -9 1 -5 7 -14
10 -20 7 -6 -4 -11 0 -11 8 0 11 7 15 23 12 12 -3 30 -5 40 -5z m47 0 c0 -6
-4 -13 -10 -16 -5 -3 -10 1 -10 9 0 9 5 16 10 16 6 0 10 -4 10 -9z m40 -1 c0
-5 7 -7 15 -4 8 4 15 2 15 -4 0 -5 -7 -13 -16 -16 -19 -7 -47 12 -38 25 7 12
24 11 24 -1z m47 -12 c-3 -8 -6 -5 -6 6 -1 11 2 17 5 13 3 -3 4 -12 1 -19z
m67 6 c7 -19 -14 -30 -25 -13 -6 10 -9 11 -9 2 0 -7 -4 -13 -10 -13 -5 0 -10
8 -10 19 0 22 46 27 54 5z m66 -7 c0 -6 -3 -7 -7 -4 -10 11 -33 -13 -33 -34 0
-21 -15 -25 -26 -7 -4 6 -2 14 4 16 7 2 12 12 12 21 0 10 3 20 6 23 8 9 44 -3
44 -15z m-242 -39 c-6 -17 -58 -23 -58 -7 0 8 -4 8 -15 -1 -12 -10 -15 -10
-15 1 0 9 -3 10 -8 3 -4 -6 -25 -10 -47 -9 -48 3 -48 3 -41 14 3 5 47 9 97 10
70 1 90 -1 87 -11z m22 -3 c0 -8 -4 -15 -10 -15 -5 0 -7 7 -4 15 4 8 8 15 10
15 2 0 4 -7 4 -15z m117 2 c3 -5 9 -4 13 3 5 8 9 7 13 -4 5 -13 -2 -16 -43
-16 -33 0 -50 4 -51 13 0 10 -2 10 -6 0 -7 -18 -23 -16 -23 2 0 12 10 15 46
14 25 -2 48 -7 51 -12z m134 1 c0 -10 2 -10 6 0 7 17 23 15 23 -3 0 -12 -10
-15 -40 -13 -44 3 -57 28 -15 28 14 0 25 -6 26 -12z m-371 -38 c0 -5 -12 -10
-27 -11 l-28 -1 25 -7 25 -8 -25 -5 c-25 -5 -25 -5 3 -7 46 -2 30 -21 -18 -21
-45 0 -45 0 -45 35 0 35 0 35 45 35 25 0 45 -4 45 -10z m104 4 c9 -3 16 -10
16 -16 0 -5 -6 -6 -12 -3 -7 4 -5 0 6 -9 10 -8 15 -19 11 -25 -8 -14 -82 -14
-90 -1 -3 6 2 10 12 10 17 1 17 1 0 11 -36 21 14 50 57 33z m132 -3 c7 0 14
-14 16 -31 4 -24 1 -30 -14 -30 -10 0 -18 5 -18 10 0 6 -7 10 -15 10 -8 0 -15
-4 -15 -10 0 -5 -9 -10 -20 -10 -15 0 -20 7 -20 28 0 16 3 31 6 34 5 5 36 5
80 -1z m146 -26 c7 -33 3 -35 -54 -35 -47 0 -48 1 -48 30 0 29 1 30 49 30 44
0 49 -2 53 -25z"/>
<path d="M1415 698 c-71 -22 -131 -41 -133 -43 -5 -4 50 -169 60 -182 5 -7 8
-18 5 -25 -4 -8 -6 -7 -6 5 -1 20 -5 21 -32 7 -22 -12 -26 -32 -5 -24 11 4 16
-5 18 -37 3 -45 28 -69 28 -26 0 45 21 87 46 93 32 8 52 -1 65 -30 25 -53 -17
-104 -68 -85 -26 9 -28 6 -13 -21 9 -17 17 -16 142 23 73 22 135 42 137 43 9
8 -21 84 -33 84 -7 0 -38 -9 -69 -19 -56 -19 -57 -19 -67 -1 -12 22 -11 23 63
44 62 18 61 16 36 83 l-8 21 -63 -19 c-35 -10 -64 -19 -66 -19 -2 0 -2 10 0
21 2 17 17 26 66 41 57 17 62 21 56 41 -11 37 -23 67 -26 66 -2 -1 -61 -19
-133 -41z m101 -314 c-7 -7 -14 -8 -22 0 -7 7 -8 14 0 22 7 7 14 8 22 0 7 -7
8 -14 0 -22z"/>
<path d="M1249 728 c-6 -22 -4 -35 5 -35 7 0 13 9 13 19 1 10 -2 18 -8 18 -5
0 -9 -1 -10 -2z"/>
<path d="M1390 441 c-13 -26 -13 -54 2 -69 32 -32 67 12 49 61 -12 32 -36 35
-51 8z"/>
<path d="M1508 173 c7 -3 16 -2 19 1 4 3 -2 6 -13 5 -11 0 -14 -3 -6 -6z"/>
<path d="M1638 143 c7 -3 16 -2 19 1 4 3 -2 6 -13 5 -11 0 -14 -3 -6 -6z"/>
<path d="M3792 675 c-6 -8 -19 -12 -27 -9 -8 4 -15 1 -15 -4 0 -9 61 -10 80
-2 3 1 14 2 25 2 17 -1 17 0 2 4 -9 3 -15 10 -12 15 10 15 -39 10 -53 -6z"/>
<path d="M3719 606 c-2 -2 -17 -6 -34 -9 -38 -6 -85 -28 -85 -39 0 -12 109
-60 121 -53 16 11 10 25 -12 25 -11 0 -18 4 -14 10 3 5 13 7 23 4 14 -5 14 -3
-2 6 -10 7 -34 10 -55 7 -35 -6 -35 -6 -11 8 14 8 32 14 41 15 17 0 60 29 43
30 -6 0 -13 -2 -15 -4z"/>
<path d="M3731 570 c-12 -7 -9 -10 12 -16 16 -3 31 -4 34 0 4 3 -1 6 -9 6 -9
0 -18 4 -20 10 -2 6 -9 6 -17 0z"/>
<path d="M3810 439 c0 -5 5 -7 10 -4 6 3 10 8 10 11 0 2 -4 4 -10 4 -5 0 -10
-5 -10 -11z"/>
<path d="M2910 4170 c0 -25 40 -38 52 -16 5 9 19 16 31 16 20 1 20 1 4 11 -13
7 -22 7 -31 0 -7 -6 -16 -8 -20 -4 -14 15 -36 10 -36 -7z"/>
<path d="M2132 4085 c0 -11 3 -29 8 -40 11 -25 11 1 0 35 -6 20 -8 21 -8 5z"/>
<path d="M3765 4074 c-19 -20 -68 -114 -62 -120 2 -3 16 1 30 7 31 14 61 5 53
-16 -3 -8 -1 -26 4 -39 6 -18 5 -28 -6 -36 -18 -16 -18 -28 0 -46 21 -20 29
-18 48 13 l16 26 16 -32 c31 -60 92 -67 143 -16 37 37 47 38 56 5 3 -12 -4
-28 -20 -45 -30 -29 -27 -31 13 -10 19 10 30 11 33 4 2 -6 18 6 36 25 18 20
38 36 44 36 15 0 1 31 -23 54 -45 39 -84 66 -98 66 -26 0 -171 77 -206 109
-38 35 -54 38 -77 15z m152 -226 c-3 -32 28 -34 57 -5 27 28 42 14 17 -15 -19
-23 -69 -23 -93 -1 -24 21 -23 43 2 43 14 0 19 -6 17 -22z"/>
<path d="M2950 4017 c-13 -22 -4 -57 16 -57 8 0 13 3 13 8 -3 18 2 26 10 14 6
-10 11 -9 22 4 8 10 9 15 2 11 -6 -4 -15 -2 -19 4 -4 7 -3 9 4 5 6 -3 13 -2
17 4 12 19 26 10 20 -11 -5 -16 -3 -20 6 -16 8 2 13 10 12 16 -2 6 6 11 17 11
11 0 17 5 15 13 -4 8 -26 12 -64 12 -46 0 -62 -4 -71 -18z"/>
<path d="M2171 3964 c0 -11 3 -14 6 -6 3 7 2 16 -1 19 -3 4 -6 -2 -5 -13z"/>
<path d="M2835 3922 c-72 -6 -56 -17 26 -18 44 -1 78 0 77 1 -13 10 -70 20
-103 17z"/>
<path d="M2739 3894 c-7 -9 -19 -32 -25 -50 l-12 -34 63 0 c34 0 88 5 120 12
l59 12 -59 12 c-33 7 -80 13 -104 13 l-43 1 16 25 c18 28 6 35 -15 9z"/>
<path d="M955 3856 c-11 -70 0 -217 16 -227 8 -5 14 -14 14 -21 0 -7 8 -13 18
-13 10 0 21 -6 26 -14 6 -9 11 -10 15 -2 4 6 1 11 -6 11 -10 0 -9 3 2 10 9 5
19 5 26 -1 9 -8 10 0 2 30 -6 23 -14 38 -19 35 -5 -3 -9 2 -9 10 0 9 -4 16
-10 16 -5 0 -10 -4 -10 -10 0 -5 -10 -9 -22 -9 -17 1 -19 2 -5 6 9 2 17 9 17
14 0 5 9 9 19 9 25 0 36 16 16 24 -22 8 -18 37 5 43 11 3 20 9 20 14 0 18 -24
59 -34 59 -6 0 -17 9 -24 20 -7 11 -19 20 -26 20 -8 0 -16 6 -19 13 -2 6 -8
-10 -12 -37z m88 -214 c3 7 6 8 6 2 1 -5 -5 -19 -13 -29 -13 -18 -14 -18 -25
3 -15 29 -3 52 15 28 9 -13 13 -14 17 -4z"/>
<path d="M3025 3854 c-9 -10 -26 -14 -40 -11 -33 6 -32 -4 3 -26 15 -9 42 -28
61 -42 23 -17 38 -22 44 -16 7 7 6 15 -1 23 -5 7 -13 30 -17 51 -8 40 -24 47
-50 21z"/>
<path d="M2656 3842 c-2 -4 -1 -14 4 -22 7 -11 9 -9 7 8 -1 24 -3 26 -11 14z"/>
<path d="M1050 3751 c0 -6 5 -13 10 -16 6 -3 10 1 10 9 0 9 -4 16 -10 16 -5 0
-10 -4 -10 -9z"/>
<path d="M2655 3750 c-11 -4 -33 -21 -48 -38 l-28 -30 48 -6 c45 -6 190 -31
241 -42 27 -5 29 -27 3 -45 -18 -13 -18 -18 -4 -84 11 -53 25 -83 56 -125 22
-30 40 -62 40 -72 -1 -10 3 -18 9 -18 14 0 47 -42 48 -60 0 -8 -4 -21 -8 -28
-10 -15 -63 30 -101 86 -13 19 -43 41 -72 53 -27 12 -49 25 -49 29 0 4 -14 7
-30 8 -30 1 -30 0 -24 -36 10 -62 13 -67 45 -81 17 -7 44 -32 60 -55 17 -22
42 -56 57 -75 46 -58 61 -99 68 -189 l7 -87 58 -60 c32 -33 66 -70 77 -82 21
-25 53 -34 33 -10 -6 8 -7 18 -3 22 4 5 1 5 -6 1 -7 -4 -24 5 -42 23 -30 30
-40 48 -18 35 7 -4 8 -3 4 5 -4 6 -12 9 -17 6 -12 -8 -40 20 -31 30 4 5 1 5
-5 1 -7 -4 -13 -3 -13 1 0 5 6 15 13 22 10 11 10 13 0 7 -8 -4 -13 -2 -13 6 0
11 -2 10 -9 0 -13 -21 -19 3 -17 73 2 70 43 168 96 228 46 52 114 91 146 83
14 -4 22 -11 18 -17 -4 -8 4 -9 27 -3 50 13 200 10 229 -5 20 -9 18 -6 -9 18
-37 32 -113 49 -174 37 -23 -4 -28 -3 -17 4 8 5 24 10 36 10 20 0 20 4 16 173
-2 94 -9 177 -14 184 -5 7 -20 15 -31 19 -12 3 -30 13 -39 22 -23 19 -23 11 0
-36 19 -37 19 -72 1 -72 -5 0 -12 7 -15 15 -3 8 -16 17 -27 21 -12 4 -27 14
-33 22 -20 27 -37 3 -31 -43 l6 -43 -73 72 c-40 39 -80 86 -90 104 -17 33 -23
36 -50 26 -10 -4 -13 -11 -8 -18 4 -6 23 -47 42 -91 19 -44 49 -102 67 -129
34 -52 36 -71 5 -43 -10 10 -21 15 -23 13 -2 -3 -26 15 -54 39 -36 32 -54 57
-65 92 -15 47 -16 48 -65 55 -120 18 -185 32 -185 40 0 4 9 8 20 8 11 0 20 5
20 11 0 5 3 8 8 6 4 -2 23 1 42 9 l35 12 -60 1 c-33 0 -69 -4 -80 -9z"/>
<path d="M2570 3644 c-75 -26 -114 -54 -75 -54 8 0 15 3 15 8 0 4 42 7 93 7
103 0 153 10 125 26 -19 11 -136 20 -158 13z"/>
<path d="M3685 3620 c-3 -5 -1 -10 4 -10 6 0 11 5 11 10 0 6 -2 10 -4 10 -3 0
-8 -4 -11 -10z"/>
<path d="M2670 3500 c-30 -5 -85 -8 -122 -9 -37 -1 -70 -6 -73 -11 -5 -7 45
-10 154 -8 89 1 161 5 161 8 0 3 -5 11 -12 18 -13 13 -24 13 -108 2z"/>
<path d="M2432 3420 c-24 -22 -23 -41 0 -23 7 6 38 9 68 7 51 -3 92 7 79 20
-3 3 -32 9 -65 12 -52 5 -62 3 -82 -16z"/>
<path d="M2495 3241 c-3 -5 -1 -12 5 -16 5 -3 10 1 10 9 0 18 -6 21 -15 7z"/>
<path d="M3136 3113 c-6 -14 -5 -15 5 -6 7 7 10 15 7 18 -3 3 -9 -2 -12 -12z"/>
<path d="M5029 2843 l-24 -28 28 24 c25 23 32 31 24 31 -2 0 -14 -12 -28 -27z"/>
<path d="M4969 2793 l-24 -28 28 24 c25 23 32 31 24 31 -2 0 -14 -12 -28 -27z"/>
<path d="M3165 2680 c-3 -4 7 -11 21 -14 35 -9 39 -4 8 11 -13 6 -26 8 -29 3z"/>
<path d="M4910 2625 c-11 -28 -6 -47 23 -88 24 -35 35 -28 12 7 -21 32 -13 56
18 56 25 0 66 -32 85 -66 8 -15 13 -16 23 -7 9 9 7 19 -8 45 -41 71 -134 103
-153 53z"/>
<path d="M3465 2490 c3 -5 8 -10 11 -10 2 0 4 5 4 10 0 6 -5 10 -11 10 -5 0
-7 -4 -4 -10z"/>
<path d="M5020 2490 c-24 -8 -23 -8 8 -9 17 -1 32 4 32 9 0 11 -5 11 -40 0z"/>
<path d="M4135 1680 c3 -5 8 -10 11 -10 2 0 4 5 4 10 0 6 -5 10 -11 10 -5 0
-7 -4 -4 -10z"/>
<path d="M981 1664 c0 -11 3 -14 6 -6 3 7 2 16 -1 19 -3 4 -6 -2 -5 -13z"/>
<path d="M961 1604 c0 -11 3 -14 6 -6 3 7 2 16 -1 19 -3 4 -6 -2 -5 -13z"/>
<path d="M962 1525 c0 -16 2 -22 5 -12 2 9 2 23 0 30 -3 6 -5 -1 -5 -18z"/>
<path d="M1152 1353 c-12 -8 -34 -15 -48 -15 -17 0 -24 -5 -20 -14 3 -7 1 -16
-4 -19 -6 -4 -10 -1 -10 5 0 6 -5 8 -11 4 -6 -3 -15 0 -20 7 -7 11 -9 9 -9 -6
0 -16 -2 -17 -10 -5 -8 12 -10 12 -16 -4 -5 -14 -9 -15 -15 -4 -7 10 -9 8 -10
-7 -1 -16 -2 -16 -8 5 -7 22 -9 19 -15 -22 -5 -25 -5 -60 -1 -77 l6 -30 24 27
c14 15 25 21 25 13 0 -8 6 -11 15 -7 13 5 14 2 4 -15 -6 -11 -9 -22 -7 -25 2
-2 21 28 42 66 21 39 55 85 79 104 44 37 48 46 9 19z"/>
<path d="M2622 1311 c-10 -6 -10 -10 1 -20 12 -9 16 -8 20 3 7 19 -4 27 -21
17z"/>
<path d="M990 1185 c0 -8 2 -15 4 -15 2 0 6 7 10 15 3 8 1 15 -4 15 -6 0 -10
-7 -10 -15z"/>
<path d="M2480 1190 c-9 -6 -10 -10 -3 -10 6 0 15 5 18 10 8 12 4 12 -15 0z"/>
<path d="M2530 1185 c-16 -19 -62 -28 -71 -14 -4 7 -14 9 -25 4 -11 -5 -21 -9
-24 -9 -3 -1 -20 -8 -39 -15 -29 -12 -31 -16 -15 -21 11 -4 32 1 50 12 47 27
49 8 3 -24 -22 -15 -39 -23 -39 -18 0 5 -7 6 -17 3 -12 -5 -14 -3 -8 7 6 10 4
12 -8 7 -9 -3 -33 -11 -54 -16 -48 -14 -81 -35 -43 -28 14 2 34 8 45 12 18 6
18 5 4 -7 -9 -7 -14 -17 -12 -23 2 -6 -23 -10 -62 -10 -48 -1 -69 -6 -84 -19
-20 -18 -20 -20 -3 -32 9 -7 12 -14 6 -14 -6 0 -17 7 -24 15 -7 8 -22 15 -33
15 -19 0 -20 -1 -2 -20 10 -11 20 -18 23 -15 3 3 12 -1 20 -8 23 -19 463 -17
486 2 9 8 15 20 12 28 -3 7 -1 24 4 37 8 23 6 25 -23 28 l-32 4 25 11 c23 11
21 12 -23 12 -39 1 -52 -4 -67 -21 -10 -13 -21 -21 -24 -18 -3 3 6 19 19 35
13 17 32 40 42 53 10 13 23 30 30 37 10 10 8 14 -7 18 -11 3 -24 -1 -30 -8z
m-80 -69 c0 -2 -8 -10 -17 -17 -16 -13 -17 -12 -4 4 13 16 21 21 21 13z m-105
-53 c-15 -12 -16 -14 -3 -10 9 3 22 -1 28 -9 10 -12 8 -14 -15 -14 -17 0 -37
-10 -51 -25 -13 -14 -29 -25 -36 -25 -7 1 -3 9 10 19 12 11 22 23 22 28 0 14
39 53 53 53 7 0 3 -8 -8 -17z"/>
<path d="M2570 1120 c0 -5 5 -10 11 -10 5 0 7 5 4 10 -3 6 -8 10 -11 10 -2 0
-4 -4 -4 -10z"/>
<path d="M1995 993 c-31 -6 -65 -25 -60 -33 6 -10 55 0 55 11 0 5 4 9 10 9 5
0 6 -8 3 -17 -6 -15 -4 -16 8 -6 10 8 19 9 25 3 5 -5 15 -6 23 0 12 7 12 11 2
24 -13 16 -27 18 -66 9z"/>
<path d="M1841 819 c-9 -16 -9 -24 0 -35 18 -22 29 -17 29 15 0 37 -12 46 -29
20z"/>
<path d="M5148 510 c12 -12 22 -25 22 -29 0 -21 -39 -53 -85 -71 -27 -10 -42
-19 -33 -20 9 0 20 -9 23 -21 8 -25 -34 -74 -72 -84 -54 -13 -14 -13 50 0 120
25 207 86 207 145 0 40 -28 69 -85 85 l-49 15 22 -20z"/>
<path d="M4940 215 c0 -22 4 -24 33 -22 24 2 32 7 32 21 0 11 -5 21 -12 23 -7
3 -9 -4 -6 -18 4 -15 3 -20 -5 -15 -7 4 -12 14 -12 22 0 8 -7 14 -15 14 -9 0
-15 -9 -15 -25z m17 -7 c-3 -8 -6 -5 -6 6 -1 11 2 17 5 13 3 -3 4 -12 1 -19z"/>
<path d="M2384 45 c-3 -14 -12 -25 -20 -25 -8 0 -14 -4 -14 -10 0 -15 157 -13
163 3 8 23 -5 37 -35 37 -17 0 -27 -4 -23 -10 4 -6 10 -8 15 -5 5 3 11 1 15
-5 6 -9 1 -11 -37 -14 -7 -1 -12 7 -10 17 3 18 2 18 -24 0 l-27 -17 7 27 c3
15 4 27 1 27 -2 0 -7 -11 -11 -25z"/>
</g>
</svg>
